STARTFONT 2.1
FONT -HP-Mincho-Bold-R-Normal--24-173-100-100-C-240-JISX0212.1990-0
SIZE 17 100 100
FONTBOUNDINGBOX 24 24 0 -2

STARTPROPERTIES 23
FONTNAME_REGISTRY ""
FOUNDRY "HP"
FAMILY_NAME "Mincho"
WEIGHT_NAME "Bold"
SLANT "R"
SETWIDTH_NAME "Normal"
ADD_STYLE_NAME ""
PIXEL_SIZE 24
POINT_SIZE 173
RESOLUTION_X 100
RESOLUTION_Y 100
SPACING "C"
AVERAGE_WIDTH 240
CHARSET_REGISTRY "JISX0212.1990"
CHARSET_ENCODING "0"
COPYRIGHT "Copyright (c) 1994 Hewlett-Packard Company. Copyright 1994 by Bridge Inc."
_HP_ASXVERSION "@(#) ASX 3.00 $Revision: 13.9 $ minBX24s"
WEIGHT 10
X_HEIGHT 22
QUAD_WIDTH 24
DEFAULT_CHAR 8481
FONT_DESCENT 2
FONT_ASCENT 22
ENDPROPERTIES

CHARS 6068

STARTCHAR jisx0212_2121
ENCODING 8481
SWIDTH 960 0
DWIDTH 24 0
BBX 24 24 0 -2
BITMAP
000000
300006
300006
000000
000000
000000
000000
000000
000000
000000
000000
000000
000000
000000
000000
000000
000000
000000
000000
000000
300006
300006
000000
000000
ENDCHAR

STARTCHAR jisx0212_222F
ENCODING 8751
SWIDTH 960 0
DWIDTH 24 0
BBX 24 24 0 -2
BITMAP
01C1C0
01FFC0
00FF80
007F00
000000
000000
000000
000000
000000
000000
000000
000000
000000
000000
000000
000000
000000
000000
000000
000000
000000
000000
000000
000000
ENDCHAR

STARTCHAR jisx0212_2230
ENCODING 8752
SWIDTH 960 0
DWIDTH 24 0
BBX 24 24 0 -2
BITMAP
01E780
00FF00
007E00
003C00
000000
000000
000000
000000
000000
000000
000000
000000
000000
000000
000000
000000
000000
000000
000000
000000
000000
000000
000000
000000
ENDCHAR

STARTCHAR jisx0212_2231
ENCODING 8753
SWIDTH 960 0
DWIDTH 24 0
BBX 24 24 0 -2
BITMAP
000000
000000
000000
000000
000000
000000
000000
000000
000000
000000
000000
000000
000000
000000
000000
000000
000C00
000C00
001C00
001E00
001F00
00E700
00FF00
007E00
ENDCHAR

STARTCHAR jisx0212_2232
ENCODING 8754
SWIDTH 960 0
DWIDTH 24 0
BBX 24 24 0 -2
BITMAP
003E00
003E00
003E00
001C00
000000
000000
000000
000000
000000
000000
000000
000000
000000
000000
000000
000000
000000
000000
000000
000000
000000
000000
000000
000000
ENDCHAR

STARTCHAR jisx0212_2233
ENCODING 8755
SWIDTH 960 0
DWIDTH 24 0
BBX 24 24 0 -2
BITMAP
0079E0
00FBE0
00F3C0
01E780
01C700
018600
000000
000000
000000
000000
000000
000000
000000
000000
000000
000000
000000
000000
000000
000000
000000
000000
000000
000000
ENDCHAR

STARTCHAR jisx0212_2234
ENCODING 8756
SWIDTH 960 0
DWIDTH 24 0
BBX 24 24 0 -2
BITMAP
03FFE0
000000
000000
000000
000000
000000
000000
000000
000000
000000
000000
000000
000000
000000
000000
000000
000000
000000
000000
000000
000000
000000
000000
000000
ENDCHAR

STARTCHAR jisx0212_2235
ENCODING 8757
SWIDTH 960 0
DWIDTH 24 0
BBX 24 24 0 -2
BITMAP
000000
000000
000000
000000
000000
000000
000000
000000
000000
000000
000000
000000
000000
000000
000000
000000
0001C0
0003C0
000780
000700
000670
0007F0
0007F0
0003E0
ENDCHAR

STARTCHAR jisx0212_2236
ENCODING 8758
SWIDTH 960 0
DWIDTH 24 0
BBX 24 24 0 -2
BITMAP
007E00
006E00
006600
007E00
003C00
000000
000000
000000
000000
000000
000000
000000
000000
000000
000000
000000
000000
000000
000000
000000
000000
000000
000000
000000
ENDCHAR

STARTCHAR jisx0212_2237
ENCODING 8759
SWIDTH 960 0
DWIDTH 24 0
BBX 24 24 0 -2
BITMAP
01FCE0
03FFE0
039FC0
030780
000000
000000
000000
000000
000000
000000
000000
000000
000000
000000
000000
000000
000000
000000
000000
000000
000000
000000
000000
000000
ENDCHAR

STARTCHAR jisx0212_2238
ENCODING 8760
SWIDTH 960 0
DWIDTH 24 0
BBX 24 24 0 -2
BITMAP
003C00
003C00
003C00
003C00
001800
001800
001800
000000
000000
000000
000000
000000
000000
000000
000000
000000
000000
000000
000000
000000
000000
000000
000000
000000
ENDCHAR

STARTCHAR jisx0212_2239
ENCODING 8761
SWIDTH 960 0
DWIDTH 24 0
BBX 24 24 0 -2
BITMAP
003C00
003C00
003C00
003C00
001800
001800
001800
01C380
03E7C0
03E7C0
01C380
000000
000000
000000
000000
000000
000000
000000
000000
000000
000000
000000
000000
000000
ENDCHAR

STARTCHAR jisx0212_2242
ENCODING 8770
SWIDTH 960 0
DWIDTH 24 0
BBX 24 24 0 -2
BITMAP
000000
003800
007C00
007C00
003800
000000
001800
001800
001800
001800
001800
001800
003C00
003C00
003C00
003C00
003C00
003C00
003C00
003C00
003C00
001800
000000
000000
ENDCHAR

STARTCHAR jisx0212_2243
ENCODING 8771
SWIDTH 960 0
DWIDTH 24 0
BBX 24 24 0 -2
BITMAP
001C00
001C00
001C00
001C00
001C00
001C00
001C00
001C00
001C00
001C00
000000
000000
000000
001C00
001C00
001C00
001C00
001C00
001C00
001C00
001C00
001C00
001C00
001C00
ENDCHAR

STARTCHAR jisx0212_2244
ENCODING 8772
SWIDTH 960 0
DWIDTH 24 0
BBX 24 24 0 -2
BITMAP
000000
001C00
003E00
003E00
001C00
000000
000C00
000C00
000C00
001C00
003C00
007800
00F000
01E000
01C0C0
03C1E0
0381E0
0381E0
03C0E0
01E3C0
01FFC0
007F00
000000
000000
ENDCHAR

STARTCHAR jisx0212_226B
ENCODING 8811
SWIDTH 960 0
DWIDTH 24 0
BBX 24 24 0 -2
BITMAP
000000
1FC000
3FE000
78F000
707000
707000
707000
707000
707000
707000
78F000
3FE000
1FC000
000000
FFF800
FFF800
000000
000000
000000
000000
000000
000000
000000
000000
ENDCHAR

STARTCHAR jisx0212_226C
ENCODING 8812
SWIDTH 960 0
DWIDTH 24 0
BBX 24 24 0 -2
BITMAP
000000
1FC000
3FE000
38E000
3CE000
1BE000
2FE000
7CE000
70E000
70F800
71D800
7FF800
3F7000
000000
FFF800
FFF800
000000
000000
000000
000000
000000
000000
000000
000000
ENDCHAR

STARTCHAR jisx0212_226D
ENCODING 8813
SWIDTH 960 0
DWIDTH 24 0
BBX 24 24 0 -2
BITMAP
03FFE0
0FC1F8
1F007C
3C001E
383ECE
70FFC7
71F3E7
E1C0E3
E3C063
C38061
C38001
C38001
C38001
C38061
E3C063
E1C0E3
71F3E7
70FFC7
383F0E
3C001E
1F007C
0FC1F8
03FFE0
00FF80
ENDCHAR

STARTCHAR jisx0212_226E
ENCODING 8814
SWIDTH 960 0
DWIDTH 24 0
BBX 24 24 0 -2
BITMAP
03FFE0
0FC1F8
1F007C
3C001E
3BFF8E
77FFC7
71C1E7
E1C0E3
E1C0E3
C1C1E1
C1FFC1
C1FF81
C1C701
C1C381
E1C383
E1C383
71C3B7
77F1F7
3FF0FE
38000E
1F007C
0FC1F8
03FFE0
00FF80
ENDCHAR

STARTCHAR jisx0212_226F
ENCODING 8815
SWIDTH 960 0
DWIDTH 24 0
BBX 24 24 0 -2
BITMAP
FFF878
EEDCF0
CE5CF0
0E1DF0
0E1DF0
0E1F70
0E1770
0E1F70
1F3BF8
1F3AF8
000000
000000
000000
000000
000000
000000
000000
000000
000000
000000
000000
000000
000000
000000
ENDCHAR

STARTCHAR jisx0212_2270
ENCODING 8816
SWIDTH 960 0
DWIDTH 24 0
BBX 24 24 0 -2
BITMAP
000000
000000
18000C
1C001C
1E7F3C
0FFFF8
07E3F0
0380E0
070070
070070
060030
060030
060030
070070
070070
0380E0
07E3F0
0FFFF8
1E7F3C
1C001C
18000C
000000
000000
000000
ENDCHAR

STARTCHAR jisx0212_2271
ENCODING 8817
SWIDTH 960 0
DWIDTH 24 0
BBX 24 24 0 -2
BITMAP
000000
F83F7E
F83FFF
3C0CE7
3C0DC3
3E0DC3
2E0DC3
3F0DC3
370DC3
378DC3
338DE7
33CCFF
31CC7E
31EC00
30EC00
30EC00
306C00
307C00
303C00
303C00
FC1C00
FC1C00
000000
000000
ENDCHAR

STARTCHAR jisx0212_2661
ENCODING 9825
SWIDTH 960 0
DWIDTH 24 0
BBX 24 24 0 -2
BITMAP
0F0000
0F1C00
0F1C00
0F3E00
063E00
066F00
067700
006700
00E780
00E380
01C3C0
01C1C0
0181C0
0381E0
0380E0
077FF0
07FFF0
060070
0E0078
0E0038
3D00FE
3F00FE
000000
000000
ENDCHAR

STARTCHAR jisx0212_2662
ENCODING 9826
SWIDTH 960 0
DWIDTH 24 0
BBX 24 24 0 -2
BITMAP
780000
7BFFF8
7BFFF8
78E03C
30E01C
30E00C
30E00C
00E060
00E060
00E0E0
00FFE0
00FFE0
00E0E0
00E060
00E060
00E000
00E006
00E006
00E00E
00E01E
03FFFC
03FFFC
000000
000000
ENDCHAR

STARTCHAR jisx0212_2663
ENCODING 9827
SWIDTH 960 0
DWIDTH 24 0
BBX 24 24 0 -2
BITMAP
F00000
FFE07F
EFE07F
F3801C
63801C
63801C
63801C
03801C
03801C
03801C
03FFFC
03FFFC
03801C
03801C
03801C
03801C
03801C
03801C
03801C
03801C
0FE07F
0FE07F
000000
000000
ENDCHAR

STARTCHAR jisx0212_2664
ENCODING 9828
SWIDTH 960 0
DWIDTH 24 0
BBX 24 24 0 -2
BITMAP
03C000
03DFC0
03DFC0
03C700
018700
018700
018700
000700
000700
000700
000700
000700
000700
000700
000700
000700
000700
000700
000700
000700
001FC0
001FC0
000000
000000
ENDCHAR

STARTCHAR jisx0212_2665
ENCODING 9829
SWIDTH 960 0
DWIDTH 24 0
BBX 24 24 0 -2
BITMAP
01F7C0
01F7C0
00E380
001C00
00FF80
001C00
001C00
001C00
001C00
001C00
001C00
001C00
001C00
001C00
001C00
001C00
001C00
001C00
001C00
001C00
007F00
007F00
000000
000000
ENDCHAR

STARTCHAR jisx0212_2667
ENCODING 9831
SWIDTH 960 0
DWIDTH 24 0
BBX 24 24 0 -2
BITMAP
780000
783F80
78FFE0
79F1F0
33C078
37803C
37001C
0F001E
0E000E
0E000E
0E000E
0E000E
0E000E
0E000E
0E000E
0F001E
07001C
07803C
03C078
01F1F0
00FFE0
003F80
000000
000000
ENDCHAR

STARTCHAR jisx0212_2669
ENCODING 9833
SWIDTH 960 0
DWIDTH 24 0
BBX 24 24 0 -2
BITMAP
780000
79F8FC
7BFDFE
7F9FCF
370F87
360703
360703
000700
000700
000700
000700
000700
000700
000700
000700
000700
000700
000700
000700
000700
001FC0
001FC0
000000
000000
ENDCHAR

STARTCHAR jisx0212_266A
ENCODING 9834
SWIDTH 960 0
DWIDTH 24 0
BBX 24 24 0 -2
BITMAP
01F7C0
01F7C0
00E380
070070
0FF7F8
1E7F3C
1C3E1C
181C0C
181C0C
001C00
001C00
001C00
001C00
001C00
001C00
001C00
001C00
001C00
001C00
001C00
007F00
007F00
000000
000000
ENDCHAR

STARTCHAR jisx0212_266C
ENCODING 9836
SWIDTH 960 0
DWIDTH 24 0
BBX 24 24 0 -2
BITMAP
3C0000
3C1FC0
3C7FF0
3CF8F8
19E03C
19C01C
1BC01E
03800E
03800E
03800E
03800E
03800E
03C01E
01C01C
01E03C
00F8F8
017DF4
019DCC
01CD9C
01FDFC
01FDFC
01FDFC
000000
000000
ENDCHAR

STARTCHAR jisx0212_2671
ENCODING 9841
SWIDTH 960 0
DWIDTH 24 0
BBX 24 24 0 -2
BITMAP
003C00
003C00
003C00
003C00
001800
001800
001800
002618
00FF18
01F7B8
03C3B8
0783F0
070370
0F03E0
0E03E0
0E03C0
0E0398
0E0798
0E0FB8
0F3FF8
07FDF0
03F0E0
000000
000000
ENDCHAR

STARTCHAR jisx0212_2672
ENCODING 9842
SWIDTH 960 0
DWIDTH 24 0
BBX 24 24 0 -2
BITMAP
003C00
003C00
003C00
003C00
001800
001800
001800
006780
00FFC0
01E1E0
01C3E0
01C1C0
01E000
00FF00
03FF00
078030
070030
070070
0700F0
0783E0
03FFC0
01FF00
000000
000000
ENDCHAR

STARTCHAR jisx0212_2673
ENCODING 9843
SWIDTH 960 0
DWIDTH 24 0
BBX 24 24 0 -2
BITMAP
001E00
001E00
001E00
001E00
000C00
000C00
000C00
03E3E0
07FFF0
077C78
007838
00F038
00E038
00E038
01E078
01C070
01C070
03C0F0
0380E0
0380E0
0FE1E0
0FE1C0
0007F0
0007F0
ENDCHAR

STARTCHAR jisx0212_2674
ENCODING 9844
SWIDTH 960 0
DWIDTH 24 0
BBX 24 24 0 -2
BITMAP
003C00
003C00
003C00
003C00
001800
001800
001800
006400
007C00
001C00
003C00
003800
003800
007800
007000
007000
00F0C0
00E1C0
00E7C0
00FF80
00FF00
007C00
000000
000000
ENDCHAR

STARTCHAR jisx0212_2675
ENCODING 9845
SWIDTH 960 0
DWIDTH 24 0
BBX 24 24 0 -2
BITMAP
000000
00E380
01F7C0
01F7C0
00E380
000000
000000
007C00
007C00
001C00
003C00
003800
003800
007800
007000
007000
00F0C0
00E1C0
00E7C0
00FF80
00FF00
007C00
000000
000000
ENDCHAR

STARTCHAR jisx0212_2676
ENCODING 9846
SWIDTH 960 0
DWIDTH 24 0
BBX 24 24 0 -2
BITMAP
003C00
003C00
003C00
01DB80
03FFC0
03E7C0
01C380
003C00
007C00
001C00
003C00
003800
003800
007800
007000
007000
00F0C0
00E1C0
00E7C0
00FF80
00FF00
007C00
000000
000000
ENDCHAR

STARTCHAR jisx0212_2677
ENCODING 9847
SWIDTH 960 0
DWIDTH 24 0
BBX 24 24 0 -2
BITMAP
001E00
001E00
001E00
001E00
000C00
000C00
000C00
003380
00FFE0
01F1E0
03C0F0
038070
078070
070070
070070
070070
0700F0
0700E0
0781E0
03C7C0
03FF80
00FE00
000000
000000
ENDCHAR

STARTCHAR jisx0212_2678
ENCODING 9848
SWIDTH 960 0
DWIDTH 24 0
BBX 24 24 0 -2
BITMAP
000000
000000
000000
000000
000000
000000
000000
003F00
00FFC0
01F3E0
03C0F0
038070
0380F0
0380F0
03C0E0
01E000
01F800
00FC00
007E00
001E00
038E00
03DE00
03FC00
01F800
ENDCHAR

STARTCHAR jisx0212_2679
ENCODING 9849
SWIDTH 960 0
DWIDTH 24 0
BBX 24 24 0 -2
BITMAP
003C00
003C00
003C00
003C00
001800
001800
001800
0181C0
03C1E0
03C0E0
01C0F0
01C070
03C070
038070
038070
0780F0
0700E0
0701E0
0703C0
078F80
03FF00
01FC00
000000
000000
ENDCHAR

STARTCHAR jisx0212_267A
ENCODING 9850
SWIDTH 960 0
DWIDTH 24 0
BBX 24 24 0 -2
BITMAP
000000
00E380
01F7C0
01F7C0
00E380
000000
000000
0181C0
03C1E0
03C0E0
01C0F0
01C070
03C070
038070
038070
0780F0
0700E0
0701E0
0703C0
078F80
03FF00
01FC00
000000
000000
ENDCHAR

STARTCHAR jisx0212_267B
ENCODING 9851
SWIDTH 960 0
DWIDTH 24 0
BBX 24 24 0 -2
BITMAP
003C00
003C00
003C00
01DB80
03FFC0
03E7C0
01C380
000040
03C1E0
03C0E0
01C0F0
01C070
03C070
038070
038070
0780F0
0700E0
0701E0
0703C0
078F80
03FF00
01FC00
000000
000000
ENDCHAR

STARTCHAR jisx0212_267C
ENCODING 9852
SWIDTH 960 0
DWIDTH 24 0
BBX 24 24 0 -2
BITMAP
001E00
001E00
001E00
001E00
000C00
000C00
000C00
00E0E0
01E0F0
03C078
078038
0F0E3C
0E0E1C
1E0E1C
1C1E1C
1C1C1C
1C1C3C
1C3C38
1C3878
1E7CF0
0FFFE0
07EFC0
000000
000000
ENDCHAR

STARTCHAR jisx0212_2742
ENCODING 10050
SWIDTH 960 0
DWIDTH 24 0
BBX 24 24 0 -2
BITMAP
000000
3FFFE0
3FFFE0
7870F0
707070
607030
607030
0077C0
007FF8
007E7C
00781C
00701E
00700E
00700E
00700E
00700E
00718E
0073DE
0073DC
0073FC
01FFB8
01FDF0
000000
000000
ENDCHAR

STARTCHAR jisx0212_2743
ENCODING 10051
SWIDTH 960 0
DWIDTH 24 0
BBX 24 24 0 -2
BITMAP
001F00
007F00
007800
0787F0
07FFF0
01C078
01C038
01C018
01C018
01C000
01C000
01C000
01C000
01C000
01C000
01C000
01C000
01C000
01C000
01C000
07F800
07F800
000000
000000
ENDCHAR

STARTCHAR jisx0212_2744
ENCODING 10052
SWIDTH 960 0
DWIDTH 24 0
BBX 24 24 0 -2
BITMAP
000000
007F30
01FFB0
03E3F0
0780F0
0F0078
0E0038
1E0018
1C0018
1C0000
1FFFC0
1FFFC0
1C0000
1C0018
1C0018
1E0038
0E0038
0F0070
0780F0
03E3E0
01FFC0
007F00
000000
000000
ENDCHAR

STARTCHAR jisx0212_2745
ENCODING 10053
SWIDTH 960 0
DWIDTH 24 0
BBX 24 24 0 -2
BITMAP
000000
01FF60
07FFE0
0783E0
0F00F0
0E0070
0E0030
0F0030
07C000
07F800
01FF00
007FE0
000FF0
0C01F8
0C0078
0E0038
0E0038
0F0038
078078
07E1F0
05FFE0
067F80
000000
000000
ENDCHAR

STARTCHAR jisx0212_2746
ENCODING 10054
SWIDTH 960 0
DWIDTH 24 0
BBX 24 24 0 -2
BITMAP
000000
007F00
007F00
001C00
001C00
001C00
001C00
001C00
001C00
001C00
001C00
001C00
001C00
001C00
001C00
001C00
001C00
001C00
001C00
001C00
007F00
007F00
000000
000000
ENDCHAR

STARTCHAR jisx0212_2747
ENCODING 10055
SWIDTH 960 0
DWIDTH 24 0
BBX 24 24 0 -2
BITMAP
01F7C0
01F7C0
00E380
001C00
00FF80
001C00
001C00
001C00
001C00
001C00
001C00
001C00
001C00
001C00
001C00
001C00
001C00
001C00
001C00
001C00
007F00
007F00
000000
000000
ENDCHAR

STARTCHAR jisx0212_2748
ENCODING 10056
SWIDTH 960 0
DWIDTH 24 0
BBX 24 24 0 -2
BITMAP
000000
000FE0
000FE0
000380
000380
000380
000380
000380
000380
000380
000380
000380
000380
000380
000380
038380
07C380
07C780
078700
03CF00
01FE00
00FC00
000000
000000
ENDCHAR

STARTCHAR jisx0212_2749
ENCODING 10057
SWIDTH 960 0
DWIDTH 24 0
BBX 24 24 0 -2
BITMAP
000000
03FFC0
03FFC0
00E700
00E700
00E700
00E700
00E700
00E700
00E7F8
00E7FE
00E71F
00E707
00E707
00E703
70E703
F8E703
F9E707
F1C707
7BC71F
3F9FFE
1F1FF8
000000
000000
ENDCHAR

STARTCHAR jisx0212_274A
ENCODING 10058
SWIDTH 960 0
DWIDTH 24 0
BBX 24 24 0 -2
BITMAP
000000
FE3F80
FE3F80
380E00
380E00
380E00
380E00
380E00
380E00
3FFFF8
3FFFFE
380E1F
380E07
380E07
380E03
380E03
380E03
380E07
380E07
380E1F
FE3FFE
FE3FF8
000000
000000
ENDCHAR

STARTCHAR jisx0212_274B
ENCODING 10059
SWIDTH 960 0
DWIDTH 24 0
BBX 24 24 0 -2
BITMAP
000000
3FFFE0
3FFFE0
7870F0
707070
607030
607030
007FC0
006FF8
007C78
00783C
00701C
00701C
00701C
00701C
00701C
00701C
00701C
00701C
00701C
01FC7F
01FC7F
000000
000000
ENDCHAR

STARTCHAR jisx0212_274C
ENCODING 10060
SWIDTH 960 0
DWIDTH 24 0
BBX 24 24 0 -2
BITMAP
001F00
007F00
007800
1F83F8
1FC3F8
0700E0
0703C0
070380
070700
070F00
07FE00
07FC00
071E00
070F00
070F00
070780
0703C0
0703C0
0701E0
0700F0
1FC3FC
1FC3FC
000000
000000
ENDCHAR

STARTCHAR jisx0212_274D
ENCODING 10061
SWIDTH 960 0
DWIDTH 24 0
BBX 24 24 0 -2
BITMAP
01F7C0
01F7C0
00EB80
007F00
0F80F8
0FE3F8
0380E0
01C1C0
01E1C0
00E380
00F380
007700
007700
003E00
003E00
001C00
031C00
07B800
07B800
07F000
077000
03E000
000000
000000
ENDCHAR

STARTCHAR jisx0212_274E
ENCODING 10062
SWIDTH 960 0
DWIDTH 24 0
BBX 24 24 0 -2
BITMAP
000000
3F81FC
3F81FC
0E0070
0E0070
0E0070
0E0070
0E0070
0E0070
0E0070
0E0070
0E0070
0E0070
0E0070
0E0070
0E0070
0E0070
0E0070
0E0070
3FFFFC
3FFFFC
001800
001800
001800
ENDCHAR

STARTCHAR jisx0212_2772
ENCODING 10098
SWIDTH 960 0
DWIDTH 24 0
BBX 24 24 0 -2
BITMAP
000000
038000
0F8000
0F8000
038000
1FF000
1FF000
038F00
03FFC0
03F3C0
03C1E0
0380E0
0380E0
0380E0
0380E0
0380E0
0380E0
0380E0
0380E0
038CE0
0FDEE0
0FDFC0
001DC0
000F80
ENDCHAR

STARTCHAR jisx0212_2773
ENCODING 10099
SWIDTH 960 0
DWIDTH 24 0
BBX 24 24 0 -2
BITMAP
000000
000700
001F00
007F00
007800
000000
000000
03FFC0
03FFC0
00E1E0
00E0E0
00E060
00E060
00E000
00E000
00E000
00E000
00E000
00E000
00E000
03F800
03F800
000000
000000
ENDCHAR

STARTCHAR jisx0212_2774
ENCODING 10100
SWIDTH 960 0
DWIDTH 24 0
BBX 24 24 0 -2
BITMAP
000000
000000
000000
000000
000000
000000
000000
007E00
01FF80
03E7C0
0381E0
0783E0
0701C0
07FE00
07FE00
070000
070060
0780E0
0381E0
03E7C0
01FF80
007E00
000000
000000
ENDCHAR

STARTCHAR jisx0212_2775
ENCODING 10101
SWIDTH 960 0
DWIDTH 24 0
BBX 24 24 0 -2
BITMAP
000000
000000
000000
000000
000000
000000
000000
00FEC0
01FFC0
03C3C0
0381C0
03C0C0
03F8C0
01FF00
007FC0
030FE0
0301E0
0380E0
0380E0
03E1E0
03FFC0
037F80
000000
000000
ENDCHAR

STARTCHAR jisx0212_2776
ENCODING 10102
SWIDTH 960 0
DWIDTH 24 0
BBX 24 24 0 -2
BITMAP
000000
001C00
003E00
003E00
001C00
000000
000000
001C00
007C00
007C00
001C00
001C00
001C00
001C00
001C00
001C00
001C00
001C00
001C00
001C00
007F00
007F00
000000
000000
ENDCHAR

STARTCHAR jisx0212_2777
ENCODING 10103
SWIDTH 960 0
DWIDTH 24 0
BBX 24 24 0 -2
BITMAP
000000
00E380
01F7C0
01F7C0
00E380
000000
000000
001C00
007C00
007C00
001C00
001C00
001C00
001C00
001C00
001C00
001C00
001C00
001C00
001C00
007F00
007F00
000000
000000
ENDCHAR

STARTCHAR jisx0212_2778
ENCODING 10104
SWIDTH 960 0
DWIDTH 24 0
BBX 24 24 0 -2
BITMAP
000000
000E00
001F00
001F00
000E00
000000
000000
000E00
003E00
003E00
000E00
000E00
000E00
000E00
000E00
000E00
000E00
000E00
000E00
01CE00
03EE00
03FE00
01DC00
00F800
ENDCHAR

STARTCHAR jisx0212_2779
ENCODING 10105
SWIDTH 960 0
DWIDTH 24 0
BBX 24 24 0 -2
BITMAP
000000
000000
000000
000000
000000
000000
000000
07FF80
07FF80
01CE00
01CE00
01CE00
01CE00
01CFF8
01CFFC
01CE1E
01CE0E
39CE0E
7DCE0E
7FCE1E
3BBFFC
1F3FF8
000000
000000
ENDCHAR

STARTCHAR jisx0212_277A
ENCODING 10106
SWIDTH 960 0
DWIDTH 24 0
BBX 24 24 0 -2
BITMAP
000000
000000
000000
000000
000000
000000
000000
3FBF80
3FBF80
0E0E00
0E0E00
0E0E00
0E0E00
0FFFF8
0FFFFC
0E0E1E
0E0E0E
0E0E0E
0E0E0E
0E0E1E
3FBFFC
3FBFF8
000000
000000
ENDCHAR

STARTCHAR jisx0212_277B
ENCODING 10107
SWIDTH 960 0
DWIDTH 24 0
BBX 24 24 0 -2
BITMAP
000000
038000
0F8000
0F8000
13FE00
1FFE00
038000
03BF00
03FFC0
03F3C0
03C1E0
0380E0
0380E0
0380E0
0380E0
0380E0
0380E0
0380E0
0380E0
0380E0
0FE3F8
0FE3F8
000000
000000
ENDCHAR

STARTCHAR jisx0212_277C
ENCODING 10108
SWIDTH 960 0
DWIDTH 24 0
BBX 24 24 0 -2
BITMAP
000000
000700
001F00
007F00
007800
000000
000000
07F7F0
07F7F0
01C1C0
01C380
01C380
01C700
01FF00
01FF00
01C780
01C380
01C3C0
01C1C0
01C1E0
07F2F8
07F3F8
000000
000000
ENDCHAR

STARTCHAR jisx0212_277D
ENCODING 10109
SWIDTH 960 0
DWIDTH 24 0
BBX 24 24 0 -2
BITMAP
000000
00E380
01F7C0
01F7C0
00EB80
007F00
000000
07F1F8
07F1F8
01C060
01E0E0
00E1C0
00F1C0
007380
007B80
003F00
003700
001E00
001E00
018C00
03DC00
03F800
03B800
01F000
ENDCHAR

STARTCHAR jisx0212_277E
ENCODING 10110
SWIDTH 960 0
DWIDTH 24 0
BBX 24 24 0 -2
BITMAP
000000
000000
000000
000000
000000
000000
000000
0FE7F0
0FE7F0
0381C0
0381C0
0381C0
0381C0
0381C0
0381C0
0381C0
0381C0
0381C0
0381C0
0FFFF0
0FFFF0
001800
001800
001800
ENDCHAR

STARTCHAR jisx0212_2921
ENCODING 10529
SWIDTH 960 0
DWIDTH 24 0
BBX 24 24 0 -2
BITMAP
000000
00FFFE
00FFFE
003E0F
006E07
006E03
00EE03
00EE18
01CE18
01CE38
038FF8
038FF8
070E38
07FE18
0FFE18
0E0E00
1C0E01
1C0E01
380E03
380E07
F43FFF
FC3FFF
000000
000000
ENDCHAR

STARTCHAR jisx0212_2922
ENCODING 10530
SWIDTH 960 0
DWIDTH 24 0
BBX 24 24 0 -2
BITMAP
000000
1FFF00
1FFFC0
0703E0
0700F0
070070
070078
070038
070038
070038
7FF038
7FF038
070038
070038
070038
070038
070078
070070
0700F0
0703E0
1FFFC0
1FFF00
000000
000000
ENDCHAR

STARTCHAR jisx0212_2924
ENCODING 10532
SWIDTH 960 0
DWIDTH 24 0
BBX 24 24 0 -2
BITMAP
000000
3F81FC
3F81FC
0E0070
0E0070
FFFFFF
FFFFFF
0E0070
0E0070
0E0070
0FFFF0
0FFFF0
0E0070
0E0070
0E0070
0E0070
0E0070
0E0070
0E0070
0E0070
3F81FC
3F81FC
000000
000000
ENDCHAR

STARTCHAR jisx0212_2926
ENCODING 10534
SWIDTH 960 0
DWIDTH 24 0
BBX 24 24 0 -2
BITMAP
000000
1FC0FE
1FC0FE
070038
070038
070038
070038
070038
070038
070038
070038
070038
070038
070038
070038
073838
077C38
077C78
077870
073CF0
1FDFE0
1FCFC0
000000
000000
ENDCHAR

STARTCHAR jisx0212_2928
ENCODING 10536
SWIDTH 960 0
DWIDTH 24 0
BBX 24 24 0 -2
BITMAP
000000
0FE000
0FE000
038000
038000
039800
03B800
03F800
037000
03E000
03C000
078000
0F8000
1F8000
3B8000
3B8000
338018
038018
038038
038078
0FFFF0
0FFFF0
000000
000000
ENDCHAR

STARTCHAR jisx0212_2929
ENCODING 10537
SWIDTH 960 0
DWIDTH 24 0
BBX 24 24 0 -2
BITMAP
000000
0FE000
0FE000
038000
038000
038000
038000
038000
038000
039C00
03BE00
03BE00
039C00
038000
038000
038000
038018
038018
038038
038078
0FFFF0
0FFFF0
000000
000000
ENDCHAR

STARTCHAR jisx0212_292B
ENCODING 10539
SWIDTH 960 0
DWIDTH 24 0
BBX 24 24 0 -2
BITMAP
000000
0F9F80
0FFFE0
0379E0
03E0F0
03C070
03C070
038070
038070
038070
038070
038070
038070
038070
038070
039870
03BC70
03BC70
03BC70
03B8E0
0FDFE0
0FEFC0
000000
000000
ENDCHAR

STARTCHAR jisx0212_292C
ENCODING 10540
SWIDTH 960 0
DWIDTH 24 0
BBX 24 24 0 -2
BITMAP
000000
007F0C
01FFDC
03E3FC
0780F8
0F0070
0E01F8
1E03BC
1C079C
1C0F1C
1C1E1C
1C3C1C
1C781C
1CF01C
1DE01C
1FC03C
0F8038
0F0078
1F80F0
3BE3E0
39FFC0
307F00
000000
000000
ENDCHAR

STARTCHAR jisx0212_292D
ENCODING 10541
SWIDTH 960 0
DWIDTH 24 0
BBX 24 24 0 -2
BITMAP
000000
03FFFE
0FFFFE
1F0E0F
3C0E07
380E03
780E03
700E18
700E18
700E38
700FF8
700FF8
700E38
700E18
700E18
700E00
780E01
380E01
3C0E03
1F0E07
0FFFFF
03FFFF
000000
000000
ENDCHAR

STARTCHAR jisx0212_292F
ENCODING 10543
SWIDTH 960 0
DWIDTH 24 0
BBX 24 24 0 -2
BITMAP
000000
0FFFF8
0FFFF8
1E1C3C
1C1C1C
181C0C
181C0C
001C00
001C00
001C00
01FFC0
01FFC0
001C00
001C00
001C00
001C00
001C00
001C00
001C00
001C00
007F00
007F00
000000
000000
ENDCHAR

STARTCHAR jisx0212_2930
ENCODING 10544
SWIDTH 960 0
DWIDTH 24 0
BBX 24 24 0 -2
BITMAP
000000
0FE000
0FE000
038000
038000
038000
03FF00
03FFC0
0383E0
0380F0
038070
038070
038070
0380F0
0383E0
03FFC0
03FF00
038000
038000
038000
0FE000
0FE000
000000
000000
ENDCHAR

STARTCHAR jisx0212_2941
ENCODING 10561
SWIDTH 960 0
DWIDTH 24 0
BBX 24 24 0 -2
BITMAP
000000
000000
000000
000000
000000
000000
000000
0FF3F0
1FFFFC
1E3F3C
1E1E1E
0C1C0E
001C0E
07FFFE
1FFFFE
3E1C00
381C06
381C06
381E0E
3C7F1E
1FF7FC
0FE3F8
000000
000000
ENDCHAR

STARTCHAR jisx0212_2942
ENCODING 10562
SWIDTH 960 0
DWIDTH 24 0
BBX 24 24 0 -2
BITMAP
000000
0000E0
0003E0
0003E0
001CFC
001FFC
0000E0
007EE0
01FFE0
03E7E0
0381E0
0780E0
0700E0
0700E0
0700E0
0700E0
0700E0
0780E0
0381E0
03E7E0
01FFF8
007EF8
000000
000000
ENDCHAR

STARTCHAR jisx0212_2943
ENCODING 10563
SWIDTH 960 0
DWIDTH 24 0
BBX 24 24 0 -2
BITMAP
000000
01E1C0
01F7C0
007F80
001E00
00FF00
00E780
001B80
00FFC0
01F7C0
01C1E0
03C1E0
0380E0
0380E0
0380E0
0380E0
0380E0
03C1E0
01C1C0
01F7C0
00FF80
003E00
000000
000000
ENDCHAR

STARTCHAR jisx0212_2944
ENCODING 10564
SWIDTH 960 0
DWIDTH 24 0
BBX 24 24 0 -2
BITMAP
000000
038000
0F8000
0F8000
13FE00
1FFE00
038000
03BF00
03FFC0
03F3C0
03C1E0
0380E0
0380E0
0380E0
0380E0
0380E0
0380E0
0380E0
0380E0
0380E0
0FE3F8
0FE3F8
000000
000000
ENDCHAR

STARTCHAR jisx0212_2945
ENCODING 10565
SWIDTH 960 0
DWIDTH 24 0
BBX 24 24 0 -2
BITMAP
000000
000000
000000
000000
000000
000000
000000
001C00
007C00
007C00
001C00
001C00
001C00
001C00
001C00
001C00
001C00
001C00
001C00
001C00
007F00
007F00
000000
000000
ENDCHAR

STARTCHAR jisx0212_2946
ENCODING 10566
SWIDTH 960 0
DWIDTH 24 0
BBX 24 24 0 -2
BITMAP
000000
01C0E0
03E1F0
03E1F0
01C0E0
000000
000000
01C0E0
07C3E0
07C3E0
01C0E0
01C0E0
01C0E0
01C0E0
01C0E0
01C0E0
01C0E0
01C0E0
01C0E0
01C6E0
07EEE0
07EEE0
000FE0
0007C0
ENDCHAR

STARTCHAR jisx0212_2947
ENCODING 10567
SWIDTH 960 0
DWIDTH 24 0
BBX 24 24 0 -2
BITMAP
000000
000000
000000
000000
000000
000000
000000
07F7F0
07F7F0
01C1C0
01C780
01CF00
01DE00
01FC00
01BF00
01EF00
01E780
01C3C0
01C3C0
01C1E0
07F2F8
07F3F8
000000
000000
ENDCHAR

STARTCHAR jisx0212_2948
ENCODING 10568
SWIDTH 960 0
DWIDTH 24 0
BBX 24 24 0 -2
BITMAP
000000
001C00
007C00
007C00
001C00
001C00
001CC0
001DC0
001FC0
001B80
001F00
001E00
003C00
007C00
00FC00
01DC00
01DC00
019C00
001C00
001C00
007F00
007F00
000000
000000
ENDCHAR

STARTCHAR jisx0212_2949
ENCODING 10569
SWIDTH 960 0
DWIDTH 24 0
BBX 24 24 0 -2
BITMAP
000000
003800
00F800
00F800
003800
003800
003800
003800
003800
003B80
003FC0
0037C0
003B80
003800
003800
003800
003800
003800
003800
003800
00FE00
00FE00
000000
000000
ENDCHAR

STARTCHAR jisx0212_294A
ENCODING 10570
SWIDTH 960 0
DWIDTH 24 0
BBX 24 24 0 -2
BITMAP
000000
000000
000000
000000
000000
180000
3C0000
3CEFC0
3FFFF0
3BFCF0
18F078
18E038
18E038
00E038
00E038
00E038
00E038
00E038
00E038
00E038
03F8FE
03F8FE
000000
000000
ENDCHAR

STARTCHAR jisx0212_294B
ENCODING 10571
SWIDTH 960 0
DWIDTH 24 0
BBX 24 24 0 -2
BITMAP
000000
000000
000000
000000
000000
000000
000000
03BF00
0FFFC0
0FF3C0
03C1E0
0380E0
0380E0
0380E0
0380E0
0380E0
0380E0
0380E0
0380E0
038CE0
0FDEE0
0FDFC0
001DC0
000F80
ENDCHAR

STARTCHAR jisx0212_294C
ENCODING 10572
SWIDTH 960 0
DWIDTH 24 0
BBX 24 24 0 -2
BITMAP
000000
000000
000000
000000
000000
000000
000000
007E60
01FFE0
03E7E0
0381C0
0787E0
070EE0
071EE0
073CE0
0778E0
07F0E0
06E1E0
03C1C0
07A7C0
07FF80
067E00
000000
000000
ENDCHAR

STARTCHAR jisx0212_294D
ENCODING 10573
SWIDTH 960 0
DWIDTH 24 0
BBX 24 24 0 -2
BITMAP
000000
000000
000000
000000
000000
000000
000000
07E3F0
1FFFFC
1E7F3C
3C3E1E
381C0E
381FFE
381FFE
381C00
381C00
381C06
381C06
3C3E0E
1E7F1E
1FF7FC
07E3F8
000000
000000
ENDCHAR

STARTCHAR jisx0212_294E
ENCODING 10574
SWIDTH 960 0
DWIDTH 24 0
BBX 24 24 0 -2
BITMAP
000000
007F00
01FFC0
01E3C0
03C1E0
0380E0
0380E0
0381E0
0383C0
03BFC0
03BF00
0383E0
0380E0
0380F0
038070
038070
03B070
03F870
0378F0
0379E0
0FF7E0
0FBF80
000000
000000
ENDCHAR

STARTCHAR jisx0212_294F
ENCODING 10575
SWIDTH 960 0
DWIDTH 24 0
BBX 24 24 0 -2
BITMAP
000000
001800
003800
003800
003800
003800
003800
00FF80
00FF80
003800
003800
00FF00
00FF00
003800
003800
003800
003800
0038C0
0039C0
003BC0
003F80
001F00
000000
000000
ENDCHAR

STARTCHAR jisx0212_2950
ENCODING 10576
SWIDTH 960 0
DWIDTH 24 0
BBX 24 24 0 -2
BITMAP
000000
00E000
03E000
03E000
00E000
00E000
00E000
00FF80
00DFE0
00F9F0
00E070
00E078
00E038
00E038
00E038
00E038
00E078
00E070
00F9F0
00FFE0
00DF80
00E000
03F800
03F800
ENDCHAR

STARTCHAR jisx0212_2A21
ENCODING 10785
SWIDTH 960 0
DWIDTH 24 0
BBX 24 24 0 -2
BITMAP
001F00
007F00
007800
000400
001C00
003E00
003E00
006F00
007700
00E780
00E380
01C3C0
01C1C0
0181C0
0381E0
03FEE0
07FFF0
070070
0E0078
0E0038
3D00FE
3F00FE
000000
000000
ENDCHAR

STARTCHAR jisx0212_2A22
ENCODING 10786
SWIDTH 960 0
DWIDTH 24 0
BBX 24 24 0 -2
BITMAP
007C00
007F00
000F00
001000
001C00
003E00
003E00
006F00
007700
00E780
00E380
01C3C0
01C1C0
0181C0
0381E0
03FEE0
07FFF0
070070
0E0078
0E0038
3D00FE
3F00FE
000000
000000
ENDCHAR

STARTCHAR jisx0212_2A23
ENCODING 10787
SWIDTH 960 0
DWIDTH 24 0
BBX 24 24 0 -2
BITMAP
01F7C0
01F7C0
00E380
001C00
001C00
003E00
003E00
006F00
007700
00E780
00E380
01C3C0
01C1C0
0181C0
0381E0
03FEE0
07FFF0
070070
0E0078
0E0038
3D00FE
3F00FE
000000
000000
ENDCHAR

STARTCHAR jisx0212_2A24
ENCODING 10788
SWIDTH 960 0
DWIDTH 24 0
BBX 24 24 0 -2
BITMAP
007E00
00EF00
00E700
001800
001C00
003E00
003E00
006F00
007700
00E780
00E380
01C3C0
01C1C0
0181C0
0381E0
03FEE0
07FFF0
070070
0E0078
0E0038
3D00FE
3F00FE
000000
000000
ENDCHAR

STARTCHAR jisx0212_2A25
ENCODING 10789
SWIDTH 960 0
DWIDTH 24 0
BBX 24 24 0 -2
BITMAP
007F00
007F00
003E00
000000
001C00
003E00
003E00
006F00
007700
00E780
00E380
01C3C0
01C1C0
0181C0
0381E0
03FEE0
07FFF0
070070
0E0078
0E0038
3D00FE
3F00FE
000000
000000
ENDCHAR

STARTCHAR jisx0212_2A26
ENCODING 10790
SWIDTH 960 0
DWIDTH 24 0
BBX 24 24 0 -2
BITMAP
00EF00
007E00
003C00
000000
001C00
003E00
003E00
006F00
007700
00E780
00E380
01C3C0
01C1C0
0181C0
0381E0
03FEE0
07FFF0
070070
0E0078
0E0038
3D00FE
3F00FE
000000
000000
ENDCHAR

STARTCHAR jisx0212_2A27
ENCODING 10791
SWIDTH 960 0
DWIDTH 24 0
BBX 24 24 0 -2
BITMAP
00FF80
000000
000000
001C00
001C00
003E00
003E00
006F00
007700
00E780
00E380
01C3C0
01C1C0
0181C0
0381E0
03FEE0
07FFF0
070070
0E0078
0E0038
3D00FE
3F00FE
000000
000000
ENDCHAR

STARTCHAR jisx0212_2A28
ENCODING 10792
SWIDTH 960 0
DWIDTH 24 0
BBX 24 24 0 -2
BITMAP
000000
001C00
001C00
003E00
003E00
006F00
007700
00E780
00E380
01C3C0
01C1C0
0181C0
0381E0
03FEE0
07FFF0
070070
0E0078
0E0038
3D00FE
3F00FE
000039
000037
00003F
00001E
ENDCHAR

STARTCHAR jisx0212_2A29
ENCODING 10793
SWIDTH 960 0
DWIDTH 24 0
BBX 24 24 0 -2
BITMAP
003E00
003600
003E00
001C00
001C00
003E00
003E00
006F00
007700
00E780
00E380
01C3C0
01C1C0
0181C0
0381E0
03FEE0
07FFF0
070070
0E0078
0E0038
3D00FE
3F00FE
000000
000000
ENDCHAR

STARTCHAR jisx0212_2A2A
ENCODING 10794
SWIDTH 960 0
DWIDTH 24 0
BBX 24 24 0 -2
BITMAP
00FF80
00FF80
00CF00
001000
001C00
003E00
003E00
006F00
007700
00E780
00E380
01C3C0
01C1C0
0181C0
0381E0
03FEE0
07FFF0
070070
0E0078
0E0038
3D00FE
3F00FE
000000
000000
ENDCHAR

STARTCHAR jisx0212_2A2B
ENCODING 10795
SWIDTH 960 0
DWIDTH 24 0
BBX 24 24 0 -2
BITMAP
001F00
007F00
007800
0007B0
01FFF0
03E1F0
078078
070038
0F0018
0E0018
0E0000
0E0000
0E0000
0E0000
0E0000
0E0018
0F0018
070038
078078
03E1F0
01FFE0
007F80
000000
000000
ENDCHAR

STARTCHAR jisx0212_2A2C
ENCODING 10796
SWIDTH 960 0
DWIDTH 24 0
BBX 24 24 0 -2
BITMAP
003F00
007780
007380
000C30
01FFF0
03E1F0
078078
070038
0F0018
0E0018
0E0000
0E0000
0E0000
0E0000
0E0000
0E0018
0F0018
070038
078078
03E1F0
01FFE0
007F80
000000
000000
ENDCHAR

STARTCHAR jisx0212_2A2D
ENCODING 10797
SWIDTH 960 0
DWIDTH 24 0
BBX 24 24 0 -2
BITMAP
007780
003F00
001E00
0061B0
01FFF0
03E1F0
078078
070038
0F0018
0E0018
0E0000
0E0000
0E0000
0E0000
0E0000
0E0018
0F0018
070038
078078
03E1F0
01FFE0
007F80
000000
000000
ENDCHAR

STARTCHAR jisx0212_2A2E
ENCODING 10798
SWIDTH 960 0
DWIDTH 24 0
BBX 24 24 0 -2
BITMAP
000000
007FB0
01FFF0
03E1F0
078078
070038
0F0018
0E0018
0E0000
0E0000
0E0000
0E0000
0E0000
0E0018
0F0018
070038
078078
03E1F0
01FFE0
007F80
001C00
00FF00
00E700
007E00
ENDCHAR

STARTCHAR jisx0212_2A2F
ENCODING 10799
SWIDTH 960 0
DWIDTH 24 0
BBX 24 24 0 -2
BITMAP
003E00
003E00
001C00
0063B0
01FFF0
03E1F0
078078
070038
0F0018
0E0018
0E0000
0E0000
0E0000
0E0000
0E0000
0E0018
0F0018
070038
078078
03E1F0
01FFE0
007F80
000000
000000
ENDCHAR

STARTCHAR jisx0212_2A30
ENCODING 10800
SWIDTH 960 0
DWIDTH 24 0
BBX 24 24 0 -2
BITMAP
00EF00
007E00
003C00
1FC300
1FFFC0
0703E0
0700F0
070070
070078
070038
070038
070038
070038
070038
070038
070038
070078
070070
0700F0
0703E0
1FFFC0
1FFF00
000000
000000
ENDCHAR

STARTCHAR jisx0212_2A31
ENCODING 10801
SWIDTH 960 0
DWIDTH 24 0
BBX 24 24 0 -2
BITMAP
001F00
007F00
007800
0F87E0
0FFFE0
0380F0
038070
038030
0381B0
038180
038380
03FF80
03FF80
038380
038180
038180
038018
038018
038038
038078
0FFFF0
0FFFF0
000000
000000
ENDCHAR

STARTCHAR jisx0212_2A32
ENCODING 10802
SWIDTH 960 0
DWIDTH 24 0
BBX 24 24 0 -2
BITMAP
007C00
007F00
000F00
0FF0E0
0FFFE0
0380F0
038070
038030
0381B0
038180
038380
03FF80
03FF80
038380
038180
038180
038018
038018
038038
038078
0FFFF0
0FFFF0
000000
000000
ENDCHAR

STARTCHAR jisx0212_2A33
ENCODING 10803
SWIDTH 960 0
DWIDTH 24 0
BBX 24 24 0 -2
BITMAP
01F7C0
01F7C0
00E380
0F1C60
0FFFE0
0380F0
038070
038030
0381B0
038180
038380
03FF80
03FF80
038380
038180
038180
038018
038018
038038
038078
0FFFF0
0FFFF0
000000
000000
ENDCHAR

STARTCHAR jisx0212_2A34
ENCODING 10804
SWIDTH 960 0
DWIDTH 24 0
BBX 24 24 0 -2
BITMAP
007E00
00EF00
00E700
0F18E0
0FFFE0
0380F0
038070
038030
0381B0
038180
038380
03FF80
03FF80
038380
038180
038180
038018
038018
038038
038078
0FFFF0
0FFFF0
000000
000000
ENDCHAR

STARTCHAR jisx0212_2A35
ENCODING 10805
SWIDTH 960 0
DWIDTH 24 0
BBX 24 24 0 -2
BITMAP
00EF00
007E00
003C00
0FC3E0
0FFFE0
0380F0
038070
038030
0381B0
038180
038380
03FF80
03FF80
038380
038180
038180
038018
038018
038038
038078
0FFFF0
0FFFF0
000000
000000
ENDCHAR

STARTCHAR jisx0212_2A36
ENCODING 10806
SWIDTH 960 0
DWIDTH 24 0
BBX 24 24 0 -2
BITMAP
003E00
003E00
001C00
0FE3E0
0FFFE0
0380F0
038070
038030
0381B0
038180
038380
03FF80
03FF80
038380
038180
038180
038018
038018
038038
038078
0FFFF0
0FFFF0
000000
000000
ENDCHAR

STARTCHAR jisx0212_2A37
ENCODING 10807
SWIDTH 960 0
DWIDTH 24 0
BBX 24 24 0 -2
BITMAP
00FF80
000000
000000
0FFFE0
0FFFE0
0380F0
038070
038030
0381B0
038180
038380
03FF80
03FF80
038380
038180
038180
038018
038018
038038
038078
0FFFF0
0FFFF0
000000
000000
ENDCHAR

STARTCHAR jisx0212_2A38
ENCODING 10808
SWIDTH 960 0
DWIDTH 24 0
BBX 24 24 0 -2
BITMAP
000000
0FFFE0
0FFFE0
0380F0
038070
038030
0381B0
038180
038380
03FF80
03FF80
038380
038180
038180
038018
038018
038038
038078
0FFFF0
0FFFF0
000700
0006E0
0007E0
0003C0
ENDCHAR

STARTCHAR jisx0212_2A3A
ENCODING 10810
SWIDTH 960 0
DWIDTH 24 0
BBX 24 24 0 -2
BITMAP
003F00
007780
007380
000C30
01FFF0
03E1F0
078078
070038
0F0018
0E0018
0E0000
0E0000
0E03FE
0E03FE
0E0038
0E0038
0F0038
070038
078078
03E1F8
01FFF8
007F98
000000
000000
ENDCHAR

STARTCHAR jisx0212_2A3B
ENCODING 10811
SWIDTH 960 0
DWIDTH 24 0
BBX 24 24 0 -2
BITMAP
007F00
007F00
003E00
0041B0
01FFF0
03E1F0
078078
070038
0F0018
0E0018
0E0000
0E0000
0E03FE
0E03FE
0E0038
0E0038
0F0038
070038
078078
03E1F8
01FFF8
007F98
000000
000000
ENDCHAR

STARTCHAR jisx0212_2A3C
ENCODING 10812
SWIDTH 960 0
DWIDTH 24 0
BBX 24 24 0 -2
BITMAP
000000
007FB0
01FFF0
03E1F0
078078
070038
0F0018
0E0018
0E0000
0E0000
0E03FE
0E03FE
0E0038
0E0038
0F0038
070038
078078
03E1F8
01FFF8
007F98
001C00
00FF00
00E700
007E00
ENDCHAR

STARTCHAR jisx0212_2A3D
ENCODING 10813
SWIDTH 960 0
DWIDTH 24 0
BBX 24 24 0 -2
BITMAP
003E00
003E00
001C00
0063B0
01FFF0
03E1F0
078078
070038
0F0018
0E0018
0E0000
0E0000
0E03FE
0E03FE
0E0038
0E0038
0F0038
070038
078078
03E1F8
01FFF8
007F98
000000
000000
ENDCHAR

STARTCHAR jisx0212_2A3E
ENCODING 10814
SWIDTH 960 0
DWIDTH 24 0
BBX 24 24 0 -2
BITMAP
007E00
00EF00
00E700
3F00FC
3F81FC
0E0070
0E0070
0E0070
0E0070
0E0070
0E0070
0FFFF0
0FFFF0
0E0070
0E0070
0E0070
0E0070
0E0070
0E0070
0E0070
3F81FC
3F81FC
000000
000000
ENDCHAR

STARTCHAR jisx0212_2A3F
ENCODING 10815
SWIDTH 960 0
DWIDTH 24 0
BBX 24 24 0 -2
BITMAP
001F00
007F00
007800
000700
007F00
001C00
001C00
001C00
001C00
001C00
001C00
001C00
001C00
001C00
001C00
001C00
001C00
001C00
001C00
001C00
007F00
007F00
000000
000000
ENDCHAR

STARTCHAR jisx0212_2A40
ENCODING 10816
SWIDTH 960 0
DWIDTH 24 0
BBX 24 24 0 -2
BITMAP
007C00
007F00
000F00
007000
007F00
001C00
001C00
001C00
001C00
001C00
001C00
001C00
001C00
001C00
001C00
001C00
001C00
001C00
001C00
001C00
007F00
007F00
000000
000000
ENDCHAR

STARTCHAR jisx0212_2A41
ENCODING 10817
SWIDTH 960 0
DWIDTH 24 0
BBX 24 24 0 -2
BITMAP
01F7C0
01F7C0
00E380
001C00
007F00
001C00
001C00
001C00
001C00
001C00
001C00
001C00
001C00
001C00
001C00
001C00
001C00
001C00
001C00
001C00
007F00
007F00
000000
000000
ENDCHAR

STARTCHAR jisx0212_2A42
ENCODING 10818
SWIDTH 960 0
DWIDTH 24 0
BBX 24 24 0 -2
BITMAP
007E00
00EF00
00E700
001800
007F00
001C00
001C00
001C00
001C00
001C00
001C00
001C00
001C00
001C00
001C00
001C00
001C00
001C00
001C00
001C00
007F00
007F00
000000
000000
ENDCHAR

STARTCHAR jisx0212_2A43
ENCODING 10819
SWIDTH 960 0
DWIDTH 24 0
BBX 24 24 0 -2
BITMAP
00EF00
007E00
003C00
004300
007F00
001C00
001C00
001C00
001C00
001C00
001C00
001C00
001C00
001C00
001C00
001C00
001C00
001C00
001C00
001C00
007F00
007F00
000000
000000
ENDCHAR

STARTCHAR jisx0212_2A44
ENCODING 10820
SWIDTH 960 0
DWIDTH 24 0
BBX 24 24 0 -2
BITMAP
003E00
003E00
001C00
006300
007F00
001C00
001C00
001C00
001C00
001C00
001C00
001C00
001C00
001C00
001C00
001C00
001C00
001C00
001C00
001C00
007F00
007F00
000000
000000
ENDCHAR

STARTCHAR jisx0212_2A45
ENCODING 10821
SWIDTH 960 0
DWIDTH 24 0
BBX 24 24 0 -2
BITMAP
00FF80
000000
000000
007F00
007F00
001C00
001C00
001C00
001C00
001C00
001C00
001C00
001C00
001C00
001C00
001C00
001C00
001C00
001C00
001C00
007F00
007F00
000000
000000
ENDCHAR

STARTCHAR jisx0212_2A46
ENCODING 10822
SWIDTH 960 0
DWIDTH 24 0
BBX 24 24 0 -2
BITMAP
000000
007F00
007F00
001C00
001C00
001C00
001C00
001C00
001C00
001C00
001C00
001C00
001C00
001C00
001C00
001C00
001C00
001C00
007F00
007F00
001C80
001B80
001F80
000F00
ENDCHAR

STARTCHAR jisx0212_2A47
ENCODING 10823
SWIDTH 960 0
DWIDTH 24 0
BBX 24 24 0 -2
BITMAP
00FF80
00FF80
00CF00
003000
007F00
001C00
001C00
001C00
001C00
001C00
001C00
001C00
001C00
001C00
001C00
001C00
001C00
001C00
001C00
001C00
007F00
007F00
000000
000000
ENDCHAR

STARTCHAR jisx0212_2A48
ENCODING 10824
SWIDTH 960 0
DWIDTH 24 0
BBX 24 24 0 -2
BITMAP
007E00
00EF00
00E700
0008E0
000FE0
000380
000380
000380
000380
000380
000380
000380
000380
000380
000380
038380
07C380
07C780
078700
03CF00
01FE00
00FC00
000000
000000
ENDCHAR

STARTCHAR jisx0212_2A49
ENCODING 10825
SWIDTH 960 0
DWIDTH 24 0
BBX 24 24 0 -2
BITMAP
000000
1FC3F8
1FC3F8
0700E0
0703C0
070780
070F00
071E00
073C00
077E00
07FE00
06EF00
07C780
0787C0
0703C0
0701E0
0700F0
070CF8
1FDD7E
1FDFFE
001E00
00E700
00FF00
007E00
ENDCHAR

STARTCHAR jisx0212_2A4A
ENCODING 10826
SWIDTH 960 0
DWIDTH 24 0
BBX 24 24 0 -2
BITMAP
001F00
007F00
007800
0F8000
0FE000
038000
038000
038000
038000
038000
038000
038000
038000
038000
038000
038000
038018
038018
038038
038078
0FFFF0
0FFFF0
000000
000000
ENDCHAR

STARTCHAR jisx0212_2A4B
ENCODING 10827
SWIDTH 960 0
DWIDTH 24 0
BBX 24 24 0 -2
BITMAP
00EF00
007E00
003C00
0FC000
0FE000
038000
038000
038000
038000
038000
038000
038000
038000
038000
038000
038000
038018
038018
038038
038078
0FFFF0
0FFFF0
000000
000000
ENDCHAR

STARTCHAR jisx0212_2A4C
ENCODING 10828
SWIDTH 960 0
DWIDTH 24 0
BBX 24 24 0 -2
BITMAP
000000
0FE000
0FE000
038000
038000
038000
038000
038000
038000
038000
038000
038000
038000
038000
038018
038018
038038
038078
0FFFF0
0FFFF0
001C00
00FF00
00E700
007E00
ENDCHAR

STARTCHAR jisx0212_2A4D
ENCODING 10829
SWIDTH 960 0
DWIDTH 24 0
BBX 24 24 0 -2
BITMAP
001F00
007F00
007800
3E00FC
3F00FC
0F8030
0FC030
0BC030
0DE030
0CF030
0CF830
0C7830
0C3C30
0C1E30
0C1F30
0C0F30
0C07B0
0C03B0
0C03F0
0C01F0
3F00F0
3F0070
000000
000000
ENDCHAR

STARTCHAR jisx0212_2A4E
ENCODING 10830
SWIDTH 960 0
DWIDTH 24 0
BBX 24 24 0 -2
BITMAP
00EF00
007E00
003C00
3E00FC
3F00FC
0F8030
0FC030
0BC030
0DE030
0CF030
0CF830
0C7830
0C3C30
0C1E30
0C1F30
0C0F30
0C07B0
0C03B0
0C03F0
0C01F0
3F00F0
3F0070
000000
000000
ENDCHAR

STARTCHAR jisx0212_2A4F
ENCODING 10831
SWIDTH 960 0
DWIDTH 24 0
BBX 24 24 0 -2
BITMAP
000000
3E00FC
3F00FC
0F8030
0FC030
0BC030
0DE030
0CF030
0CF830
0C7830
0C3C30
0C1E30
0C1F30
0C0F30
0C07B0
0C03B0
0C03F0
0C0DF0
3F1CF0
3F1E70
001F00
00E700
00FF00
007E00
ENDCHAR

STARTCHAR jisx0212_2A50
ENCODING 10832
SWIDTH 960 0
DWIDTH 24 0
BBX 24 24 0 -2
BITMAP
00FF80
00FF80
00CF00
3E00FC
3F00FC
0F8030
0FC030
0BC030
0DE030
0CF030
0CF830
0C7830
0C3C30
0C1E30
0C1F30
0C0F30
0C07B0
0C03B0
0C03F0
0C01F0
3F00F0
3F0070
000000
000000
ENDCHAR

STARTCHAR jisx0212_2A51
ENCODING 10833
SWIDTH 960 0
DWIDTH 24 0
BBX 24 24 0 -2
BITMAP
003E00
00FE00
00F000
000F00
03FFC0
07C3E0
0F00F0
0E0070
1E0078
1C0038
1C0038
1C0038
1C0038
1C0038
1C0038
1C0038
1E0078
0E0070
0F00F0
07C3E0
03FFC0
00FF00
000000
000000
ENDCHAR

STARTCHAR jisx0212_2A52
ENCODING 10834
SWIDTH 960 0
DWIDTH 24 0
BBX 24 24 0 -2
BITMAP
00F800
00FE00
001E00
00E100
03FFC0
07C3E0
0F00F0
0E0070
1E0078
1C0038
1C0038
1C0038
1C0038
1C0038
1C0038
1C0038
1E0078
0E0070
0F00F0
07C3E0
03FFC0
00FF00
000000
000000
ENDCHAR

STARTCHAR jisx0212_2A53
ENCODING 10835
SWIDTH 960 0
DWIDTH 24 0
BBX 24 24 0 -2
BITMAP
03EF80
03EF80
01C700
003800
03FFC0
07C3E0
0F00F0
0E0070
1E0078
1C0038
1C0038
1C0038
1C0038
1C0038
1C0038
1C0038
1E0078
0E0070
0F00F0
07C3E0
03FFC0
00FF00
000000
000000
ENDCHAR

STARTCHAR jisx0212_2A54
ENCODING 10836
SWIDTH 960 0
DWIDTH 24 0
BBX 24 24 0 -2
BITMAP
007E00
00EF00
00E700
001800
03FFC0
07C3E0
0F00F0
0E0070
1E0078
1C0038
1C0038
1C0038
1C0038
1C0038
1C0038
1C0038
1E0078
0E0070
0F00F0
07C3E0
03FFC0
00FF00
000000
000000
ENDCHAR

STARTCHAR jisx0212_2A55
ENCODING 10837
SWIDTH 960 0
DWIDTH 24 0
BBX 24 24 0 -2
BITMAP
00EF00
007E00
003C00
00C300
03FFC0
07C3E0
0F00F0
0E0070
1E0078
1C0038
1C0038
1C0038
1C0038
1C0038
1C0038
1C0038
1E0078
0E0070
0F00F0
07C3E0
03FFC0
00FF00
000000
000000
ENDCHAR

STARTCHAR jisx0212_2A56
ENCODING 10838
SWIDTH 960 0
DWIDTH 24 0
BBX 24 24 0 -2
BITMAP
01F7C0
03FFC0
038E00
007100
03FFC0
07C3E0
0F00F0
0E0070
1E0078
1C0038
1C0038
1C0038
1C0038
1C0038
1C0038
1C0038
1E0078
0E0070
0F00F0
07C3E0
03FFC0
00FF00
000000
000000
ENDCHAR

STARTCHAR jisx0212_2A57
ENCODING 10839
SWIDTH 960 0
DWIDTH 24 0
BBX 24 24 0 -2
BITMAP
01FF00
000000
000000
00FF00
03FFC0
07C3E0
0F00F0
0E0070
1E0078
1C0038
1C0038
1C0038
1C0038
1C0038
1C0038
1C0038
1E0078
0E0070
0F00F0
07C3E0
03FFC0
00FF00
000000
000000
ENDCHAR

STARTCHAR jisx0212_2A58
ENCODING 10840
SWIDTH 960 0
DWIDTH 24 0
BBX 24 24 0 -2
BITMAP
01FF00
01FF00
019E00
006100
03FFC0
07C3E0
0F00F0
0E0070
1E0078
1C0038
1C0038
1C0038
1C0038
1C0038
1C0038
1C0038
1E0078
0E0070
0F00F0
07C3E0
03FFC0
00FF00
000000
000000
ENDCHAR

STARTCHAR jisx0212_2A59
ENCODING 10841
SWIDTH 960 0
DWIDTH 24 0
BBX 24 24 0 -2
BITMAP
001F00
007F00
007800
0F87C0
0FFFE0
0380F0
038070
038070
038070
038070
0380F0
03FFE0
03FFC0
0381C0
0380E0
0380E0
0380E0
0380E0
0380E6
0380EE
0FE07E
0FE03C
000000
000000
ENDCHAR

STARTCHAR jisx0212_2A5A
ENCODING 10842
SWIDTH 960 0
DWIDTH 24 0
BBX 24 24 0 -2
BITMAP
00EF00
007E00
003C00
0FC3C0
0FFFE0
0380F0
038070
038070
038070
038070
0380F0
03FFE0
03FFC0
0381C0
0380E0
0380E0
0380E0
0380E0
0380E6
0380EE
0FE07E
0FE03C
000000
000000
ENDCHAR

STARTCHAR jisx0212_2A5B
ENCODING 10843
SWIDTH 960 0
DWIDTH 24 0
BBX 24 24 0 -2
BITMAP
000000
0FFFC0
0FFFE0
0380F0
038070
038070
038070
038070
0380F0
03FFE0
03FFC0
0381C0
0380E0
0380E0
0380E0
0380E0
0380E6
038CEE
0FDC7E
0FDE3C
001F00
00E700
00FF00
007E00
ENDCHAR

STARTCHAR jisx0212_2A5C
ENCODING 10844
SWIDTH 960 0
DWIDTH 24 0
BBX 24 24 0 -2
BITMAP
001F00
007F00
007800
0086C0
03FFC0
03C7C0
0781E0
0700E0
070060
078060
03F000
03FE00
00FF80
001FE0
0003F0
0600F0
060070
070070
0780F0
03E1E0
03FFE0
037F80
000000
000000
ENDCHAR

STARTCHAR jisx0212_2A5D
ENCODING 10845
SWIDTH 960 0
DWIDTH 24 0
BBX 24 24 0 -2
BITMAP
007E00
00EF00
00E700
0018C0
03FFC0
03C7C0
0781E0
0700E0
070060
078060
03F000
03FE00
00FF80
001FE0
0003F0
0600F0
060070
070070
0780F0
03E1E0
03FFE0
037F80
000000
000000
ENDCHAR

STARTCHAR jisx0212_2A5E
ENCODING 10846
SWIDTH 960 0
DWIDTH 24 0
BBX 24 24 0 -2
BITMAP
00EF00
007E00
003C00
00C2C0
03FFC0
03C7C0
0781E0
0700E0
070060
078060
03F000
03FE00
00FF80
001FE0
0003F0
0600F0
060070
070070
0780F0
03E1E0
03FFE0
037F80
000000
000000
ENDCHAR

STARTCHAR jisx0212_2A5F
ENCODING 10847
SWIDTH 960 0
DWIDTH 24 0
BBX 24 24 0 -2
BITMAP
000000
00FEC0
03FFC0
03C7C0
0781E0
0700E0
070060
078060
03F000
03FE00
00FF80
001FE0
0003F0
0600F0
060070
070070
0780F0
03E1E0
03FFE0
037F80
001C00
00FF00
00E700
007E00
ENDCHAR

STARTCHAR jisx0212_2A60
ENCODING 10848
SWIDTH 960 0
DWIDTH 24 0
BBX 24 24 0 -2
BITMAP
00EF00
007E00
003C00
0FC3F8
0FFFF8
1E1C3C
1C1C1C
181C0C
181C0C
001C00
001C00
001C00
001C00
001C00
001C00
001C00
001C00
001C00
001C00
001C00
007F00
007F00
000000
000000
ENDCHAR

STARTCHAR jisx0212_2A61
ENCODING 10849
SWIDTH 960 0
DWIDTH 24 0
BBX 24 24 0 -2
BITMAP
000000
0FFFF8
0FFFF8
1E1C3C
1C1C1C
181C0C
181C0C
001C00
001C00
001C00
001C00
001C00
001C00
001C00
001C00
001C00
001C00
001C00
007F00
007F00
001C00
00FF00
00E700
007E00
ENDCHAR

STARTCHAR jisx0212_2A62
ENCODING 10850
SWIDTH 960 0
DWIDTH 24 0
BBX 24 24 0 -2
BITMAP
001F00
007F00
007800
1F80FC
1FC0FC
070030
070030
070030
070030
070030
070030
070030
070030
070030
070030
070030
070070
078070
0380E0
03E3E0
01FFC0
007F00
000000
000000
ENDCHAR

STARTCHAR jisx0212_2A63
ENCODING 10851
SWIDTH 960 0
DWIDTH 24 0
BBX 24 24 0 -2
BITMAP
007C00
007F00
000F00
1FC0FC
1FC0FC
070030
070030
070030
070030
070030
070030
070030
070030
070030
070030
070030
070070
078070
0380E0
03E3E0
01FFC0
007F00
000000
000000
ENDCHAR

STARTCHAR jisx0212_2A64
ENCODING 10852
SWIDTH 960 0
DWIDTH 24 0
BBX 24 24 0 -2
BITMAP
01F7C0
01F7C0
00E380
1F007C
1FC0FC
070030
070030
070030
070030
070030
070030
070030
070030
070030
070030
070030
070070
078070
0380E0
03E3E0
01FFC0
007F00
000000
000000
ENDCHAR

STARTCHAR jisx0212_2A65
ENCODING 10853
SWIDTH 960 0
DWIDTH 24 0
BBX 24 24 0 -2
BITMAP
003F00
007780
007380
1F807C
1FC0FC
070030
070030
070030
070030
070030
070030
070030
070030
070030
070030
070030
070070
078070
0380E0
03E3E0
01FFC0
007F00
000000
000000
ENDCHAR

STARTCHAR jisx0212_2A66
ENCODING 10854
SWIDTH 960 0
DWIDTH 24 0
BBX 24 24 0 -2
BITMAP
007F00
007F00
003E00
1FC0FC
1FC0FC
070030
070030
070030
070030
070030
070030
070030
070030
070030
070030
070030
070070
078070
0380E0
03E3E0
01FFC0
007F00
000000
000000
ENDCHAR

STARTCHAR jisx0212_2A67
ENCODING 10855
SWIDTH 960 0
DWIDTH 24 0
BBX 24 24 0 -2
BITMAP
007780
003F00
001E00
1FC0FC
1FC0FC
070030
070030
070030
070030
070030
070030
070030
070030
070030
070030
070030
070070
078070
0380E0
03E3E0
01FFC0
007F00
000000
000000
ENDCHAR

STARTCHAR jisx0212_2A68
ENCODING 10856
SWIDTH 960 0
DWIDTH 24 0
BBX 24 24 0 -2
BITMAP
00FBE0
01FFE0
01C700
1E00FC
1FC0FC
070030
070030
070030
070030
070030
070030
070030
070030
070030
070030
070030
070070
078070
0380E0
03E3E0
01FFC0
007F00
000000
000000
ENDCHAR

STARTCHAR jisx0212_2A69
ENCODING 10857
SWIDTH 960 0
DWIDTH 24 0
BBX 24 24 0 -2
BITMAP
00FF80
000000
000000
1FC0FC
1FC0FC
070030
070030
070030
070030
070030
070030
070030
070030
070030
070030
070030
070070
078070
0380E0
03E3E0
01FFC0
007F00
000000
000000
ENDCHAR

STARTCHAR jisx0212_2A6A
ENCODING 10858
SWIDTH 960 0
DWIDTH 24 0
BBX 24 24 0 -2
BITMAP
000000
1FC0FC
1FC0FC
070030
070030
070030
070030
070030
070030
070030
070030
070030
070030
070030
070070
078070
0380E0
03E3E0
01FFC0
007F00
001C80
001B80
001F80
000F00
ENDCHAR

STARTCHAR jisx0212_2A6B
ENCODING 10859
SWIDTH 960 0
DWIDTH 24 0
BBX 24 24 0 -2
BITMAP
003E00
003600
003E00
1FDCFC
1FC0FC
070030
070030
070030
070030
070030
070030
070030
070030
070030
070030
070030
070070
078070
0380E0
03E3E0
01FFC0
007F00
000000
000000
ENDCHAR

STARTCHAR jisx0212_2A6C
ENCODING 10860
SWIDTH 960 0
DWIDTH 24 0
BBX 24 24 0 -2
BITMAP
00FF80
00FF80
00CF00
1F00FC
1FC0FC
070030
070030
070030
070030
070030
070030
070030
070030
070030
070030
070030
070070
078070
0380E0
03E3E0
01FFC0
007F00
000000
000000
ENDCHAR

STARTCHAR jisx0212_2A6D
ENCODING 10861
SWIDTH 960 0
DWIDTH 24 0
BBX 24 24 0 -2
BITMAP
000F80
003F80
00FC00
01E3C0
01F7C0
1EE3BC
1FC0FC
070030
070030
070030
070030
070030
070030
070030
070030
070030
070070
078070
0380E0
03E3E0
01FFC0
007F00
000000
000000
ENDCHAR

STARTCHAR jisx0212_2A6E
ENCODING 10862
SWIDTH 960 0
DWIDTH 24 0
BBX 24 24 0 -2
BITMAP
00F800
00FE00
001F80
01E3C0
01F7C0
1EE3BC
1FC0FC
070030
070030
070030
070030
070030
070030
070030
070030
070030
070070
078070
0380E0
03E3E0
01FFC0
007F00
000000
000000
ENDCHAR

STARTCHAR jisx0212_2A6F
ENCODING 10863
SWIDTH 960 0
DWIDTH 24 0
BBX 24 24 0 -2
BITMAP
00EF00
007E00
00BD80
01E3C0
01F7C0
1EE3BC
1FC0FC
070030
070030
070030
070030
070030
070030
070030
070030
070030
070070
078070
0380E0
03E3E0
01FFC0
007F00
000000
000000
ENDCHAR

STARTCHAR jisx0212_2A70
ENCODING 10864
SWIDTH 960 0
DWIDTH 24 0
BBX 24 24 0 -2
BITMAP
00FF80
000000
00E380
01F7C0
01F7C0
1EE3BC
1FC0FC
070030
070030
070030
070030
070030
070030
070030
070030
070030
070070
078070
0380E0
03E3E0
01FFC0
007F00
000000
000000
ENDCHAR

STARTCHAR jisx0212_2A71
ENCODING 10865
SWIDTH 960 0
DWIDTH 24 0
BBX 24 24 0 -2
BITMAP
007E00
00EF00
00E700
FE183F
FE1C3F
381C0C
381C0C
3C3E1C
1C3E1C
1C2E18
1E7F38
0E7738
0E6730
0E6730
0EE770
06E370
06C360
07C3E0
03C1E0
0381C0
0381C0
0381C0
000000
000000
ENDCHAR

STARTCHAR jisx0212_2A72
ENCODING 10866
SWIDTH 960 0
DWIDTH 24 0
BBX 24 24 0 -2
BITMAP
001F00
007F00
007800
1F81FC
1FC1FC
070070
0380E0
03C1C0
01C1C0
01E380
00E380
00F700
007700
007E00
003E00
003C00
001C00
001C00
001C00
001C00
007F00
007F00
000000
000000
ENDCHAR

STARTCHAR jisx0212_2A73
ENCODING 10867
SWIDTH 960 0
DWIDTH 24 0
BBX 24 24 0 -2
BITMAP
01F7C0
01F7C0
00E380
1F007C
1FC1FC
070070
0380E0
03C1C0
01C1C0
01E380
00E380
00F700
007700
007E00
003E00
003C00
001C00
001C00
001C00
001C00
007F00
007F00
000000
000000
ENDCHAR

STARTCHAR jisx0212_2A74
ENCODING 10868
SWIDTH 960 0
DWIDTH 24 0
BBX 24 24 0 -2
BITMAP
007E00
00EF00
00E700
1F00FC
1FC1FC
070070
0380E0
03C1C0
01C1C0
01E380
00E380
00F700
007700
007E00
003E00
003C00
001C00
001C00
001C00
001C00
007F00
007F00
000000
000000
ENDCHAR

STARTCHAR jisx0212_2A75
ENCODING 10869
SWIDTH 960 0
DWIDTH 24 0
BBX 24 24 0 -2
BITMAP
001F00
007F00
007800
0387F0
03FFF0
0780F0
0701E0
0603C0
060780
000F80
001F00
001E00
003C00
007C00
00F800
00F000
01E018
03C018
07C038
0F8078
0F7FF0
0FFFF0
000000
000000
ENDCHAR

STARTCHAR jisx0212_2A76
ENCODING 10870
SWIDTH 960 0
DWIDTH 24 0
BBX 24 24 0 -2
BITMAP
00EF00
007E00
003C00
03C3F0
03FFF0
0780F0
0701E0
0603C0
060780
000F80
001F00
001E00
003C00
007C00
00F800
00F000
01E018
03C018
07C038
0F8078
0F7FF0
0FFFF0
000000
000000
ENDCHAR

STARTCHAR jisx0212_2A77
ENCODING 10871
SWIDTH 960 0
DWIDTH 24 0
BBX 24 24 0 -2
BITMAP
003E00
003E00
001C00
03E3F0
03FFF0
0780F0
0701E0
0603C0
060780
000F80
001F00
001E00
003C00
007C00
00F800
00F000
01E018
03C018
07C038
0F8078
0F7FF0
0FFFF0
000000
000000
ENDCHAR

STARTCHAR jisx0212_2B21
ENCODING 11041
SWIDTH 960 0
DWIDTH 24 0
BBX 24 24 0 -2
BITMAP
000000
000700
001F00
007F00
007800
000000
000000
01FF00
03FF80
03C3C0
03E1C0
01C3C0
001FC0
00FFC0
03F9C0
07C1C0
0781C0
0701C0
0703F0
0787B0
03FFF0
01FEE0
000000
000000
ENDCHAR

STARTCHAR jisx0212_2B22
ENCODING 11042
SWIDTH 960 0
DWIDTH 24 0
BBX 24 24 0 -2
BITMAP
000000
007000
007C00
007F00
000F00
000000
000000
01FF00
03FF80
03C3C0
03E1C0
01C3C0
001FC0
00FFC0
03F9C0
07C1C0
0781C0
0701C0
0703F0
0787B0
03FFF0
01FEE0
000000
000000
ENDCHAR

STARTCHAR jisx0212_2B23
ENCODING 11043
SWIDTH 960 0
DWIDTH 24 0
BBX 24 24 0 -2
BITMAP
000000
00E380
01F7C0
01F7C0
00E380
000000
000000
01FF00
03FF80
03C3C0
03E1C0
01C3C0
001FC0
00FFC0
03F9C0
07C1C0
0781C0
0701C0
0703F0
0787B0
03FFF0
01FEE0
000000
000000
ENDCHAR

STARTCHAR jisx0212_2B24
ENCODING 11044
SWIDTH 960 0
DWIDTH 24 0
BBX 24 24 0 -2
BITMAP
000000
003C00
007E00
00EF00
00E700
000000
000000
01FF00
03FF80
03C3C0
03E1C0
01C3C0
001FC0
00FFC0
03F9C0
07C1C0
0781C0
0701C0
0703F0
0787B0
03FFF0
01FEE0
000000
000000
ENDCHAR

STARTCHAR jisx0212_2B25
ENCODING 11045
SWIDTH 960 0
DWIDTH 24 0
BBX 24 24 0 -2
BITMAP
000000
006300
007F00
007F00
003E00
000000
000000
01FF00
03FF80
03C3C0
03E1C0
01C3C0
001FC0
00FFC0
03F9C0
07C1C0
0781C0
0701C0
0703F0
0787B0
03FFF0
01FEE0
000000
000000
ENDCHAR

STARTCHAR jisx0212_2B26
ENCODING 11046
SWIDTH 960 0
DWIDTH 24 0
BBX 24 24 0 -2
BITMAP
000000
00E700
00EF00
007E00
003C00
000000
000000
01FF00
03FF80
03C3C0
03E1C0
01C3C0
001FC0
00FFC0
03F9C0
07C1C0
0781C0
0701C0
0703F0
0787B0
03FFF0
01FEE0
000000
000000
ENDCHAR

STARTCHAR jisx0212_2B27
ENCODING 11047
SWIDTH 960 0
DWIDTH 24 0
BBX 24 24 0 -2
BITMAP
000000
000000
00FF80
00FF80
000000
000000
000000
01FF00
03FF80
03C3C0
03E1C0
01C3C0
001FC0
00FFC0
03F9C0
07C1C0
0781C0
0701C0
0703F0
0787B0
03FFF0
01FEE0
000000
000000
ENDCHAR

STARTCHAR jisx0212_2B28
ENCODING 11048
SWIDTH 960 0
DWIDTH 24 0
BBX 24 24 0 -2
BITMAP
000000
000000
000000
000000
000000
000000
000000
01FF00
03FF80
03C3C0
03E1C0
01C3C0
003FC0
01FFC0
07F1C0
0781C0
0701C0
0703F0
0787B0
03FFF0
01FDE0
000190
0001F0
0000F0
ENDCHAR

STARTCHAR jisx0212_2B29
ENCODING 11049
SWIDTH 960 0
DWIDTH 24 0
BBX 24 24 0 -2
BITMAP
000000
001C00
003E00
003600
003E00
001C00
000000
01FF00
03FF80
03C3C0
03E1C0
01C3C0
001FC0
00FFC0
03F9C0
07C1C0
0781C0
0701C0
0703F0
0787B0
03FFF0
01FEE0
000000
000000
ENDCHAR

STARTCHAR jisx0212_2B2A
ENCODING 11050
SWIDTH 960 0
DWIDTH 24 0
BBX 24 24 0 -2
BITMAP
000000
007980
00FF80
00FF80
00CF00
000000
000000
01FF00
03FF80
03C3C0
03E1C0
01C3C0
001FC0
00FFC0
03F9C0
07C1C0
0781C0
0701C0
0703F0
0787B0
03FFF0
01FEE0
000000
000000
ENDCHAR

STARTCHAR jisx0212_2B2B
ENCODING 11051
SWIDTH 960 0
DWIDTH 24 0
BBX 24 24 0 -2
BITMAP
000000
000E00
003E00
00FE00
00F000
000000
000000
007E00
01FF80
03E7C0
0381E0
0783E0
0703E0
0701C0
070000
070000
070060
0780E0
0381E0
03E7C0
01FF80
007E00
000000
000000
ENDCHAR

STARTCHAR jisx0212_2B2C
ENCODING 11052
SWIDTH 960 0
DWIDTH 24 0
BBX 24 24 0 -2
BITMAP
000000
003C00
007E00
00EF00
00E700
000000
000000
007E00
01FF80
03E7C0
0381E0
0783E0
0703E0
0701C0
070000
070000
070060
0780E0
0381E0
03E7C0
01FF80
007E00
000000
000000
ENDCHAR

STARTCHAR jisx0212_2B2D
ENCODING 11053
SWIDTH 960 0
DWIDTH 24 0
BBX 24 24 0 -2
BITMAP
000000
00E700
00EF00
007E00
003C00
000000
000000
007E00
01FF80
03E7C0
0381E0
0783E0
0703E0
0701C0
070000
070000
070060
0780E0
0381E0
03E7C0
01FF80
007E00
000000
000000
ENDCHAR

STARTCHAR jisx0212_2B2E
ENCODING 11054
SWIDTH 960 0
DWIDTH 24 0
BBX 24 24 0 -2
BITMAP
000000
000000
000000
000000
000000
000000
000000
007E00
01FF80
03E7C0
0381E0
0783E0
0703E0
0701C0
070000
070060
0780E0
0381E0
03E7C0
01FF80
007E00
009C00
00EE00
007C00
ENDCHAR

STARTCHAR jisx0212_2B2F
ENCODING 11055
SWIDTH 960 0
DWIDTH 24 0
BBX 24 24 0 -2
BITMAP
000000
001C00
003E00
003E00
001C00
000000
000000
007E00
01FF80
03E7C0
0381E0
0783E0
0703E0
0701C0
070000
070000
070060
0780E0
0381E0
03E7C0
01FF80
007E00
000000
000000
ENDCHAR

STARTCHAR jisx0212_2B30
ENCODING 11056
SWIDTH 960 0
DWIDTH 24 0
BBX 24 24 0 -2
BITMAP
00EF00
007EE0
003DE0
0003E0
0000E0
0000E0
0000E0
007EE0
01FFE0
03E7E0
0381E0
0780E0
0700E0
0700E0
0700E0
0700E0
0700E0
0780E0
0381E0
03E7E0
01FFF8
007EF8
000000
000000
ENDCHAR

STARTCHAR jisx0212_2B31
ENCODING 11057
SWIDTH 960 0
DWIDTH 24 0
BBX 24 24 0 -2
BITMAP
000000
000E00
003E00
00FE00
00F000
000000
000000
007E00
01FF80
03E7C0
0381C0
0781E0
0700E0
07FFE0
07FFE0
070000
070060
0780E0
0381E0
03E7C0
01FF80
007E00
000000
000000
ENDCHAR

STARTCHAR jisx0212_2B32
ENCODING 11058
SWIDTH 960 0
DWIDTH 24 0
BBX 24 24 0 -2
BITMAP
000000
00E000
00F800
00FE00
001E00
000000
000000
007E00
01FF80
03E7C0
0381C0
0781E0
0700E0
07FFE0
07FFE0
070000
070060
0780E0
0381E0
03E7C0
01FF80
007E00
000000
000000
ENDCHAR

STARTCHAR jisx0212_2B33
ENCODING 11059
SWIDTH 960 0
DWIDTH 24 0
BBX 24 24 0 -2
BITMAP
000000
01C700
03EF80
03EF80
01C700
000000
000000
007E00
01FF80
03E7C0
0381C0
0781E0
0700E0
07FFE0
07FFE0
070000
070060
0780E0
0381E0
03E7C0
01FF80
007E00
000000
000000
ENDCHAR

STARTCHAR jisx0212_2B34
ENCODING 11060
SWIDTH 960 0
DWIDTH 24 0
BBX 24 24 0 -2
BITMAP
000000
003C00
007E00
00EF00
00E700
000000
000000
007E00
01FF80
03E7C0
0381C0
0781E0
0700E0
07FFE0
07FFE0
070000
070060
0780E0
0381E0
03E7C0
01FF80
007E00
000000
000000
ENDCHAR

STARTCHAR jisx0212_2B35
ENCODING 11061
SWIDTH 960 0
DWIDTH 24 0
BBX 24 24 0 -2
BITMAP
000000
00E700
00EF00
007E00
003C00
000000
000000
007E00
01FF80
03E7C0
0381C0
0781E0
0700E0
07FFE0
07FFE0
070000
070060
0780E0
0381E0
03E7C0
01FF80
007E00
000000
000000
ENDCHAR

STARTCHAR jisx0212_2B36
ENCODING 11062
SWIDTH 960 0
DWIDTH 24 0
BBX 24 24 0 -2
BITMAP
000000
003800
007C00
007C00
003800
000000
000000
007E00
01FF80
03E7C0
0381C0
0781E0
0700E0
07FFE0
07FFE0
070000
070060
0780E0
0381E0
03E7C0
01FF80
007E00
000000
000000
ENDCHAR

STARTCHAR jisx0212_2B37
ENCODING 11063
SWIDTH 960 0
DWIDTH 24 0
BBX 24 24 0 -2
BITMAP
000000
000000
01FF00
01FF00
000000
000000
000000
007E00
01FF80
03E7C0
0381C0
0781E0
0700E0
07FFE0
07FFE0
070000
070060
0780E0
0381E0
03E7C0
01FF80
007E00
000000
000000
ENDCHAR

STARTCHAR jisx0212_2B38
ENCODING 11064
SWIDTH 960 0
DWIDTH 24 0
BBX 24 24 0 -2
BITMAP
000000
000000
000000
000000
000000
000000
000000
007E00
01FF80
03E7C0
0381C0
0781E0
077EE0
07FFE0
070000
070060
0780E0
0381E0
03E7C0
01FF80
007E00
0007C0
0007C0
0003C0
ENDCHAR

STARTCHAR jisx0212_2B39
ENCODING 11065
SWIDTH 960 0
DWIDTH 24 0
BBX 24 24 0 -2
BITMAP
000000
000700
001F00
007F00
007800
000000
000000
007EF0
00FFF8
01E3B8
01C1F8
01C1C0
01C1C0
01E3C0
00FF80
03FF00
038080
03FFE0
01FFF0
0780F0
070070
07C1F0
03FFE0
00FF80
ENDCHAR

STARTCHAR jisx0212_2B3A
ENCODING 11066
SWIDTH 960 0
DWIDTH 24 0
BBX 24 24 0 -2
BITMAP
000000
003C00
007E00
00EF00
00E700
000000
000000
007EF0
00FFF8
01E3B8
01C1F8
01C1C0
01C1C0
01E3C0
00FF80
03FF00
038080
03FFE0
01FFF0
0780F0
070070
07C1F0
03FFE0
00FF80
ENDCHAR

STARTCHAR jisx0212_2B3B
ENCODING 11067
SWIDTH 960 0
DWIDTH 24 0
BBX 24 24 0 -2
BITMAP
000000
006300
007F00
007F00
003E00
000000
000000
007EF0
00FFF8
01E3B8
01C1F8
01C1C0
01C1C0
01E3C0
00FF80
03FF00
038080
03FFE0
01FFF0
0780F0
070070
07C1F0
03FFE0
00FF80
ENDCHAR

STARTCHAR jisx0212_2B3D
ENCODING 11069
SWIDTH 960 0
DWIDTH 24 0
BBX 24 24 0 -2
BITMAP
000000
001C00
003E00
003E00
001C00
000000
000000
007EF0
00FFF8
01E3B8
01C1F8
01C1C0
01C1C0
01E3C0
00FF80
03FF00
038080
03FFE0
01FFF0
0780F0
070070
07C1F0
03FFE0
00FF80
ENDCHAR

STARTCHAR jisx0212_2B3E
ENCODING 11070
SWIDTH 960 0
DWIDTH 24 0
BBX 24 24 0 -2
BITMAP
003F00
037780
0FF380
0F8000
038000
038000
038000
03BF00
03FFC0
03F3C0
03C1E0
0380E0
0380E0
0380E0
0380E0
0380E0
0380E0
0380E0
0380E0
0380E0
0FE3F8
0FE3F8
000000
000000
ENDCHAR

STARTCHAR jisx0212_2B3F
ENCODING 11071
SWIDTH 960 0
DWIDTH 24 0
BBX 24 24 0 -2
BITMAP
000000
000700
001F00
007F00
007800
000000
000000
001C00
007C00
007C00
001C00
001C00
001C00
001C00
001C00
001C00
001C00
001C00
001C00
001C00
007F00
007F00
000000
000000
ENDCHAR

STARTCHAR jisx0212_2B40
ENCODING 11072
SWIDTH 960 0
DWIDTH 24 0
BBX 24 24 0 -2
BITMAP
000000
007000
007C00
007F00
000F00
000000
000000
001C00
007C00
007C00
001C00
001C00
001C00
001C00
001C00
001C00
001C00
001C00
001C00
001C00
007F00
007F00
000000
000000
ENDCHAR

STARTCHAR jisx0212_2B41
ENCODING 11073
SWIDTH 960 0
DWIDTH 24 0
BBX 24 24 0 -2
BITMAP
000000
00E380
01F7C0
01F7C0
00E380
000000
000000
001C00
007C00
007C00
001C00
001C00
001C00
001C00
001C00
001C00
001C00
001C00
001C00
001C00
007F00
007F00
000000
000000
ENDCHAR

STARTCHAR jisx0212_2B42
ENCODING 11074
SWIDTH 960 0
DWIDTH 24 0
BBX 24 24 0 -2
BITMAP
000000
003C00
007E00
00EF00
00E700
000000
000000
001C00
007C00
007C00
001C00
001C00
001C00
001C00
001C00
001C00
001C00
001C00
001C00
001C00
007F00
007F00
000000
000000
ENDCHAR

STARTCHAR jisx0212_2B43
ENCODING 11075
SWIDTH 960 0
DWIDTH 24 0
BBX 24 24 0 -2
BITMAP
000000
00E700
00EF00
007E00
003C00
000000
000000
001C00
007C00
007C00
001C00
001C00
001C00
001C00
001C00
001C00
001C00
001C00
001C00
001C00
007F00
007F00
000000
000000
ENDCHAR

STARTCHAR jisx0212_2B45
ENCODING 11077
SWIDTH 960 0
DWIDTH 24 0
BBX 24 24 0 -2
BITMAP
000000
000000
00FF80
00FF80
000000
000000
000000
001C00
007C00
007C00
001C00
001C00
001C00
001C00
001C00
001C00
001C00
001C00
001C00
001C00
007F00
007F00
000000
000000
ENDCHAR

STARTCHAR jisx0212_2B46
ENCODING 11078
SWIDTH 960 0
DWIDTH 24 0
BBX 24 24 0 -2
BITMAP
000000
001C00
003E00
003E00
001C00
000000
000000
001C00
007C00
007C00
001C00
001C00
001C00
001C00
001C00
001C00
001C00
001C00
001C00
007F00
007F00
001800
001F00
000F00
ENDCHAR

STARTCHAR jisx0212_2B47
ENCODING 11079
SWIDTH 960 0
DWIDTH 24 0
BBX 24 24 0 -2
BITMAP
000000
007980
00FF80
00FF80
00CF00
000000
000000
001C00
007C00
007C00
001C00
001C00
001C00
001C00
001C00
001C00
001C00
001C00
001C00
001C00
007F00
007F00
000000
000000
ENDCHAR

STARTCHAR jisx0212_2B48
ENCODING 11080
SWIDTH 960 0
DWIDTH 24 0
BBX 24 24 0 -2
BITMAP
000000
003C00
007E00
00EF00
00E700
000000
000000
000E00
003E00
003E00
000E00
000E00
000E00
000E00
000E00
000E00
000E00
000E00
000E00
01CE00
03EE00
03FE00
01DC00
00F800
ENDCHAR

STARTCHAR jisx0212_2B49
ENCODING 11081
SWIDTH 960 0
DWIDTH 24 0
BBX 24 24 0 -2
BITMAP
000000
01C000
07C000
07C000
01C000
01C000
01C000
01CFE0
01CFE0
01C380
01CF00
01DE00
01FC00
01BE00
01EF00
01E780
01C380
01C3C0
07F5F0
07FFF0
001800
00FE00
00EE00
007C00
ENDCHAR

STARTCHAR jisx0212_2B4A
ENCODING 11082
SWIDTH 960 0
DWIDTH 24 0
BBX 24 24 0 -2
BITMAP
001F00
007F00
007800
000400
007C00
007C00
001C00
001C00
001C00
001C00
001C00
001C00
001C00
001C00
001C00
001C00
001C00
001C00
001C00
001C00
007F00
007F00
000000
000000
ENDCHAR

STARTCHAR jisx0212_2B4B
ENCODING 11083
SWIDTH 960 0
DWIDTH 24 0
BBX 24 24 0 -2
BITMAP
00EF00
007E00
003C00
000000
007C00
007C00
001C00
001C00
001C00
001C00
001C00
001C00
001C00
001C00
001C00
001C00
001C00
001C00
001C00
001C00
007F00
007F00
000000
000000
ENDCHAR

STARTCHAR jisx0212_2B4C
ENCODING 11084
SWIDTH 960 0
DWIDTH 24 0
BBX 24 24 0 -2
BITMAP
000000
001C00
007C00
007C00
001C00
001C00
001C00
001C00
001C00
001C00
001C00
001C00
001C00
001C00
001C00
001C00
001C00
001C00
007F00
007F00
000C00
007F00
007700
003E00
ENDCHAR

STARTCHAR jisx0212_2B4D
ENCODING 11085
SWIDTH 960 0
DWIDTH 24 0
BBX 24 24 0 -2
BITMAP
000000
000700
001F00
007F00
007800
000000
000000
03BF00
0FFFC0
0FF3C0
03C1E0
0380E0
0380E0
0380E0
0380E0
0380E0
0380E0
0380E0
0380E0
0380E0
0FE3F8
0FE3F8
000000
000000
ENDCHAR

STARTCHAR jisx0212_2B4E
ENCODING 11086
SWIDTH 960 0
DWIDTH 24 0
BBX 24 24 0 -2
BITMAP
000000
00E700
00EF00
007E00
003C00
000000
000000
03BF00
0FFFC0
0FF3C0
03C1E0
0380E0
0380E0
0380E0
0380E0
0380E0
0380E0
0380E0
0380E0
0380E0
0FE3F8
0FE3F8
000000
000000
ENDCHAR

STARTCHAR jisx0212_2B4F
ENCODING 11087
SWIDTH 960 0
DWIDTH 24 0
BBX 24 24 0 -2
BITMAP
000000
000000
000000
000000
000000
000000
000000
03BF00
0FFFC0
0FF3C0
03C1E0
0380E0
0380E0
0380E0
0380E0
0380E0
0380E0
0380E0
0380E0
0FDBF8
0FDFF8
003C00
00EE00
007C00
ENDCHAR

STARTCHAR jisx0212_2B50
ENCODING 11088
SWIDTH 960 0
DWIDTH 24 0
BBX 24 24 0 -2
BITMAP
000000
007980
00FF80
00FF80
00CF00
000000
000000
03BF00
0FFFC0
0FF3C0
03C1E0
0380E0
0380E0
0380E0
0380E0
0380E0
0380E0
0380E0
0380E0
0380E0
0FE3F8
0FE3F8
000000
000000
ENDCHAR

STARTCHAR jisx0212_2B51
ENCODING 11089
SWIDTH 960 0
DWIDTH 24 0
BBX 24 24 0 -2
BITMAP
000000
000E00
003E00
00FE00
00F000
000000
000000
007E00
01FF80
03E7C0
0381C0
0781E0
0700E0
0700E0
0700E0
0700E0
0700E0
0781E0
0381C0
03E7C0
01FF80
007E00
000000
000000
ENDCHAR

STARTCHAR jisx0212_2B52
ENCODING 11090
SWIDTH 960 0
DWIDTH 24 0
BBX 24 24 0 -2
BITMAP
000000
00E000
00F800
00FE00
001E00
000000
000000
007E00
01FF80
03E7C0
0381C0
0781E0
0700E0
0700E0
0700E0
0700E0
0700E0
0781E0
0381C0
03E7C0
01FF80
007E00
000000
000000
ENDCHAR

STARTCHAR jisx0212_2B53
ENCODING 11091
SWIDTH 960 0
DWIDTH 24 0
BBX 24 24 0 -2
BITMAP
000000
01C700
03EF80
03EF80
01C700
000000
000000
007E00
01FF80
03E7C0
0381C0
0781E0
0700E0
0700E0
0700E0
0700E0
0700E0
0781E0
0381C0
03E7C0
01FF80
007E00
000000
000000
ENDCHAR

STARTCHAR jisx0212_2B54
ENCODING 11092
SWIDTH 960 0
DWIDTH 24 0
BBX 24 24 0 -2
BITMAP
000000
003C00
007E00
00EF00
00E700
000000
000000
007E00
01FF80
03E7C0
0381C0
0781E0
0700E0
0700E0
0700E0
0700E0
0700E0
0781E0
0381C0
03E7C0
01FF80
007E00
000000
000000
ENDCHAR

STARTCHAR jisx0212_2B55
ENCODING 11093
SWIDTH 960 0
DWIDTH 24 0
BBX 24 24 0 -2
BITMAP
000000
00E700
00EF00
007E00
003C00
000000
000000
007E00
01FF80
03E7C0
0381C0
0781E0
0700E0
0700E0
0700E0
0700E0
0700E0
0781E0
0381C0
03E7C0
01FF80
007E00
000000
000000
ENDCHAR

STARTCHAR jisx0212_2B56
ENCODING 11094
SWIDTH 960 0
DWIDTH 24 0
BBX 24 24 0 -2
BITMAP
000000
0071C0
01F7C0
03FFC0
038E00
000000
000000
007E00
01FF80
03E7C0
0381C0
0781E0
0700E0
0700E0
0700E0
0700E0
0700E0
0781E0
0381C0
03E7C0
01FF80
007E00
000000
000000
ENDCHAR

STARTCHAR jisx0212_2B57
ENCODING 11095
SWIDTH 960 0
DWIDTH 24 0
BBX 24 24 0 -2
BITMAP
000000
000000
01FF00
01FF00
000000
000000
000000
007E00
01FF80
03E7C0
0381C0
0781E0
0700E0
0700E0
0700E0
0700E0
0700E0
0781E0
0381C0
03E7C0
01FF80
007E00
000000
000000
ENDCHAR

STARTCHAR jisx0212_2B58
ENCODING 11096
SWIDTH 960 0
DWIDTH 24 0
BBX 24 24 0 -2
BITMAP
000000
00F300
01FF00
01FF00
019E00
000000
000000
007E00
01FF80
03E7C0
0381C0
0781E0
0700E0
0700E0
0700E0
0700E0
0700E0
0781E0
0381C0
03E7C0
01FF80
007E00
000000
000000
ENDCHAR

STARTCHAR jisx0212_2B59
ENCODING 11097
SWIDTH 960 0
DWIDTH 24 0
BBX 24 24 0 -2
BITMAP
000000
000700
001F00
007F00
007800
000000
000000
007380
01FFC0
01EFC0
007BC0
007980
007000
007000
007000
007000
007000
007000
007000
007000
01FC00
01FC00
000000
000000
ENDCHAR

STARTCHAR jisx0212_2B5A
ENCODING 11098
SWIDTH 960 0
DWIDTH 24 0
BBX 24 24 0 -2
BITMAP
000000
00E700
00EF00
007E00
003C00
000000
000000
007380
01FFC0
01EFC0
007BC0
007980
007000
007000
007000
007000
007000
007000
007000
007000
01FC00
01FC00
000000
000000
ENDCHAR

STARTCHAR jisx0212_2B5B
ENCODING 11099
SWIDTH 960 0
DWIDTH 24 0
BBX 24 24 0 -2
BITMAP
000000
000000
000000
000000
000000
000000
000000
007380
01FFC0
01EFC0
007BC0
007980
007000
007000
007000
007000
007000
007000
007000
01FC00
01FC00
003800
01DC00
00F800
ENDCHAR

STARTCHAR jisx0212_2B5C
ENCODING 11100
SWIDTH 960 0
DWIDTH 24 0
BBX 24 24 0 -2
BITMAP
000000
000E00
003E00
00FE00
00F000
000000
000000
00FEC0
01FFC0
03C3C0
0381C0
03C0C0
03F8C0
01FF00
007FC0
030FE0
0301E0
0380E0
0380E0
03E1E0
03FFC0
037F80
000000
000000
ENDCHAR

STARTCHAR jisx0212_2B5D
ENCODING 11101
SWIDTH 960 0
DWIDTH 24 0
BBX 24 24 0 -2
BITMAP
000000
003C00
007E00
00EF00
00E700
000000
000000
00FEC0
01FFC0
03C3C0
0381C0
03C0C0
03F8C0
01FF00
007FC0
030FE0
0301E0
0380E0
0380E0
03E1E0
03FFC0
037F80
000000
000000
ENDCHAR

STARTCHAR jisx0212_2B5E
ENCODING 11102
SWIDTH 960 0
DWIDTH 24 0
BBX 24 24 0 -2
BITMAP
000000
00E700
00EF00
007E00
003C00
000000
000000
00FEC0
01FFC0
03C3C0
0381C0
03C0C0
03F8C0
01FF00
007FC0
030FE0
0301E0
0380E0
0380E0
03E1E0
03FFC0
037F80
000000
000000
ENDCHAR

STARTCHAR jisx0212_2B5F
ENCODING 11103
SWIDTH 960 0
DWIDTH 24 0
BBX 24 24 0 -2
BITMAP
000000
000000
000000
000000
000000
000000
000000
00FEC0
01FFC0
03C3C0
0381C0
03C0C0
03F8C0
01FF00
027FC0
030FE0
0381E0
0380E0
03E1E0
03FFC0
037F80
000E00
007700
003E00
ENDCHAR

STARTCHAR jisx0212_2B60
ENCODING 11104
SWIDTH 960 0
DWIDTH 24 0
BBX 24 24 0 -2
BITMAP
00EF00
007E00
003C00
000000
003800
003800
003800
003800
00FF00
00FF00
003800
003800
003800
003800
003800
003800
003800
0038C0
0039C0
003BC0
003F80
001F00
000000
000000
ENDCHAR

STARTCHAR jisx0212_2B61
ENCODING 11105
SWIDTH 960 0
DWIDTH 24 0
BBX 24 24 0 -2
BITMAP
000000
001800
003800
003800
003800
003800
003800
00FF00
00FF00
003800
003800
003800
003800
003800
003800
003800
0038C0
0039C0
003BC0
003F80
001F00
002780
003B80
001F00
ENDCHAR

STARTCHAR jisx0212_2B62
ENCODING 11106
SWIDTH 960 0
DWIDTH 24 0
BBX 24 24 0 -2
BITMAP
000000
000700
001F00
007F00
007800
000000
000000
0380E0
0F83E0
0F83E0
0380E0
0380E0
0380E0
0380E0
0380E0
0380E0
0380E0
0380E0
03C1E0
01E7E0
01FFF8
007EF8
000000
000000
ENDCHAR

STARTCHAR jisx0212_2B63
ENCODING 11107
SWIDTH 960 0
DWIDTH 24 0
BBX 24 24 0 -2
BITMAP
000000
007000
007C00
007F00
000F00
000000
000000
0380E0
0F83E0
0F83E0
0380E0
0380E0
0380E0
0380E0
0380E0
0380E0
0380E0
0380E0
03C1E0
01E7E0
01FFF8
007EF8
000000
000000
ENDCHAR

STARTCHAR jisx0212_2B64
ENCODING 11108
SWIDTH 960 0
DWIDTH 24 0
BBX 24 24 0 -2
BITMAP
000000
00E380
01F7C0
01F7C0
00E380
000000
000000
0380E0
0F83E0
0F83E0
0380E0
0380E0
0380E0
0380E0
0380E0
0380E0
0380E0
0380E0
03C1E0
01E7E0
01FFF8
007EF8
000000
000000
ENDCHAR

STARTCHAR jisx0212_2B65
ENCODING 11109
SWIDTH 960 0
DWIDTH 24 0
BBX 24 24 0 -2
BITMAP
000000
003C00
007E00
00EF00
00E700
000000
000000
0380E0
0F83E0
0F83E0
0380E0
0380E0
0380E0
0380E0
0380E0
0380E0
0380E0
0380E0
03C1E0
01E7E0
01FFF8
007EF8
000000
000000
ENDCHAR

STARTCHAR jisx0212_2B66
ENCODING 11110
SWIDTH 960 0
DWIDTH 24 0
BBX 24 24 0 -2
BITMAP
000000
006300
007F00
007F00
003E00
000000
000000
0380E0
0F83E0
0F83E0
0380E0
0380E0
0380E0
0380E0
0380E0
0380E0
0380E0
0380E0
03C1E0
01E7E0
01FFF8
007EF8
000000
000000
ENDCHAR

STARTCHAR jisx0212_2B67
ENCODING 11111
SWIDTH 960 0
DWIDTH 24 0
BBX 24 24 0 -2
BITMAP
000000
00E700
00EF00
007E00
003C00
000000
000000
0380E0
0F83E0
0F83E0
0380E0
0380E0
0380E0
0380E0
0380E0
0380E0
0380E0
0380E0
03C1E0
01E7E0
01FFF8
007EF8
000000
000000
ENDCHAR

STARTCHAR jisx0212_2B68
ENCODING 11112
SWIDTH 960 0
DWIDTH 24 0
BBX 24 24 0 -2
BITMAP
000000
0071C0
01F7C0
03FFC0
038E00
000000
000000
0380E0
0F83E0
0F83E0
0380E0
0380E0
0380E0
0380E0
0380E0
0380E0
0380E0
0380E0
03C1E0
01E7E0
01FFF8
007EF8
000000
000000
ENDCHAR

STARTCHAR jisx0212_2B69
ENCODING 11113
SWIDTH 960 0
DWIDTH 24 0
BBX 24 24 0 -2
BITMAP
000000
000000
00FF80
00FF80
000000
000000
000000
0380E0
0F83E0
0F83E0
0380E0
0380E0
0380E0
0380E0
0380E0
0380E0
0380E0
0380E0
03C1E0
01E7E0
01FFF8
007EF8
000000
000000
ENDCHAR

STARTCHAR jisx0212_2B6A
ENCODING 11114
SWIDTH 960 0
DWIDTH 24 0
BBX 24 24 0 -2
BITMAP
000000
000000
000000
000000
000000
000000
000000
0380E0
0F83E0
0F83E0
0380E0
0380E0
0380E0
0380E0
0380E0
0380E0
0380E0
03C1E0
01E7E0
01FFF8
007EF8
0000C0
0000F8
000078
ENDCHAR

STARTCHAR jisx0212_2B6B
ENCODING 11115
SWIDTH 960 0
DWIDTH 24 0
BBX 24 24 0 -2
BITMAP
000000
001C00
003E00
003600
003E00
001C00
000000
0380E0
0F83E0
0F83E0
0380E0
0380E0
0380E0
0380E0
0380E0
0380E0
0380E0
0380E0
03C1E0
01E7E0
01FFF8
007EF8
000000
000000
ENDCHAR

STARTCHAR jisx0212_2B6C
ENCODING 11116
SWIDTH 960 0
DWIDTH 24 0
BBX 24 24 0 -2
BITMAP
000000
007980
00FF80
00FF80
00CF00
000000
000000
0380E0
0F83E0
0F83E0
0380E0
0380E0
0380E0
0380E0
0380E0
0380E0
0380E0
0380E0
03C1E0
01E7E0
01FFF8
007EF8
000000
000000
ENDCHAR

STARTCHAR jisx0212_2B6D
ENCODING 11117
SWIDTH 960 0
DWIDTH 24 0
BBX 24 24 0 -2
BITMAP
001F00
007F00
007800
008380
01F7C0
01F7C0
00E380
030060
0F83E0
0F83E0
0380E0
0380E0
0380E0
0380E0
0380E0
0380E0
0380E0
0380E0
03C1E0
01E7E0
01FFF8
007EF8
000000
000000
ENDCHAR

STARTCHAR jisx0212_2B6E
ENCODING 11118
SWIDTH 960 0
DWIDTH 24 0
BBX 24 24 0 -2
BITMAP
007C00
007F00
000F00
00E080
01F7C0
01F7C0
00E380
030060
0F83E0
0F83E0
0380E0
0380E0
0380E0
0380E0
0380E0
0380E0
0380E0
0380E0
03C1E0
01E7E0
01FFF8
007EF8
000000
000000
ENDCHAR

STARTCHAR jisx0212_2B6F
ENCODING 11119
SWIDTH 960 0
DWIDTH 24 0
BBX 24 24 0 -2
BITMAP
00EF00
007E00
00BD80
01E3C0
01F7C0
00E380
000000
0380E0
0F83E0
0F83E0
0380E0
0380E0
0380E0
0380E0
0380E0
0380E0
0380E0
0380E0
03C1E0
01E7E0
01FFF8
007EF8
000000
000000
ENDCHAR

STARTCHAR jisx0212_2B70
ENCODING 11120
SWIDTH 960 0
DWIDTH 24 0
BBX 24 24 0 -2
BITMAP
00FF80
000000
00E380
01F7C0
01F7C0
00E380
000000
0380E0
0F83E0
0F83E0
0380E0
0380E0
0380E0
0380E0
0380E0
0380E0
0380E0
0380E0
03C1E0
01E7E0
01FFF8
007EF8
000000
000000
ENDCHAR

STARTCHAR jisx0212_2B71
ENCODING 11121
SWIDTH 960 0
DWIDTH 24 0
BBX 24 24 0 -2
BITMAP
000000
003C00
007E00
00EF00
00E700
000000
000000
7F1C7E
7F1C7E
1C3C18
1E3E38
0E2E30
0E6E70
0F6F70
076760
07E7E0
06E6E0
03C3C0
03C3C0
03C3C0
018180
018180
000000
000000
ENDCHAR

STARTCHAR jisx0212_2B72
ENCODING 11122
SWIDTH 960 0
DWIDTH 24 0
BBX 24 24 0 -2
BITMAP
000000
000700
001F00
007F00
007800
000000
000000
07F1F8
07F1F8
01C060
01E0E0
00E1C0
00F1C0
007380
007B80
003F00
003700
001E00
001E00
018C00
03DC00
03F800
03B800
01F000
ENDCHAR

STARTCHAR jisx0212_2B73
ENCODING 11123
SWIDTH 960 0
DWIDTH 24 0
BBX 24 24 0 -2
BITMAP
000000
0071C0
00FBE0
00FBE0
0071C0
000000
000000
07F1F8
07F1F8
01C060
01E0E0
00E1C0
00F1C0
007380
007B80
003F00
003700
001E00
001E00
018C00
03DC00
03F800
03B800
01F000
ENDCHAR

STARTCHAR jisx0212_2B74
ENCODING 11124
SWIDTH 960 0
DWIDTH 24 0
BBX 24 24 0 -2
BITMAP
000000
001E00
003F00
007780
007380
000000
000000
07F1F8
07F1F8
01C060
01E0E0
00E1C0
00F1C0
007380
007B80
003F00
003700
001E00
001E00
018C00
03DC00
03F800
03B800
01F000
ENDCHAR

STARTCHAR jisx0212_2B75
ENCODING 11125
SWIDTH 960 0
DWIDTH 24 0
BBX 24 24 0 -2
BITMAP
000000
000700
001F00
007F00
007800
000000
000000
01FFE0
01FFE0
01C1E0
0187C0
018780
000F00
001E00
003E00
003C00
007800
00F060
01F060
03E0E0
03DFE0
03FFE0
000000
000000
ENDCHAR

STARTCHAR jisx0212_2B76
ENCODING 11126
SWIDTH 960 0
DWIDTH 24 0
BBX 24 24 0 -2
BITMAP
000000
00E700
00EF00
007E00
003C00
000000
000000
01FFE0
01FFE0
01C1E0
0187C0
018780
000F00
001E00
003E00
003C00
007800
00F060
01F060
03E0E0
03DFE0
03FFE0
000000
000000
ENDCHAR

STARTCHAR jisx0212_2B77
ENCODING 11127
SWIDTH 960 0
DWIDTH 24 0
BBX 24 24 0 -2
BITMAP
000000
001C00
003E00
003E00
001C00
000000
000000
01FFE0
01FFE0
01C1E0
0187C0
018780
000F00
001E00
003E00
003C00
007800
00F060
01F060
03E0E0
03DFE0
03FFE0
000000
000000
ENDCHAR

STARTCHAR jisx0212_3021
ENCODING 12321
SWIDTH 960 0
DWIDTH 24 0
BBX 24 24 0 -2
BITMAP
00000F
FFFFFF
FFFFFF
00E000
01E000
01E000
01C000
03C030
03C078
03BFFC
07FFFC
07803C
070038
070038
000038
000038
000038
000078
000078
003CF0
003FF0
000FE0
0003C0
000300
ENDCHAR

STARTCHAR jisx0212_3022
ENCODING 12322
SWIDTH 960 0
DWIDTH 24 0
BBX 24 24 0 -2
BITMAP
001C00
001F00
001F00
001C00
001C00
001C00
001C00
001C00
001C00
001C00
001C00
001C00
001C00
001C00
001C00
001C00
001C00
001C00
001C00
001C06
001C0F
7FFFFF
7FFFFF
000000
ENDCHAR

STARTCHAR jisx0212_3023
ENCODING 12323
SWIDTH 960 0
DWIDTH 24 0
BBX 24 24 0 -2
BITMAP
000006
00000F
7FFFFF
7FFFFF
001C00
001C00
001C00
001C00
001C00
001C00
001C00
001C00
001C00
001C00
001C00
001C00
001C00
001C00
001C00
001C00
001C00
001C00
001C00
001C00
ENDCHAR

STARTCHAR jisx0212_3024
ENCODING 12324
SWIDTH 960 0
DWIDTH 24 0
BBX 24 24 0 -2
BITMAP
000006
00000F
7FFFFF
7FFFFF
01C1C0
01C1C0
01C1C0
01C1C0
01C1C0
01C1C0
01C1C0
01C1C0
03C1C0
03C1C0
0381C0
0381C0
0781C0
0701C0
0F01C0
1E01C0
3C01C0
7801C0
F001C0
E001C0
ENDCHAR

STARTCHAR jisx0212_3025
ENCODING 12325
SWIDTH 960 0
DWIDTH 24 0
BBX 24 24 0 -2
BITMAP
00003C
3FFFFE
3FFFFE
00001E
000F9C
000F9C
0E1E1C
0F9E1C
07FC1C
01FC1C
00F81C
007E1C
00FF1C
01EF9C
03C79C
0787BC
0F033C
1E04F8
3C07F8
3800F6
0000CF
FFFF3F
FFFFFF
000000
ENDCHAR

STARTCHAR jisx0212_3026
ENCODING 12326
SWIDTH 960 0
DWIDTH 24 0
BBX 24 24 0 -2
BITMAP
00001E
7FFFFF
7FFFFF
001C00
001C30
001C78
1FFFFC
1FFFFC
001C00
001C06
001C0F
FFFFFF
FFFFFF
007800
00F380
00F3C0
01E1F0
01C0F8
03C07C
0387BE
7F7FFF
7FFE0F
3FC00F
300006
ENDCHAR

STARTCHAR jisx0212_3027
ENCODING 12327
SWIDTH 960 0
DWIDTH 24 0
BBX 24 24 0 -2
BITMAP
00000F
FFFFFF
FFFFFF
00E700
00E700
30E70C
38E71E
3FE7FF
3FE7FF
38E70F
38E70E
38E70E
38E70E
3FE7FE
3FE7FE
38E70E
39E70E
01E700
03C700
07C700
0F8700
3F0700
FC0700
F00700
ENDCHAR

STARTCHAR jisx0212_3028
ENCODING 12328
SWIDTH 960 0
DWIDTH 24 0
BBX 24 24 0 -2
BITMAP
00000F
FFFFFF
FFFFFF
01C380
61C386
71C38F
7FFFFF
7FFFFF
71C387
73E387
73F7C7
7377E7
77B6F7
773F77
7F2E77
6E1E37
7C3C37
787837
707007
700007
7000FF
7000FF
70001E
70000C
ENDCHAR

STARTCHAR jisx0212_3029
ENCODING 12329
SWIDTH 960 0
DWIDTH 24 0
BBX 24 24 0 -2
BITMAP
001F00
001F00
001C00
001C00
001C00
001C00
001C00
001C00
001C00
001C00
001C00
001C00
001C00
001C00
001C00
001C00
001C00
001C00
001C00
001C00
001C00
001C00
001C00
001C00
ENDCHAR

STARTCHAR jisx0212_302A
ENCODING 12330
SWIDTH 960 0
DWIDTH 24 0
BBX 24 24 0 -2
BITMAP
0700F8
07C1F8
03E1E0
01F3C0
00F780
00F700
006E00
001D00
001F00
001C00
001C00
001C00
001C00
001C00
001C00
001C00
001C00
001C00
001C00
001C00
001C00
001C00
001C00
001C00
ENDCHAR

STARTCHAR jisx0212_302B
ENCODING 12331
SWIDTH 960 0
DWIDTH 24 0
BBX 24 24 0 -2
BITMAP
000078
FFFFFC
FFFFFC
00003C
01F038
01F038
01C638
01CF38
3FFFB8
3FFFB8
01C038
01C038
01C338
01C7BC
7FFFFC
7FFFDC
01C01D
01C01D
01C01D
01C00F
01C00F
01C007
01C007
01C003
ENDCHAR

STARTCHAR jisx0212_302C
ENCODING 12332
SWIDTH 960 0
DWIDTH 24 0
BBX 24 24 0 -2
BITMAP
001F00
001F38
001CFE
001FFE
01FFF0
3FFF00
3FDC00
001C38
001DFE
001FFE
01FFF0
3FFF00
3FDC00
001C0E
001CFF
001FFF
03FFFC
FFFF80
FF9C00
001C00
001C00
001C00
001C00
001C00
ENDCHAR

STARTCHAR jisx0212_302D
ENCODING 12333
SWIDTH 960 0
DWIDTH 24 0
BBX 24 24 0 -2
BITMAP
001F00
001F00
001C0C
001C1E
7FFFFF
7FFFFF
001C00
001C00
001C18
001C3C
3FFFFE
3FFFFE
001C00
001C00
001C06
001C0F
FFFFFF
FFFFFF
001C00
001C00
001C00
001C00
001C00
001C00
ENDCHAR

STARTCHAR jisx0212_302E
ENCODING 12334
SWIDTH 960 0
DWIDTH 24 0
BBX 24 24 0 -2
BITMAP
067760
077778
077778
077770
077770
077777
FFFFFF
FFFFFF
0381E0
01E1C0
01E3D8
00E3BC
3FDF7E
3FFFFE
001C00
001C06
001C0F
FFFFFF
FFFFFF
001C00
001C00
001C00
001C00
001C00
ENDCHAR

STARTCHAR jisx0212_302F
ENCODING 12335
SWIDTH 960 0
DWIDTH 24 0
BBX 24 24 0 -2
BITMAP
000000
030000
030000
070000
078000
0D8000
0D8000
1DC000
3DC000
3CE000
1CF000
0C7000
007800
003C00
003E00
001F80
000FC0
0007F0
0003FC
0000FF
00007F
00001F
000006
000000
ENDCHAR

STARTCHAR jisx0212_3030
ENCODING 12336
SWIDTH 960 0
DWIDTH 24 0
BBX 24 24 0 -2
BITMAP
000780
0FFFC0
0FFFC0
000380
000300
000300
000300
000380
000380
000380
0001C0
0001C0
0001E0
0001E0
0000F0
0000F8
000078
00007C
00003E
00003F
00001F
00000F
000006
000000
ENDCHAR

STARTCHAR jisx0212_3031
ENCODING 12337
SWIDTH 960 0
DWIDTH 24 0
BBX 24 24 0 -2
BITMAP
0001F0
0001F0
0001C0
0003C0
0003C0
0E0380
0F8780
07F780
01FF00
007F00
001E80
000FC0
003FF0
003DF8
0078FC
30F87C
31F03C
33E018
37C000
3F8000
7F0000
7E0000
780000
000000
ENDCHAR

STARTCHAR jisx0212_3032
ENCODING 12338
SWIDTH 960 0
DWIDTH 24 0
BBX 24 24 0 -2
BITMAP
0001F8
000FFC
00FFFC
0FFFC0
FFFC00
FE7000
007000
007000
007006
00700F
007FFF
FFEFFF
FFFC00
007000
007000
007000
007003
007003
007007
007007
00780E
007FFF
003FFF
001FFF
ENDCHAR

STARTCHAR jisx0212_3033
ENCODING 12339
SWIDTH 960 0
DWIDTH 24 0
BBX 24 24 0 -2
BITMAP
0007F0
00FFF8
3FFFF8
3FFC00
001C00
031C1C
07DC3F
07DC7F
0F9EFC
1F1FF0
3E1DE0
7C1F80
F19B00
E3DFC0
03DDE0
07DDF0
0F9CFC
1F1C7E
3E1C3F
7C1C1F
F01C0F
E01C06
001C00
001C00
ENDCHAR

STARTCHAR jisx0212_3034
ENCODING 12340
SWIDTH 960 0
DWIDTH 24 0
BBX 24 24 0 -2
BITMAP
1F0000
1F0000
1C0000
1C0000
1C0000
1C0000
1C0000
1C0000
1C0000
1C0000
1C0000
1C0000
1C0000
1C0000
1C0000
1C000C
1C000C
1C001C
1C001C
1E0038
1FFFFE
0FFFFE
07FFFC
000000
ENDCHAR

STARTCHAR jisx0212_3035
ENCODING 12341
SWIDTH 960 0
DWIDTH 24 0
BBX 24 24 0 -2
BITMAP
07C000
07C000
070000
070030
070078
0701FC
070FFC
077FBC
07FC38
3FE038
FF0038
F70038
070078
070078
070070
0707F0
0707F3
0701E3
070187
070007
07800E
07FFFF
03FFFF
01FFFF
ENDCHAR

STARTCHAR jisx0212_3036
ENCODING 12342
SWIDTH 960 0
DWIDTH 24 0
BBX 24 24 0 -2
BITMAP
03E7C0
03E7C0
078700
078700
070700
0F0700
CE0700
DEE700
FCF700
79F700
3DE700
3DC700
1FC700
1B8700
078700
074700
0EE703
0EF703
1E7707
1DF707
FBF70E
FF37FF
7837FF
6033FF
ENDCHAR

STARTCHAR jisx0212_3037
ENCODING 12343
SWIDTH 960 0
DWIDTH 24 0
BBX 24 24 0 -2
BITMAP
07C1F0
07C1F0
0F01C0
0F01C0
0EE1C0
1EF1C0
1C79C0
1DBDC0
FBFDC0
FF9DC0
7C0DC0
603DC0
3871C0
3FFDC0
3FFDC0
383DC0
3839C3
3839C3
3839C3
3839C7
3FF9C7
3FF9FF
3839FF
3838FF
ENDCHAR

STARTCHAR jisx0212_3038
ENCODING 12344
SWIDTH 960 0
DWIDTH 24 0
BBX 24 24 0 -2
BITMAP
07C1F0
07C1F0
0701C0
0719C0
073DC0
07FDC0
07FDC0
0701C0
0701C0
0701C0
6731C0
7779C0
7FFDC0
7FFDC0
703DC0
7039C0
7039C3
7039C3
7039C3
7039C7
7FF9C7
7FF9FF
7039FF
7038FF
ENDCHAR

STARTCHAR jisx0212_3039
ENCODING 12345
SWIDTH 960 0
DWIDTH 24 0
BBX 24 24 0 -2
BITMAP
0F1CFF
0EDFFF
FFFFF0
FFFC0F
0E1FFF
0FDFFF
FDDC70
FF9C70
7E3C70
6E3870
0E7870
7EF070
7FEC70
1DDE70
623F00
7FFF00
003C03
00F803
01F007
03E007
07C00E
07BFFF
07FFFF
03FFFF
ENDCHAR

STARTCHAR jisx0212_303A
ENCODING 12346
SWIDTH 960 0
DWIDTH 24 0
BBX 24 24 0 -2
BITMAP
0783E0
0783E0
077380
7FFB80
7FFB80
31E380
39C380
1BC380
1BB380
1BFB80
FF7B80
FFFB80
070380
070380
077380
7FFB80
7FFB83
070383
070387
070387
07038E
0703FF
0703FF
0701FF
ENDCHAR

STARTCHAR jisx0212_303B
ENCODING 12347
SWIDTH 960 0
DWIDTH 24 0
BBX 24 24 0 -2
BITMAP
0783E0
073BE0
FFFB80
FFFB80
070380
677380
7FFB80
7FFB80
707B80
7FF380
7FF380
707380
707380
7FF380
7FF380
777380
070B83
FFFB83
FFFB87
070387
07038E
0703FF
0703FF
0701FF
ENDCHAR

STARTCHAR jisx0212_303C
ENCODING 12348
SWIDTH 960 0
DWIDTH 24 0
BBX 24 24 0 -2
BITMAP
31FDF0
3FFDF0
3FC1C0
3BBDC0
79DDC0
75CDC0
F78DC0
EFC1C0
CEF1C0
7FF1C0
3DE1C0
1FD1C0
1B79C0
E7BDC0
FFFDC0
7B9DC0
63F9C3
3B71C3
3BBDC3
7BBDC7
739DC7
F39DFF
E399FF
C380FF
ENDCHAR

STARTCHAR jisx0212_303D
ENCODING 12349
SWIDTH 960 0
DWIDTH 24 0
BBX 24 24 0 -2
BITMAP
00003C
3FFFFE
3FFFFE
000000
000000
000000
000006
00000F
FFFFFF
FFFFFF
001C00
001C00
001C00
001C00
001C00
001C00
001C00
001C00
001C00
001C00
03FC00
03FC00
007800
003000
ENDCHAR

STARTCHAR jisx0212_303E
ENCODING 12350
SWIDTH 960 0
DWIDTH 24 0
BBX 24 24 0 -2
BITMAP
000078
1FFFFC
1FFFFC
000000
000000
000000
00000C
00001E
7FFFFF
7FFFFF
000000
000000
000030
000078
1FFFFC
1FFFFC
000000
000000
000000
000006
00000F
FFFFFF
FFFFFF
000000
ENDCHAR

STARTCHAR jisx0212_303F
ENCODING 12351
SWIDTH 960 0
DWIDTH 24 0
BBX 24 24 0 -2
BITMAP
001F00
381F0E
3E1C0F
3E1C0F
381C0E
381C0E
381C0E
381C0E
3FFFFE
3FFFFE
38000E
38000E
000030
000078
1FFFFC
1FFFFC
000000
000000
000000
000006
00000F
FFFFFF
FFFFFF
000000
ENDCHAR

STARTCHAR jisx0212_3040
ENCODING 12352
SWIDTH 960 0
DWIDTH 24 0
BBX 24 24 0 -2
BITMAP
003E00
007E00
007980
00F3E0
01E1F0
3FDEF8
3FFFFC
1FF03C
1600DC
0F81F0
0F01EC
1EC3DE
1DE38F
FAEF77
FFFFFF
7C77C3
60663B
1F99FC
1FFFFC
000000
00001E
7FFFFF
7FFFFF
000000
ENDCHAR

STARTCHAR jisx0212_3041
ENCODING 12353
SWIDTH 960 0
DWIDTH 24 0
BBX 24 24 0 -2
BITMAP
001E06
001C0F
FFFFFF
FFFFFF
000000
0FFFFC
0FFFFC
0E0038
0E0038
0FFFF8
0FFFF8
3E003C
30000E
3FFFFF
3FFFFF
38000F
38000E
3FFFFE
3FFFFE
38000E
38000E
3FFFFE
3FFFFE
38000E
ENDCHAR

STARTCHAR jisx0212_3042
ENCODING 12354
SWIDTH 960 0
DWIDTH 24 0
BBX 24 24 0 -2
BITMAP
001E07
FFFDFF
FFFFFF
030000
1FFFFE
1EC37E
1CBB9C
1EC37C
1CBB9C
1EAB7C
1CFB9F
3FC7FB
7FFFFF
F00003
F7FFF7
E7FFF6
070070
07FFF0
070070
07FFF3
070077
FFFFFF
FFFFFF
000000
ENDCHAR

STARTCHAR jisx0212_3043
ENCODING 12355
SWIDTH 960 0
DWIDTH 24 0
BBX 24 24 0 -2
BITMAP
0F8006
0F800F
0E7FFF
1DFFFF
1E01C0
1C01C0
3C01C0
3C01C0
3C01C0
7C01C0
7C01C0
DC01C0
DC01C0
DC01C0
1C01C0
1C01C0
1C01C0
1C01C0
1C01C0
1C01C0
1C3FC0
1C3FC0
1C0780
1C0300
ENDCHAR

STARTCHAR jisx0212_3044
ENCODING 12356
SWIDTH 960 0
DWIDTH 24 0
BBX 24 24 0 -2
BITMAP
003E00
007E00
00FC00
00EF00
01E780
03C3E0
0781F8
0F1CFE
3E1F7F
7C1F3F
F01C0F
E01C06
001C08
001C1E
7FFFFF
7FFFFF
001C00
001C00
001C00
001C00
001C00
001C00
001C00
001C00
ENDCHAR

STARTCHAR jisx0212_3045
ENCODING 12357
SWIDTH 960 0
DWIDTH 24 0
BBX 24 24 0 -2
BITMAP
003E00
007E00
00FC00
00EF00
01E780
03C3E0
0781F8
0F00FE
3E1C7F
7C1F3F
F01F0F
E01C06
1C1C18
1F1C1F
1F1C1F
1C1C1C
1C1C1C
1C1C1C
1C1C1C
1C1C1C
1FFFFC
1FFFFC
1C001C
1C001C
ENDCHAR

STARTCHAR jisx0212_3046
ENCODING 12358
SWIDTH 960 0
DWIDTH 24 0
BBX 24 24 0 -2
BITMAP
0F807C
0F83FE
0E1FFE
1FFFE0
1DFE00
1C0E00
3C0E00
3C0E00
3C0E06
7C0E0F
7C0FFF
DFFFFF
DBFE00
DC0E00
1C0E00
1C0E03
1C0E03
1C0E07
1C0E07
1C0E0E
1C0FFF
1C0FFF
1C07FF
1C0000
ENDCHAR

STARTCHAR jisx0212_3047
ENCODING 12359
SWIDTH 960 0
DWIDTH 24 0
BBX 24 24 0 -2
BITMAP
0F801E
0FFFFF
0EFFFF
1E0380
1E0380
1C0380
3C0380
3C0380
3C0386
7C038F
7DFFFF
DDFFFF
DC0380
DC0380
1C0380
1C0380
1C0380
1C0380
1C0380
1C0380
1C0380
1C0380
1C0380
1C0380
ENDCHAR

STARTCHAR jisx0212_3048
ENCODING 12360
SWIDTH 960 0
DWIDTH 24 0
BBX 24 24 0 -2
BITMAP
0F9F00
0F9F00
0E3C06
1E3C0F
1E7BFF
1C7FFF
3CF000
3DE0C0
3FC1E0
7BBFF0
7EFFF0
DC01C0
DC07C0
DC0780
1C0F00
1C1F00
1C1E03
1C3C03
1C3C07
1C7807
1C780E
1C77FF
1C7FFF
1C3FFF
ENDCHAR

STARTCHAR jisx0212_3049
ENCODING 12361
SWIDTH 960 0
DWIDTH 24 0
BBX 24 24 0 -2
BITMAP
0F9F00
0F9F00
0E3C06
1E3C0F
1E3BFF
1C7FFF
3C7007
3CF007
3CE007
7DFC07
7FDE07
DB8F07
DF0787
DC07C7
1C03C7
1C03C7
1C0187
1C000F
1C000F
1C001E
1C03FE
1C03FC
1C0078
1C0060
ENDCHAR

STARTCHAR jisx0212_304A
ENCODING 12362
SWIDTH 960 0
DWIDTH 24 0
BBX 24 24 0 -2
BITMAP
07C000
07C00C
0F001E
0FFFFF
0DFFFF
1E0000
1E0000
3C0000
3C0000
7C0018
7C003C
FCFFFE
DCFFFE
DC0000
1C0000
1C0000
1C0000
1C0000
1C0006
1C000F
1FFFFF
1BFFFF
1C0000
1C0000
ENDCHAR

STARTCHAR jisx0212_304B
ENCODING 12363
SWIDTH 960 0
DWIDTH 24 0
BBX 24 24 0 -2
BITMAP
07C3E0
07C3E0
0F0380
0F0380
0E73F0
1E7B78
1E7BBC
3C739E
3CF38F
7CF387
7CE387
FDE39B
DDC39F
DFC3BF
1BBFBC
1F3FF8
1C0778
1C06F0
1C01E0
1C0FC0
1C3F80
1CFE00
1FF800
1BC000
ENDCHAR

STARTCHAR jisx0212_304C
ENCODING 12364
SWIDTH 960 0
DWIDTH 24 0
BBX 24 24 0 -2
BITMAP
07C7C0
07CF80
0F0FC0
0F1EE0
0E3EF0
1E3C78
1E787C
3CF03F
3DE0DF
7FDFEF
7BBFF7
FF0003
DC001C
DDFFFE
1DFFFE
1C001C
1C003C
1C0078
1C0078
1C00F0
1C00F0
1C01E0
1C01E0
1C01C0
ENDCHAR

STARTCHAR jisx0212_304D
ENCODING 12365
SWIDTH 960 0
DWIDTH 24 0
BBX 24 24 0 -2
BITMAP
0F7CF8
0F7CF8
0E70E0
1E70E0
1E70E3
1C70E7
3C70EF
3C76FF
3C7FDE
7C7FF8
7C70E0
DC70E0
DC70E0
DC70E0
1C70E0
1C70E0
1C70E3
1C70E3
1C76E3
1C7EE7
1FFEE7
1BF8FF
1DE0FF
1D807F
ENDCHAR

STARTCHAR jisx0212_304E
ENCODING 12366
SWIDTH 960 0
DWIDTH 24 0
BBX 24 24 0 -2
BITMAP
0FBE00
0FBE0C
0E781E
1E7FFF
1E7FFF
1CF380
3CE380
3DE380
3FC380
7B8380
7F0386
DC038F
DFFFFF
DBFFFF
1C0380
1C0380
1C0380
1C0380
1C0380
1C0380
1C0380
1C0380
1C0380
1C0380
ENDCHAR

STARTCHAR jisx0212_304F
ENCODING 12367
SWIDTH 960 0
DWIDTH 24 0
BBX 24 24 0 -2
BITMAP
0FBFF0
0FBFF0
0E00C0
1E3CE0
1E7C70
1C7878
3CF03C
3CF01F
3DE01F
7FC02F
7BBFF7
DF7FFB
DC1C38
DC1C38
1C1C38
1C3C38
1C3C38
1C3838
1C7878
1C7078
1CF7F0
1DE7F0
1FC1E0
1B8180
ENDCHAR

STARTCHAR jisx0212_3050
ENCODING 12368
SWIDTH 960 0
DWIDTH 24 0
BBX 24 24 0 -2
BITMAP
0F000F
0EFFFF
0DFFFF
1E3800
1E3800
1C3830
3C3878
3C7FFC
3C7FFC
7C703C
7C7038
DC7038
DCF078
DCF078
1CEFF0
1CFFF0
1CE070
1CE0F0
1C00F0
1C00E3
1C00E7
1FFFFF
1BFFFF
1C0000
ENDCHAR

STARTCHAR jisx0212_3051
ENCODING 12369
SWIDTH 960 0
DWIDTH 24 0
BBX 24 24 0 -2
BITMAP
0F87C0
0F87C0
0E0706
1E070F
1FFFFF
1BFFFF
3C1C00
3C1F00
3C1C18
7C1C3C
7C1FFE
DC1FFE
DC1C1E
DC3C1C
1C3C1C
1C381C
1C381C
1C781C
1C701C
1CF03C
1DE7FC
1FC7F8
1B80F0
1E00C0
ENDCHAR

STARTCHAR jisx0212_3052
ENCODING 12370
SWIDTH 960 0
DWIDTH 24 0
BBX 24 24 0 -2
BITMAP
0F8FF8
0F8FF8
0E7060
1E7C70
1E7C70
1CF038
3CF03C
3CE03E
3DEE1F
7DCF9F
7FCF8F
DB8E06
DF1E00
DC1E00
1C1C70
1C1C78
1C3C3C
1C381E
1C39EF
1FF7FF
1BFFC7
1DFC07
1D8003
1C0000
ENDCHAR

STARTCHAR jisx0212_3053
ENCODING 12371
SWIDTH 960 0
DWIDTH 24 0
BBX 24 24 0 -2
BITMAP
0F83E0
0F83E0
0E0386
1E038F
1FFFFF
1BFFFF
3C0380
3CC38C
3CE39E
7CFFFF
7CFFFF
DCE38F
DCE38E
DCE38E
1CE38E
1CE38E
1CE38E
1CE3FE
1CE37E
1CE39C
1CE398
1C0380
1C0380
1C0380
ENDCHAR

STARTCHAR jisx0212_3054
ENCODING 12372
SWIDTH 960 0
DWIDTH 24 0
BBX 24 24 0 -2
BITMAP
0F801C
0FFFFE
0EFFFF
1E003F
1E38FC
1C3DF0
3C1FE0
3C0F80
3C0787
7FFBFF
7BFFFF
DC0387
DC038F
DC039E
1C039C
1C0398
1C0380
1C0380
1C0380
1C0380
1C7F80
1C7F80
1C0F00
1C0600
ENDCHAR

STARTCHAR jisx0212_3055
ENCODING 12373
SWIDTH 960 0
DWIDTH 24 0
BBX 24 24 0 -2
BITMAP
0F8FC0
0F87E0
0E01F0
1E00F0
1E1C70
1C1F00
3C1F00
3C1C00
3C1C00
7C1C18
7CDC1C
DCDC1E
DCDC0F
DDDC0F
1DDC07
1FDC37
1BDC33
1F9C33
1F9C73
1B1C70
1C1FF8
1C1FF8
1C0FF0
1C0000
ENDCHAR

STARTCHAR jisx0212_3056
ENCODING 12374
SWIDTH 960 0
DWIDTH 24 0
BBX 24 24 0 -2
BITMAP
0FFFF8
0DFFF8
0E3878
1E3870
1E3870
1C38F0
3C38F0
3C38EC
3C3FDE
7C7FFE
7C761E
DC763C
DC773C
DC7778
1CF378
1CE3F0
1CE1F0
1DE3E0
1DC7F8
1FDF7E
1BBE3F
1F7C1F
1EF00F
1DC006
ENDCHAR

STARTCHAR jisx0212_3057
ENCODING 12375
SWIDTH 960 0
DWIDTH 24 0
BBX 24 24 0 -2
BITMAP
0EE00F
0EFFFF
0EFFFF
1EE000
1EE000
1CEC18
3CEE3C
3CEFFE
3CEFFE
7CEE1E
7CEE1C
DCEE1C
DCEE1C
DCEE1C
1CEEFC
1DEEFC
1DEE3B
1DCE33
1DCE07
1FCE07
1B8FFF
1B8FFF
1F07FF
1E0000
ENDCHAR

STARTCHAR jisx0212_3058
ENCODING 12376
SWIDTH 960 0
DWIDTH 24 0
BBX 24 24 0 -2
BITMAP
0FB03E
0FB9FF
0E3FFF
1E3FE0
1E3800
1C3800
3C3806
3C380F
3C3FFF
7C3FFF
7C3838
DC3838
DC3838
DC3838
1C3838
1C7838
1C7838
1C7038
1C7038
1CF038
1CE038
1DE038
1FC038
1B8038
ENDCHAR

STARTCHAR jisx0212_3059
ENCODING 12377
SWIDTH 960 0
DWIDTH 24 0
BBX 24 24 0 -2
BITMAP
0F87C0
0F87C0
0E0700
1E070C
1E071E
1DFFFF
3DFFFF
3C0700
3C0700
7C0706
7C070F
DFFFFF
DBFFFF
DC0700
1C0F80
1C0DC0
1C1DE0
1C1CF0
1C3CF8
1C787E
1CF03F
1FE01F
1BC00F
1F0006
ENDCHAR

STARTCHAR jisx0212_305A
ENCODING 12378
SWIDTH 960 0
DWIDTH 24 0
BBX 24 24 0 -2
BITMAP
0F9F00
0F9F00
0E1C06
1E1C0F
1FFFFF
1BFFFF
3C1C00
3C1C00
3C1C38
7C1FFC
7C3FFE
DC3C3E
DC3E38
DC3778
1C7F78
1C7BF0
1C73F0
1CF1E0
1CE3F0
1DE7FC
1FDF7F
1BBE3F
1F781F
1DE006
ENDCHAR

STARTCHAR jisx0212_305B
ENCODING 12379
SWIDTH 960 0
DWIDTH 24 0
BBX 24 24 0 -2
BITMAP
003E00
007E00
00FC00
00EF00
01E780
03C3E0
0781F8
0F00FE
3E007F
7D83BF
F3E3CF
E3E3E6
038380
038380
0783C0
07C7C0
07E7E0
0EF6F0
0E7F78
1E6E7C
3C7E3F
781C1F
F1F80F
E1E006
ENDCHAR

STARTCHAR jisx0212_305C
ENCODING 12380
SWIDTH 960 0
DWIDTH 24 0
BBX 24 24 0 -2
BITMAP
0F87C0
0F87C0
0E0700
1E0700
1E070E
1C670F
3C671F
3C671E
3CE73C
7CE778
7DE7F0
DDEEE0
DDCF80
DDCD80
1C1DC0
1C1DC0
1C3CE0
1C3CF0
1C7878
1CF07E
1DE03F
1FC01F
1B800F
1E0006
ENDCHAR

STARTCHAR jisx0212_305D
ENCODING 12381
SWIDTH 960 0
DWIDTH 24 0
BBX 24 24 0 -2
BITMAP
0F7C00
0F7C0E
0E73FF
1E77FF
1EF98F
1DEF8E
3BFF8E
3CEDCE
3CEFCE
7DEEDE
7DEEDE
DDDEDC
DDDEDC
DDDC7C
1FDC7C
1BFC38
1BB87C
1FFEFC
1C6FDE
1CEDDF
1DE38F
1FDF0F
1BBE07
1B3803
ENDCHAR

STARTCHAR jisx0212_305E
ENCODING 12382
SWIDTH 960 0
DWIDTH 24 0
BBX 24 24 0 -2
BITMAP
0F87C0
0F8F80
0E0FC0
1E1EE0
1E3EF0
1C3C78
3C787C
3CF33F
3DE3DF
7FC3CF
7BA387
DF7BB3
DC7BB8
DC73BC
1CF39E
1CF38F
1CE38F
1DE387
1DC387
1FC387
1BBF83
1F3F80
1C0F00
1C0600
ENDCHAR

STARTCHAR jisx0212_305F
ENCODING 12383
SWIDTH 960 0
DWIDTH 24 0
BBX 24 24 0 -2
BITMAP
0FBE00
0FBE00
0E7800
1E7807
1E77FF
1CFFFF
3CE387
3DE38E
3DC39C
7FF398
7B7BA0
DF7BB8
DC73BC
DCF39E
1CF38F
1CE38F
1DE387
1DC387
1FC387
1B8383
1F7F80
1C7F80
1C0F00
1C0600
ENDCHAR

STARTCHAR jisx0212_3060
ENCODING 12384
SWIDTH 960 0
DWIDTH 24 0
BBX 24 24 0 -2
BITMAP
0FC7BC
0EF7BC
0EF738
1EE738
1EE738
1CE73B
3CE73F
3FFFF7
3BFFFF
7CE738
7CE738
DCE738
DCE738
DCE738
1CE738
1CE7F8
1CE7F8
1CE738
1CE738
1CE003
1CE007
1CFFFF
1CFFFF
1CE000
ENDCHAR

STARTCHAR jisx0212_3061
ENCODING 12385
SWIDTH 960 0
DWIDTH 24 0
BBX 24 24 0 -2
BITMAP
0EC006
0EE00F
0EFFFF
1EFFFF
1EEEE7
1CEEE7
3CEEE7
3CEEE7
3CEEE7
7CEEE7
7CEEE7
DCEEE7
DCEEE7
DCFEFF
1CDCFF
1CFC7F
1CF807
1CF007
1CE007
1CE007
1CFFFF
1CFFFF
1CE007
1CE007
ENDCHAR

STARTCHAR jisx0212_3062
ENCODING 12386
SWIDTH 960 0
DWIDTH 24 0
BBX 24 24 0 -2
BITMAP
0F83E0
0F83E0
0E0380
1E0380
1EC386
1CE38F
3CFFFF
3CFFFF
3CE387
7CE387
7CE387
DCE387
DCE387
DCFFFF
1CFFFF
1CE387
1CE387
1CE387
1CE387
1CE387
1CFFFF
1CFFFF
1CE007
1CE007
ENDCHAR

STARTCHAR jisx0212_3063
ENCODING 12387
SWIDTH 960 0
DWIDTH 24 0
BBX 24 24 0 -2
BITMAP
0F703C
0F7FFE
0E7FFE
1E701E
1E701C
1C701C
3C701C
3C7FFC
3C7FFC
7C701C
7C701C
DC701C
DC701C
DC701C
1C7FFC
1C7FFC
1C701C
1C701C
1C701C
1C701C
1C701F
1FFFFB
1BFFFF
1C0000
ENDCHAR

STARTCHAR jisx0212_3064
ENCODING 12388
SWIDTH 960 0
DWIDTH 24 0
BBX 24 24 0 -2
BITMAP
0F801E
0FFFFF
0EFFFF
1E0380
1E7BB8
1C7BBC
3C739E
3C739F
3CF38F
7CE38F
7CE387
DDC386
DDC380
DD838F
1E7FFF
1BFFFF
1C0380
1C0380
1C0380
1C0380
1C0380
1C0380
1C0380
1C0380
ENDCHAR

STARTCHAR jisx0212_3065
ENCODING 12389
SWIDTH 960 0
DWIDTH 24 0
BBX 24 24 0 -2
BITMAP
0F000F
0EFFFF
0DFFFF
1E0380
1E07E0
1C0780
3C0F40
3C0FC0
3C1FB0
7C3F7C
7C3BBE
DC7B9F
DCF38F
DDE387
1FC387
1B8383
1C0380
1C0380
1C0380
1C0386
1C038F
1FFC7F
1BFFFF
1C0000
ENDCHAR

STARTCHAR jisx0212_3066
ENCODING 12390
SWIDTH 960 0
DWIDTH 24 0
BBX 24 24 0 -2
BITMAP
0F701E
0F7FFF
0E7FFF
1E700F
1E700E
1C700E
3C700E
3C7FFE
3C7FFE
7C700E
7C700E
DC7000
DC700F
DC7FFF
1C7FFF
1C7007
1C7007
1C7007
1C7007
1C7007
1C7FFF
1C7FFF
1C7007
1C7007
ENDCHAR

STARTCHAR jisx0212_3067
ENCODING 12391
SWIDTH 960 0
DWIDTH 24 0
BBX 24 24 0 -2
BITMAP
0F000F
0EFFFF
0DFFFF
1E0380
1E0380
1C0380
3C0380
3C6380
3C7B8C
7C7B9E
7C73FF
DC73FF
DC7380
DC7380
1C7380
1C7380
1C7380
1C7380
1C7380
1C7386
1C738F
1FFFFF
1BFFFF
1C0000
ENDCHAR

STARTCHAR jisx0212_3068
ENCODING 12392
SWIDTH 960 0
DWIDTH 24 0
BBX 24 24 0 -2
BITMAP
0F8F80
0F8F80
0E1E06
1E1E0F
1FFDFF
1BFFFF
3C3C00
3C7BC0
3C7BCC
7CF39E
7CFFFF
DDFFFF
DFF38F
DB738E
1F738E
1E738E
1C738E
1C738E
1C73FE
1C737E
1C739C
1C7398
1C0380
1C0380
ENDCHAR

STARTCHAR jisx0212_3069
ENCODING 12393
SWIDTH 960 0
DWIDTH 24 0
BBX 24 24 0 -2
BITMAP
0F87C0
0F87C0
0E070C
1E071E
1FFFFF
1DFFFF
3C0700
3C0700
3C0706
7C070F
7FFFFF
DBFFFF
DC0E00
DC1F80
1C1E70
1C1C78
1C3C3C
1C381E
1C781F
1C71EF
1FEFFF
1BFFC7
1DF807
1D8003
ENDCHAR

STARTCHAR jisx0212_306A
ENCODING 12394
SWIDTH 960 0
DWIDTH 24 0
BBX 24 24 0 -2
BITMAP
0F800F
0FFFFF
0EFFFF
1E0E07
1E0E07
1C0E07
3C1E07
3C1E0F
3C3C0F
7C7DFE
7CF9FE
DDF03C
DFE033
DB7FCF
1C7FFF
1C7007
1C7007
1C7007
1C7007
1C7007
1C7FFF
1C7FFF
1C7007
1C7007
ENDCHAR

STARTCHAR jisx0212_306B
ENCODING 12395
SWIDTH 960 0
DWIDTH 24 0
BBX 24 24 0 -2
BITMAP
0F9F7C
0F9F7C
0E1C70
1E1C70
1E1C73
1D9C77
3DDC77
3DDF7F
3DDBEE
7DDFFC
7DDC78
DDDC70
DDDC70
DDDC70
1DDC70
1DDC70
1DDC73
1DDC73
1DDF77
1DDB77
1FFE7F
1BF87F
1DE03F
1D8000
ENDCHAR

STARTCHAR jisx0212_306C
ENCODING 12396
SWIDTH 960 0
DWIDTH 24 0
BBX 24 24 0 -2
BITMAP
0F87C0
0F87C0
0E4718
1EE73C
1EFFFE
1CFFFE
3CE71E
3CE71C
3CE71C
7CE71C
7CE71C
DCE71C
DCE71F
DFFFFB
1BFFFF
1C0D80
1C1DE0
1C1CF0
1C3CF8
1C787E
1CF03F
1FE01F
1BC00F
1F0006
ENDCHAR

STARTCHAR jisx0212_306D
ENCODING 12397
SWIDTH 960 0
DWIDTH 24 0
BBX 24 24 0 -2
BITMAP
07C3E0
07C3E0
0F0380
0F0386
0E038F
1E03FF
1E03FF
3C0380
3C0380
7C0380
7CC38C
FCE39E
DCFFFF
DCFFFF
1CE00F
1CE00E
1CE00E
1CE00E
1CE00E
1CE00E
1CFFFE
1CFFFE
1CE00E
1CE00E
ENDCHAR

STARTCHAR jisx0212_306E
ENCODING 12398
SWIDTH 960 0
DWIDTH 24 0
BBX 24 24 0 -2
BITMAP
0FBE00
0F9F00
0E0FB8
1E07BE
1E1BBE
1C1C78
3C1E78
3C1CF0
3C1CF0
7CDDE8
7CDDDC
DCDFDE
DDDBCF
DDDF8F
1FDF07
1BDF07
1B9E1B
1FBC1B
1C7C3B
1CFC38
1DDFFC
1FDFFC
1B8FF8
1E0000
ENDCHAR

STARTCHAR jisx0212_306F
ENCODING 12399
SWIDTH 960 0
DWIDTH 24 0
BBX 24 24 0 -2
BITMAP
003E00
007C00
00F700
01F780
03E3E0
07C1F8
0F80FE
1F017F
7CFFBF
F7FFEF
E00006
00001C
7FFFFF
7FFFFF
001C00
07DDE0
0FDCF8
0F1C7C
1E1C3E
3C1C1F
7BFC0F
F3FC0F
E07806
003000
ENDCHAR

STARTCHAR jisx0212_3070
ENCODING 12400
SWIDTH 960 0
DWIDTH 24 0
BBX 24 24 0 -2
BITMAP
0F8F80
0F8F80
0E1E38
1E1DFC
1E3FFE
1C383E
3C7C78
3CEEF0
3DEFF0
7FC7E0
7B83C0
DC0FF8
DC3EFE
DC7C7F
1DFB9F
1FEFEF
1B83E3
1C00E0
1C001E
1C03FE
1C7FF8
1C7FC0
1C3E00
1C3000
ENDCHAR

STARTCHAR jisx0212_3071
ENCODING 12401
SWIDTH 960 0
DWIDTH 24 0
BBX 24 24 0 -2
BITMAP
0EE00F
0EFFFF
0EFFFF
1EE387
1EE387
1CE387
3CE387
3CFFFF
3CFFFF
7CE387
7CE387
DCE387
DCE387
DCFFFF
1CFFFF
1CE387
1DE387
1DE387
1DC387
1DC387
1F83BF
1B83BF
1F038E
1E000C
ENDCHAR

STARTCHAR jisx0212_3072
ENCODING 12402
SWIDTH 960 0
DWIDTH 24 0
BBX 24 24 0 -2
BITMAP
0EE00F
0EFFFF
0EFFFF
1EE007
1EE007
1CEC77
3CEFF7
3CEFF7
3CEE77
7CEE77
7CEE77
DCEE77
DCEE77
DCEE77
1CEE77
1CEFF7
1CEFF7
1CEE77
1CEE07
1CE007
1CFFFF
1CFFFF
1CE007
1CE007
ENDCHAR

STARTCHAR jisx0212_3073
ENCODING 12403
SWIDTH 960 0
DWIDTH 24 0
BBX 24 24 0 -2
BITMAP
0F8F80
0F8F8E
0E0E6F
1FFFFF
1DFFFE
1C0E1C
3C0E7B
3C0EF7
3FFFEF
7FFFFF
7C0380
DC1F18
DC1E3E
DC7C7E
1CFDFC
1FDFF0
1BDF83
1F1C03
1C1C07
1C1C07
1C1C0E
1C1FFF
1C1FFF
1C0FFF
ENDCHAR

STARTCHAR jisx0212_3074
ENCODING 12404
SWIDTH 960 0
DWIDTH 24 0
BBX 24 24 0 -2
BITMAP
0F87C0
0F8F80
0E0FC0
1E1EE0
1E3EF0
1C3C78
3C787C
3CF03F
3DE05F
7FDFEF
7B7FF7
DF0003
DCC018
DCE03C
1CFFFE
1CFFFE
1CE01E
1CE01C
1CE01C
1CE01C
1CE01C
1CFFFC
1CFFFC
1CE01C
ENDCHAR

STARTCHAR jisx0212_3075
ENCODING 12405
SWIDTH 960 0
DWIDTH 24 0
BBX 24 24 0 -2
BITMAP
003E00
007C00
00F700
01F780
03E3E0
07C1F8
0F80FE
1F037F
7CFFBF
FBFFCF
E00016
000038
3FFFFE
3FFFFE
001C00
079C78
079FFC
071FFC
071C00
071C06
071C0F
FFFFFF
FFFFFF
000000
ENDCHAR

STARTCHAR jisx0212_3076
ENCODING 12406
SWIDTH 960 0
DWIDTH 24 0
BBX 24 24 0 -2
BITMAP
0F703C
0F7FFE
0E7FFE
1E701E
1E701C
1C7FFC
3C7FFC
3C701C
3C701C
7C701C
7C7FFC
DC7FFE
DC731F
DC7387
1C739F
1C71BE
1C71F8
1C70E0
1C77F8
1C7F7E
1FFE3F
1BF81F
1DE00F
1D8006
ENDCHAR

STARTCHAR jisx0212_3077
ENCODING 12407
SWIDTH 960 0
DWIDTH 24 0
BBX 24 24 0 -2
BITMAP
0F81FE
0F9FFE
0E7FF0
1DFB80
1E0380
1C0386
3C038F
3FFFFF
3BFFFF
7C0380
7C0380
DCC38C
DCE39E
DCFFFF
1CFFFF
1CE00F
1CE00E
1CE00E
1CE00E
1CE00E
1CFFFE
1CFFFE
1CE00E
1CE00E
ENDCHAR

STARTCHAR jisx0212_3078
ENCODING 12408
SWIDTH 960 0
DWIDTH 24 0
BBX 24 24 0 -2
BITMAP
0FBC00
0FB8E0
0E7FF0
1E7FF0
1EF0E6
1CE3CF
3DFFBF
3FFFFF
3BE000
7EEC1C
7CEFFE
DCEFFE
DCEE1C
DCEE1C
1CEE1C
1DEEFC
1DEEFF
1DCE3B
1DCE37
1FCE07
1B8FFF
1B8FFF
1F07FF
1E0000
ENDCHAR

STARTCHAR jisx0212_3079
ENCODING 12409
SWIDTH 960 0
DWIDTH 24 0
BBX 24 24 0 -2
BITMAP
07FF80
06FF80
0F0F00
0F1DC0
0E3DE0
1E7CF8
1E787C
3CF03F
3DE01F
7FC02F
7BBFF7
FEFFFB
DC0700
DC0700
1C071C
1CFFFE
1CFFFE
1C0700
1C0700
1C0706
1C070F
1FFFFF
1BFFFF
1C0000
ENDCHAR

STARTCHAR jisx0212_307A
ENCODING 12410
SWIDTH 960 0
DWIDTH 24 0
BBX 24 24 0 -2
BITMAP
0F83E0
0F83E0
0E0380
1E7780
1FF707
1BF7FF
3C0FFF
3C0DC7
3C1DCF
7C1DCE
7C39DE
DC31DC
DC0DF8
DCFFE0
1FFBF0
1FE370
1B8778
1F073C
1C0F3E
1C1E1F
1C3C1F
1CF80F
1DF007
1DC003
ENDCHAR

STARTCHAR jisx0212_307B
ENCODING 12411
SWIDTH 960 0
DWIDTH 24 0
BBX 24 24 0 -2
BITMAP
0FBFF8
0FBFF8
0E0060
1E3C70
1E7C38
1C783C
3CF01E
3DE03F
3FFFFF
7B7FF7
7F703B
DC7038
DC7FF8
DC7FF8
1C7038
1C7038
1C7FF8
1C7FF8
1CF038
1CE038
1DE3F8
1FC3F8
1B8070
1F0060
ENDCHAR

STARTCHAR jisx0212_307C
ENCODING 12412
SWIDTH 960 0
DWIDTH 24 0
BBX 24 24 0 -2
BITMAP
0F63E0
0F7BE0
0E7B8C
1E739E
1EFFFF
1CFFFF
3CE380
3DE380
3DC386
7D838F
7E7FFF
DBFFFF
DC18C0
DC1EF0
1C1CE0
1C1CE0
1C1CE3
1C3CE3
1C38E7
1C78E7
1CF0FF
1FE0FF
1BC07F
1F0000
ENDCHAR

STARTCHAR jisx0212_307D
ENCODING 12413
SWIDTH 960 0
DWIDTH 24 0
BBX 24 24 0 -2
BITMAP
0F83E0
0F83E6
0E438F
1EFFFF
1EFFFF
1CE000
3CE0FE
3CE7FE
3CFFF0
7CFF80
7CE386
DCE38F
DCE3FF
DCFFFF
1CFF80
1CE380
1DE383
1DC383
1DC387
1F8387
1B83FF
1F03FF
1E01FF
1C0000
ENDCHAR

STARTCHAR jisx0212_307E
ENCODING 12414
SWIDTH 960 0
DWIDTH 24 0
BBX 24 24 0 -2
BITMAP
0F000F
0EFFFF
0DFFFF
1E0780
1E0F00
1C0E70
3C1E7C
3C1C3E
3DFBDF
7DFFFF
7CFE07
DCC3C6
DC03C8
DC039E
1CFFFF
1CFFFF
1C0380
1C0380
1C0380
1C0383
1C0387
1FFFFF
1BFFFF
1C0000
ENDCHAR

STARTCHAR jisx0212_3121
ENCODING 12577
SWIDTH 960 0
DWIDTH 24 0
BBX 24 24 0 -2
BITMAP
0F83E0
0F83E3
0E0387
1FFFFF
1DFFFF
1C03C0
3C0780
3CEF60
3CFE78
7C7CF8
7C3DF4
DC1FEF
DC1BDF
DC07BE
1C1F7C
1C7EF8
1CF9F0
1DF3E8
1DC7BE
1C1F9F
1C3E0F
1CFC07
1DF007
1DC003
ENDCHAR

STARTCHAR jisx0212_3122
ENCODING 12578
SWIDTH 960 0
DWIDTH 24 0
BBX 24 24 0 -2
BITMAP
0F8F80
0F8F86
0E0E0F
1FFFFF
1DFFFF
1C1CC0
3C38F0
3C787C
3CF1BF
7DEFDF
7FBFEF
DB8013
DC7FFC
DBFFFE
1C3800
1C7FFE
1C7FFE
1CF01C
1CF03C
1CE03C
1C07F8
1C07F8
1C00F0
1C00C0
ENDCHAR

STARTCHAR jisx0212_3123
ENCODING 12579
SWIDTH 960 0
DWIDTH 24 0
BBX 24 24 0 -2
BITMAP
0F87C0
0F87DC
0E071F
1DC73F
1DE73C
1CF778
3CF770
3C77E6
3C66CF
7F9F3F
7BFFFF
DC1CE0
DC1CE0
DC1CE0
1C1CE0
1C3CE3
1C3CE3
1C78E3
1C78E7
1CF0E7
1DE0FF
1FC0FF
1B807F
1E0000
ENDCHAR

STARTCHAR jisx0212_3124
ENCODING 12580
SWIDTH 960 0
DWIDTH 24 0
BBX 24 24 0 -2
BITMAP
003E00
007C00
00F700
01F780
03E3E0
07C5F8
0FBEFE
1FFF7F
7C00BF
FBFFCF
EFFFE6
0001C0
0003F8
1FFFBC
1FFFFE
000007
7FFFFF
7FFFFF
00F000
01E1F0
3FDEFC
3FFFFE
1FF01E
18000E
ENDCHAR

STARTCHAR jisx0212_3125
ENCODING 12581
SWIDTH 960 0
DWIDTH 24 0
BBX 24 24 0 -2
BITMAP
0F83E0
0F83EC
0E438F
1EE39F
1EF39E
1C7BBC
3C7BB8
3C3BF6
3C336F
7FCF9F
7BFFFF
DC07C0
DC0FE0
DC1F70
1C3FF8
1C3BBC
1C7BBF
1CF39F
1DE38F
1FC387
1B8383
1E0380
1C0380
1C0380
ENDCHAR

STARTCHAR jisx0212_3126
ENCODING 12582
SWIDTH 960 0
DWIDTH 24 0
BBX 24 24 0 -2
BITMAP
0F8F80
0F8F80
0E0E00
1F9E18
1DDC3C
1DFBFE
3DFFFE
3DDDDE
39DDDC
79DDDC
79DDDC
F9DDDC
F9DDDC
B9DDDC
39DDDC
39DDDC
39DDDC
39DDDC
39DDDC
39DDDC
39DDDF
3FFFFB
37FFFF
380000
ENDCHAR

STARTCHAR jisx0212_3127
ENCODING 12583
SWIDTH 960 0
DWIDTH 24 0
BBX 24 24 0 -2
BITMAP
0F83E0
0F83E0
0E4387
1EFFFF
1FFFFF
1DC007
3FC7CE
3BC7CC
3F8F02
7C0F0F
7FFEFF
DBFFFF
DC1C38
DC3C78
1C3C78
1C7A70
1C7FF0
1C77F0
1C71E8
1C07FE
1C1FBF
1CFF0F
1FFC07
1BE003
ENDCHAR

STARTCHAR jisx0212_3128
ENCODING 12584
SWIDTH 960 0
DWIDTH 24 0
BBX 24 24 0 -2
BITMAP
0F8780
0F871C
0E7FFE
1EFFFE
1E071C
1C071F
3FFFFB
3BFFFF
3C071C
7C071C
7CFFFC
DCFFFC
DC071C
DC0702
1DFFFF
1DFFFF
1C0700
1C070F
1FFFFF
1BFFFF
1C0700
1C0700
1C0700
1C0700
ENDCHAR

STARTCHAR jisx0212_3129
ENCODING 12585
SWIDTH 960 0
DWIDTH 24 0
BBX 24 24 0 -2
BITMAP
0F87C0
0F8FC0
0E0F30
1E1E7C
1E1C3E
1DFBDF
3DFFFF
3CFF07
3CB3C6
7C3BC8
7C7B9E
DC77FF
DCFFFF
DCE380
1DC386
1D838F
1E7FFF
1BFFFF
1C0380
1C0380
1C0380
1C0380
1C0380
1C0380
ENDCHAR

STARTCHAR jisx0212_312A
ENCODING 12586
SWIDTH 960 0
DWIDTH 24 0
BBX 24 24 0 -2
BITMAP
0EE00F
0EFFFF
0EFFFF
1EE007
1EE037
1CFFFF
3CDFFF
3CE007
3CEC77
7CEFF7
7CEFF7
DCEE77
DCEE77
DCEE77
1CEE77
1CEFF7
1CEFF7
1CEE77
1CEE77
1CE007
1CE07F
1CE07F
1CE00E
1CE00C
ENDCHAR

STARTCHAR jisx0212_312B
ENCODING 12587
SWIDTH 960 0
DWIDTH 24 0
BBX 24 24 0 -2
BITMAP
0F807E
0F806F
0E0077
1E0077
1E0070
1DFFFF
3BFFFF
3C0070
3C0070
7C0770
7DFF70
DDFF70
DC3878
DC3878
1C3838
1C3838
1C3BBD
1C3FBD
1FFF1D
1BFC1F
1DE00F
1D800F
1C0007
1C0003
ENDCHAR

STARTCHAR jisx0212_312C
ENCODING 12588
SWIDTH 960 0
DWIDTH 24 0
BBX 24 24 0 -2
BITMAP
0FBE00
0FBE00
0E7806
1E780F
1E77FF
1CFFFF
3CE007
3DE1C7
3FFFE7
7B7FE7
7F71C7
DC71C7
DC7FC7
DC7FC7
1C71C7
1C71C7
1C7FC7
1C7FCF
1C71CF
1C71DE
1C023E
1C03FC
1C0078
1C0060
ENDCHAR

STARTCHAR jisx0212_312D
ENCODING 12589
SWIDTH 960 0
DWIDTH 24 0
BBX 24 24 0 -2
BITMAP
0F7C00
0F7C00
0E70C7
1E70FF
1EF6FF
1DEFE7
3BFFE7
3CE6E7
3CE6E7
7CE6E7
7DEEE7
DDEEE7
DDCEE7
DDCEE7
1DDEE7
1FDEE7
1BFCE7
1BBEE7
1FFEE7
1C6EFF
1DE6FF
1FC6E7
1B80E7
1F00E0
ENDCHAR

STARTCHAR jisx0212_312E
ENCODING 12590
SWIDTH 960 0
DWIDTH 24 0
BBX 24 24 0 -2
BITMAP
0F9F00
0F9F06
0E1C0F
1FFFFF
1DFFFF
1C3800
3C780E
3C7FFF
3C6FFF
7CF01E
7CF0BC
DDF0F8
DDF0F3
DFF0E7
1B7FFF
1F7FFF
1E70E0
1C70E0
1C70E0
1C70E0
1C77E0
1C77E0
1C71C0
1C7180
ENDCHAR

STARTCHAR jisx0212_312F
ENCODING 12591
SWIDTH 960 0
DWIDTH 24 0
BBX 24 24 0 -2
BITMAP
0EE00F
0EFFFF
0EFFFF
1EE000
1EE018
1CE03C
3CFFFE
3CDFFE
3CE000
7CE00F
7CFFFF
DCFFFF
DCEEC0
DCEEEF
1CEEFF
1DEE5E
1DEE78
1DCE70
1DCE3C
1FCFFF
1BBDDF
1BFF8F
1F7C07
1E6003
ENDCHAR

STARTCHAR jisx0212_3130
ENCODING 12592
SWIDTH 960 0
DWIDTH 24 0
BBX 24 24 0 -2
BITMAP
0EE01E
0EFFFF
0EFFFF
1EE00F
1EE00E
1CFFFE
3CFFFE
3CE00E
3CE001
7CFFFF
7CFFFF
DCE007
DCDFF7
DCDFF7
1CDCE7
1DDCE7
1DDFE7
1DDFE7
1FDCEF
1B9C0F
1B81FE
1F01FE
1E003C
1C0030
ENDCHAR

STARTCHAR jisx0212_3131
ENCODING 12593
SWIDTH 960 0
DWIDTH 24 0
BBX 24 24 0 -2
BITMAP
0F380E
0EFC3F
0DFDFF
1E3BFC
1E7770
1C7070
3CF070
3CF070
3CEC77
7DDFFF
7DFFFF
DDDC70
DC1C70
DDDC70
1DDC70
1FDC70
1B7877
1F7FFF
1B37FF
1CF800
1DDFFF
1FCFFF
1B83FF
1F0000
ENDCHAR

STARTCHAR jisx0212_3132
ENCODING 12594
SWIDTH 960 0
DWIDTH 24 0
BBX 24 24 0 -2
BITMAP
0FBFF8
0FBFF8
0E4060
1E7870
1EF838
1CF03C
3DEFDE
3FFFFF
3BE03F
7EE037
7CE03B
DCE038
DCFFF8
DCFFF8
1CDDB8
1C1DC0
1C1DC3
1C3DC3
1C39C7
1C79C7
1CF1FF
1FE1FF
1BC0FF
1F0000
ENDCHAR

STARTCHAR jisx0212_3133
ENCODING 12595
SWIDTH 960 0
DWIDTH 24 0
BBX 24 24 0 -2
BITMAP
0F83C6
0F838F
0E7FFF
1DFFFF
1E0380
1CC387
3CFFFF
3DFFFF
3FC007
7BC03E
7FBFF8
DC7FFC
DC0070
DC03E3
1C03C7
1FFFBF
1BFFFF
1C0380
1C0380
1C0380
1C3F80
1C3F80
1C0700
1C0600
ENDCHAR

STARTCHAR jisx0212_3134
ENCODING 12596
SWIDTH 960 0
DWIDTH 24 0
BBX 24 24 0 -2
BITMAP
0EE00F
0EFFFF
0EFFFF
1EE387
1EE387
1CFFFF
3CFFFF
3CE387
3CE387
7CFFFF
7CFFFF
DCE387
DC0380
DDFFFF
1DFFFF
1C0707
1C0F07
1C0E07
1C1E0F
1C3C0F
1C79FE
1DF1FE
1FE03C
1B8030
ENDCHAR

STARTCHAR jisx0212_3135
ENCODING 12597
SWIDTH 960 0
DWIDTH 24 0
BBX 24 24 0 -2
BITMAP
0F878C
0F878F
0E075F
1EFFFE
1EFFFC
1C0738
3C07FF
3FFEF7
3BFFFF
7C03C0
7C0F9C
DC3F7E
DC7FFE
DDF838
1FE1F3
1B81E7
1E7FDF
1DFFFF
1C01C0
1C01C0
1C1FC0
1C1FC0
1C0380
1C0300
ENDCHAR

STARTCHAR jisx0212_3136
ENCODING 12598
SWIDTH 960 0
DWIDTH 24 0
BBX 24 24 0 -2
BITMAP
0F603E
0F71FF
0E7FFF
1E7FC0
1EF63C
1CF79E
3CE38F
3DE3C7
3DC1C7
7FCFC3
7B8F87
DF0E0E
DCFFFF
DBFFFF
1C1C38
1C3C78
1C3878
1C7EF0
1C7FF0
1C71EC
1C0FFF
1C7F9F
1FFE07
1BF003
ENDCHAR

STARTCHAR jisx0212_3137
ENCODING 12599
SWIDTH 960 0
DWIDTH 24 0
BBX 24 24 0 -2
BITMAP
0F981C
0F9FFE
0E1FFE
1DDC1C
1DDC1C
1DDC1C
3DDFFC
3DDFFC
39DC1C
79C000
79FFFE
F9FFFE
F9C71C
B8071C
38071F
3FFFFB
37FFFF
380D80
381DF0
383CFC
38F87F
3BF03F
3FC01F
3F0006
ENDCHAR

STARTCHAR jisx0212_3138
ENCODING 12600
SWIDTH 960 0
DWIDTH 24 0
BBX 24 24 0 -2
BITMAP
0F8770
0F8778
0E073B
1E073F
1FFFC7
1BFFFF
3C0700
3DC78F
3DE79F
7CF7DE
7CF7FC
DC76B8
DC66F0
DC07E0
1C3778
1C777C
1DF73E
1FE73F
1FC71F
1B870F
1F7F06
1C7F00
1C0E00
1C0C00
ENDCHAR

STARTCHAR jisx0212_3139
ENCODING 12601
SWIDTH 960 0
DWIDTH 24 0
BBX 24 24 0 -2
BITMAP
0F8F80
0F9F00
0E1DC0
1E3DE0
1E7CF8
1C787C
3CF03F
3DE0DF
3FDFEF
7B7FF6
7F0708
DC071E
DFFFFF
DBFFFF
1C0700
1CF770
1CF77C
1DE73E
1DE71F
1FC70F
1BBF0F
1F7F06
1E0E00
1C0C00
ENDCHAR

STARTCHAR jisx0212_313A
ENCODING 12602
SWIDTH 960 0
DWIDTH 24 0
BBX 24 24 0 -2
BITMAP
0F73E0
0F7BE0
0E7B8C
1E739E
1EFFFF
1CFFFF
3CE380
3DE386
3DC38F
7FBFFF
7BFFFF
DC0380
DCC38C
DCE39E
1CFC7F
1CFFFF
1CE00F
1CE00E
1CE00E
1CE00E
1CFFFE
1CFFFE
1CE00E
1CE00E
ENDCHAR

STARTCHAR jisx0212_313B
ENCODING 12603
SWIDTH 960 0
DWIDTH 24 0
BBX 24 24 0 -2
BITMAP
0F801E
0FFFFF
0EFFFF
1E0E00
1E0E30
1C1E78
3CFDFC
3CFFFC
3C1C3C
7C3C38
7C383B
DFFFFF
DBFFFF
DC0000
1CFFFF
1CFFFF
1CE00F
1CE00E
1CE00E
1CE00E
1CFFFE
1CFFFE
1CE00E
1CE00E
ENDCHAR

STARTCHAR jisx0212_313C
ENCODING 12604
SWIDTH 960 0
DWIDTH 24 0
BBX 24 24 0 -2
BITMAP
0F703C
0E7FFE
0E7FFE
1E701E
1E701C
1C7FFC
3C7FFC
3C701C
3C8002
7CFFFF
7CFFFF
DCE38F
DCE38E
DCE38E
1CFFFE
1CFFFE
1CE00F
1CE003
1CE007
1CE007
1CFFFF
1CFFFF
1C7FFF
1C0000
ENDCHAR

STARTCHAR jisx0212_313D
ENCODING 12605
SWIDTH 960 0
DWIDTH 24 0
BBX 24 24 0 -2
BITMAP
0F83FC
0F83BC
0E039F
1FFFFB
1DFFFF
1C0380
3CE38F
3CFFFF
3CFFFF
7CE387
7CE387
DCFFFF
DCFFFF
DCE387
1CE387
1CE387
1CFFFF
1CFFFF
1CE387
1CE387
1CE3FF
1CE37F
1CE38E
1CE38C
ENDCHAR

STARTCHAR jisx0212_313E
ENCODING 12606
SWIDTH 960 0
DWIDTH 24 0
BBX 24 24 0 -2
BITMAP
0F07C0
0EC7D8
0EE73C
1EFFFE
1EFFFE
1CE01E
3CE01C
3CFFFC
3CFFFC
7CE01C
7CE01C
DCFFFC
DCFFFC
DCE61F
1CE70F
1CE3BE
1CE3FC
1CE1F0
1CE2E8
1CFFFE
1FDF3F
1BFC1F
1DE00F
1D8003
ENDCHAR

STARTCHAR jisx0212_313F
ENCODING 12607
SWIDTH 960 0
DWIDTH 24 0
BBX 24 24 0 -2
BITMAP
0FB3C0
0FBBB8
0E7BBC
1E7B9E
1EF38F
1CF387
3DE387
3DC39B
3F7FFF
7B7FFE
7C701C
DC701C
DC7FFC
DC7FFC
1C701C
1C701C
1C7FFC
1C7FFC
1C701C
1C701C
1C71FC
1C71FC
1C7038
1C7030
ENDCHAR

STARTCHAR jisx0212_3140
ENCODING 12608
SWIDTH 960 0
DWIDTH 24 0
BBX 24 24 0 -2
BITMAP
0F87C0
0F87C0
0E4707
1EFFFF
1FFFFF
1DC007
3BC03E
3FBFF8
3C7FFC
7C0000
7C0006
DC000F
DFFFFF
DBFFFF
1C1CE0
1C1CE0
1C1CE3
1C3CE3
1C38E7
1C78E7
1CF0FF
1DE0FF
1FC07F
1B8000
ENDCHAR

STARTCHAR jisx0212_3141
ENCODING 12609
SWIDTH 960 0
DWIDTH 24 0
BBX 24 24 0 -2
BITMAP
0FC3CC
0EE39E
0EFFFF
1EFFFF
1EE38F
1CFFFE
3CFFFE
3CE38E
3CE38E
7CFFFE
7CFFFE
DCE00F
DF1FF3
DBFFFF
1C1C00
1C3FFF
1C3FFF
1C780F
1C780E
1C701E
1C03FE
1C03FC
1C0078
1C0060
ENDCHAR

STARTCHAR jisx0212_3142
ENCODING 12610
SWIDTH 960 0
DWIDTH 24 0
BBX 24 24 0 -2
BITMAP
0F83E0
0F83E0
0E0386
1E038F
1FFFFF
1DFFFF
3C0380
3C7B9E
3C7B9E
7C739C
7CFBBE
DCFBBF
DDDFF7
DDDF77
1F97E6
1B0EC0
1C0EF0
1C1E78
1C3E7C
1C7C3F
1CF81F
1FF00F
1BC007
1F0003
ENDCHAR

STARTCHAR jisx0212_3143
ENCODING 12611
SWIDTH 960 0
DWIDTH 24 0
BBX 24 24 0 -2
BITMAP
0FBC06
0FB80F
0E7FFF
1E7FFF
1EF070
1CFDF0
3DDFE0
3FCFC0
3B87A0
7F3FFC
7C7DFF
DDFB7F
DFE7DF
DF9F66
1C7EF8
1FF9F6
1BC7EF
1C3F9F
1CFE7E
1FF9FC
1BC7F0
1C3FC0
1FFE00
1BE000
ENDCHAR

STARTCHAR jisx0212_3144
ENCODING 12612
SWIDTH 960 0
DWIDTH 24 0
BBX 24 24 0 -2
BITMAP
0F9EC6
0FFEEF
0E7CFF
1DF0FF
1E70E7
1C70E7
3C76E7
3FFFE7
3BFFE7
7C70E7
7CF0E7
DCFCE7
DDFEE7
DDEEE7
1DFEE7
1F76E7
1B76E7
1F70E7
1E70E7
1C70FF
1C70FF
1C70E7
1C70E7
1C70E0
ENDCHAR

STARTCHAR jisx0212_3145
ENCODING 12613
SWIDTH 960 0
DWIDTH 24 0
BBX 24 24 0 -2
BITMAP
0FBE7C
0FBE7C
0E3870
1E3F70
1FF770
1BFF77
3CC0FF
3CEFFF
3DE777
7DE377
7FDF77
DB9C77
DF5F77
DDDCF7
1CFCF7
1C7CE7
1C38E7
1C7DE7
1CEDCF
1DEFCF
1FC3BE
1B8EFE
1F1E3C
1C1C30
ENDCHAR

STARTCHAR jisx0212_3146
ENCODING 12614
SWIDTH 960 0
DWIDTH 24 0
BBX 24 24 0 -2
BITMAP
0F83C6
0F838F
0E7FFF
1DFFFF
1E0F00
1C1E78
3C1C3E
3DFBDF
3DFFFF
7CFF07
7CC00B
DC7FFE
DC7FFF
DC700F
1C7FFE
1C7FFE
1C700E
1C7FFE
1C7FFE
1C700E
1C70FE
1C70FE
1C701C
1C7018
ENDCHAR

STARTCHAR jisx0212_3147
ENCODING 12615
SWIDTH 960 0
DWIDTH 24 0
BBX 24 24 0 -2
BITMAP
0F0CF8
0EBEF8
0DFEE0
1DFCE0
1DC1E7
1DC1DF
3DC1FF
3DCDF7
3DFF77
7DFF7E
7DDB6E
DDDF7C
DDDE70
DDDC78
1DDC78
1DDCF8
1FDCDC
1BDCDC
1B9DDE
1B9DCF
1F1FCF
1F1B87
1E1F07
1C1E03
ENDCHAR

STARTCHAR jisx0212_3148
ENCODING 12616
SWIDTH 960 0
DWIDTH 24 0
BBX 24 24 0 -2
BITMAP
0F878C
0F871E
0E07FF
1F87FF
1DC700
1DFFFF
3DFFFF
3DC707
3DC7FE
7DFFFC
7DFF06
DDC7FF
DDC7FF
DDC3FE
1DCC00
1DCEF0
1DCEF3
1DCEE3
1FDEE7
1B9EE7
1BBCFF
1F7CFF
1EF87F
1DE000
ENDCHAR

STARTCHAR jisx0212_3149
ENCODING 12617
SWIDTH 960 0
DWIDTH 24 0
BBX 24 24 0 -2
BITMAP
0F701E
0F7FFF
0E7FFF
1E7000
1E7FFC
1C7FFC
3C7000
3C7FFC
3C7FFC
7C7003
7C7007
DFFFFF
DBFFFF
DC7180
1C71CF
1C71DF
1C70FE
1C70F8
1C7070
1C77FE
1FFFBF
1BFE1F
1DF00F
1D8006
ENDCHAR

STARTCHAR jisx0212_314A
ENCODING 12618
SWIDTH 960 0
DWIDTH 24 0
BBX 24 24 0 -2
BITMAP
0EF0C6
0EF0EF
0EE6FF
1FFFFF
1DFFE7
1DB8E7
3FB8E7
3BB8E7
3F38E7
7E3AE7
7DFFE7
DBFFE7
DC38E7
DC38E7
1C78E7
1C7CE7
1C7EE7
1CEEE7
1CEEE7
1DE6FF
1FC6FF
1B86E7
1F00E7
1E00E0
ENDCHAR

STARTCHAR jisx0212_314B
ENCODING 12619
SWIDTH 960 0
DWIDTH 24 0
BBX 24 24 0 -2
BITMAP
0F78FC
0F7DFC
0E1FE0
1E07D0
1E7EFC
1DFD3C
3DCF1F
3E3EE7
3BFFFF
7C1C00
7C3FFE
DC7FFE
DC781E
DCFFFC
1DFFFC
1FB81C
1BBFFC
1F3FFC
1C381C
1C381C
1C38FC
1C38FC
1C3838
1C3830
ENDCHAR

STARTCHAR jisx0212_314C
ENCODING 12620
SWIDTH 960 0
DWIDTH 24 0
BBX 24 24 0 -2
BITMAP
0F87C0
0F87C0
0E4707
1EFFFF
1FFFFF
1DC007
3BF80E
3D798C
3CF5FF
7CEFFF
7CFFCF
DDEDCE
DDCDCE
DFDDCE
1B9DCE
1EFDCE
1E7DFE
1C79FF
1C39DB
1CF1DF
1DE1E7
1FC1FF
1B80FF
1E0000
ENDCHAR

STARTCHAR jisx0212_314D
ENCODING 12621
SWIDTH 960 0
DWIDTH 24 0
BBX 24 24 0 -2
BITMAP
0FBFF8
0FBFF8
0E0060
1E3C78
1E7C3C
1C7A3F
3CF79F
3DEF8F
3FCF67
7B9EFB
7C1C7C
DDFBBE
DDFFFE
DCFC0E
1CC78C
1C33D0
1CBDDE
1CBDEF
1DB837
1FB877
1BBFFB
1FBFFB
1B1FF0
1C0000
ENDCHAR

STARTCHAR jisx0212_314E
ENCODING 12622
SWIDTH 960 0
DWIDTH 24 0
BBX 24 24 0 -2
BITMAP
0F83E0
0F83E0
0E6387
1E7FFF
1EFFFF
1DE007
3DF01E
3DBFFC
3C3FFE
7C381E
7C381C
DC3FFC
DC3FFC
DC381C
1C3802
1C3FFF
1C3FFF
1C380F
1C380E
1C380E
1C3FFE
1C3FFE
1C380E
1C380E
ENDCHAR

STARTCHAR jisx0212_314F
ENCODING 12623
SWIDTH 960 0
DWIDTH 24 0
BBX 24 24 0 -2
BITMAP
0F8EF0
0F8EF0
0E4EEE
1EFFFF
1EFFFF
1CEEEF
3CEEEE
3CEEEE
3CEEEE
7CFFFE
7CFFFE
DCEEEE
DCEEEE
DCEEEE
1CEEEF
1FFFFD
1BFFFF
1C1800
1C7E7C
1CFC3F
1DF81F
1FE00F
1B8007
1E0003
ENDCHAR

STARTCHAR jisx0212_3150
ENCODING 12624
SWIDTH 960 0
DWIDTH 24 0
BBX 24 24 0 -2
BITMAP
0F8780
0F8F1C
0E0EFE
1E1FFE
1FBE3C
1DF7F8
3DF3F0
3DC1E8
3DCFFE
7DFF3F
7DBDDF
DDF1E6
DDCDC0
DDCDCF
1DDDDF
1DFFFE
1DBBF8
1DFF60
1DB778
1DCF3E
1C3E3F
1CFC1F
1DF00F
1DC006
ENDCHAR

STARTCHAR jisx0212_3151
ENCODING 12625
SWIDTH 960 0
DWIDTH 24 0
BBX 24 24 0 -2
BITMAP
0F83E0
0FB3EC
0E339F
1E73BF
1E73FC
1CF770
3CF7C0
3CEF30
3C1EFC
7C3E7F
7CFD9F
DFF3EF
DBC3E6
DC338D
1C739F
1C77BE
1CF7FC
1CF6F0
1CEFE0
1C1F7C
1C3E3F
1CFC1F
1FF80F
1BC006
ENDCHAR

STARTCHAR jisx0212_3152
ENCODING 12626
SWIDTH 960 0
DWIDTH 24 0
BBX 24 24 0 -2
BITMAP
0F8EC7
0DFEFF
0DFEFF
1DCEE7
1DCEE7
1DEEF7
3DEEF7
3DBEDF
3DBEDF
7DFEFF
7DCEE7
DDEEF7
DDEEF7
DDBEDF
1DBEDF
1DFEFF
1DCEE7
1FCFE7
1B8DC7
1B8DC7
1BFDFF
1F7FBF
1F1B8E
1E1B0C
ENDCHAR

STARTCHAR jisx0212_3153
ENCODING 12627
SWIDTH 960 0
DWIDTH 24 0
BBX 24 24 0 -2
BITMAP
0FB3C0
0FBBB8
0E3BBE
1E7B9F
1E7B8F
1CF387
3DE383
3FC387
3BFFFF
7EFFFF
7CE007
DCEC77
DCEFF7
DCEFF7
1CEE77
1CEE77
1CEE77
1CEFF7
1CEFF7
1CEE77
1CEE0F
1CE03F
1CE00E
1CE00C
ENDCHAR

STARTCHAR jisx0212_3154
ENCODING 12628
SWIDTH 960 0
DWIDTH 24 0
BBX 24 24 0 -2
BITMAP
0F7C7C
0F7C7C
0E7073
1FFFFF
1FFFFF
1C7070
3C7070
3C7FF0
3C7FF0
7C7070
7C7070
DC7FF0
DC7FF0
DC7070
1C7073
1C7077
1FFFFF
1BFFFF
1C18C0
1C7E7C
1DF83E
1FF01F
1BC00F
1F0007
ENDCHAR

STARTCHAR jisx0212_3155
ENCODING 12629
SWIDTH 960 0
DWIDTH 24 0
BBX 24 24 0 -2
BITMAP
0EE00F
0EFFFF
0EFFFF
1EE007
1EE3F7
1CFFB7
3CDFF7
3CE387
3CE3B7
7CFFF7
7CDFF7
DCE387
DCEFF7
DCEC77
1CEFF7
1DEE77
1DEE77
1DCFF7
1DCFF7
1FCE77
1B8E0F
1B803F
1F000E
1E000C
ENDCHAR

STARTCHAR jisx0212_3156
ENCODING 12630
SWIDTH 960 0
DWIDTH 24 0
BBX 24 24 0 -2
BITMAP
0780F8
0738F8
FFFCE0
FFFCE0
0700E0
6770E0
7FF8E0
7FF8E0
7078E0
7FF0E0
7FF0E0
7070F0
7071F0
7FF1F0
7FF1B8
7771B8
070BBC
FFFB9C
FFFF9E
07071F
071E0F
073C0F
077807
076006
ENDCHAR

STARTCHAR jisx0212_3157
ENCODING 12631
SWIDTH 960 0
DWIDTH 24 0
BBX 24 24 0 -2
BITMAP
0F83E0
0F83E6
0E038F
1FFFFF
1DFFFF
1C0000
3C703C
3C7FFE
3C7FFE
7C701E
7C701C
DC701C
DC7FFC
DC7FFC
1C739C
1C3BE0
1C7B78
1C7BBE
1CF39F
1DE38F
1FDF87
1BBF87
1F0703
1C0600
ENDCHAR

STARTCHAR jisx0212_3158
ENCODING 12632
SWIDTH 960 0
DWIDTH 24 0
BBX 24 24 0 -2
BITMAP
0F83C6
0F838F
0E7FFF
1DFFFF
1E0380
1CFFFE
3CFFFE
3C039D
3FFFFB
7BFFFF
7C039C
DCFFFC
DCFFFC
DC039C
1C7B82
1C7BFF
1CF3FF
1CF380
1DE380
1DFB80
1FBFFF
1B9FFF
1F07FF
1E0000
ENDCHAR

STARTCHAR jisx0212_3159
ENCODING 12633
SWIDTH 960 0
DWIDTH 24 0
BBX 24 24 0 -2
BITMAP
0F83E0
0F83E0
0E4387
1EFFFF
1FFFFF
1DC007
3BC02E
3D807C
3C7FF8
7CFFFC
7C0002
DC000F
DFFFFF
DBFFFF
1C0380
1C7BB8
1CFBBC
1CF39E
1DE38F
1FC387
1BBF87
1F3F83
1C0703
1C0600
ENDCHAR

STARTCHAR jisx0212_315A
ENCODING 12634
SWIDTH 960 0
DWIDTH 24 0
BBX 24 24 0 -2
BITMAP
0EE01E
0EFFFF
0EFFFF
1EE38F
1EE38E
1CFFFE
3CFFFE
3CE38E
3CE38E
7CFFFE
7CFFFE
DCE38F
DC0383
DFFFFF
1BFFFF
1C07C0
1C1FF0
1C3F7C
1C7BBF
1CFB9F
1DF38F
1FC387
1B0383
1C0380
ENDCHAR

STARTCHAR jisx0212_315B
ENCODING 12635
SWIDTH 960 0
DWIDTH 24 0
BBX 24 24 0 -2
BITMAP
0F878C
0F871E
0E7FFF
1DFFFF
1E0700
1C070F
3FFFFF
3BFFFF
3C38E0
7C78E3
7C7CFF
DCEFFF
DDFF7F
DFDE00
1BBDFC
1C7FFC
1CF878
1DDDF0
1FCFE0
1B87D8
1C3FFF
1CFEFF
1FF83F
1BC006
ENDCHAR

STARTCHAR jisx0212_315C
ENCODING 12636
SWIDTH 960 0
DWIDTH 24 0
BBX 24 24 0 -2
BITMAP
0F83E0
0F83E6
0E038F
1FFFFF
1DFFFF
1C0380
3CE39E
3CFFFF
3CFFFF
7CE38F
7CFFFE
DCFFFE
DCE38E
DCFFFE
1CFFFE
1CEFCE
1C1FF0
1C3B78
1C7BFE
1CFBBF
1DF39F
1FE38F
1B8386
1C0380
ENDCHAR

STARTCHAR jisx0212_315D
ENCODING 12637
SWIDTH 960 0
DWIDTH 24 0
BBX 24 24 0 -2
BITMAP
1E0780
1C070E
1FFFFF
3BFFFF
3C0700
39FFFE
39FFFE
79C71C
79FFFC
79FFFC
F9C700
F83FFE
B9FFFE
38071D
3FFFFB
37FFFF
38071C
39FFFC
39FFFC
38071C
387F00
387F00
380E00
380C00
ENDCHAR

STARTCHAR jisx0212_315E
ENCODING 12638
SWIDTH 960 0
DWIDTH 24 0
BBX 24 24 0 -2
BITMAP
0F8078
0F8776
0E7F6F
1EFF77
1E0077
1C0070
3DFFFF
3DFFFF
3C0E70
7C0E70
7CCE70
DCEF78
DCEDF8
DCEFB8
1CEE38
1CEE3C
1CEE3D
1CEE1D
1CEFDD
1CEDDF
1FFF8F
1BFE0F
1DF007
1D8003
ENDCHAR

STARTCHAR jisx0212_315F
ENCODING 12639
SWIDTH 960 0
DWIDTH 24 0
BBX 24 24 0 -2
BITMAP
0F3C78
0E3877
0FFFFF
1DFFFF
1E3870
1C3F70
3C3770
3CC70C
3CFFFE
7CFFFE
7CE71E
DCE71C
DCE71C
DCE71F
1FFFFB
1BFFFF
1C0D80
1C1DE0
1C3CF0
1C7CFC
1CF87F
1FF03F
1BC01F
1F0006
ENDCHAR

STARTCHAR jisx0212_3160
ENCODING 12640
SWIDTH 960 0
DWIDTH 24 0
BBX 24 24 0 -2
BITMAP
0FC1FE
0EFFFE
0EFFF0
1EE63E
1FE39F
1DC38F
3FC787
3B871E
3EFFFC
7CFFFE
7CE71C
DCE71F
DFFFFB
DBFFFF
1CE71C
1CE71F
1FFFFB
1BFFFF
1CE01C
1CE01C
1CE1FC
1CE1FC
1CE038
1CE030
ENDCHAR

STARTCHAR jisx0212_3161
ENCODING 12641
SWIDTH 960 0
DWIDTH 24 0
BBX 24 24 0 -2
BITMAP
0F783C
0E3C7C
0E3C7B
1E1CF7
1FFBEF
1BFFFF
3C0000
3DFF67
3DFF77
7DC777
7DF777
DDF777
DDB777
DDF777
1DC777
1DF777
1DF777
1DB777
1DF777
1DC777
1DFF0F
1DBF3F
1DCE0E
1DCC0C
ENDCHAR

STARTCHAR jisx0212_3162
ENCODING 12642
SWIDTH 960 0
DWIDTH 24 0
BBX 24 24 0 -2
BITMAP
0F83FE
0FFFFE
0EFFF0
1E038F
1FFFFF
1BFFFF
3C0380
3CFFFF
3CFFFF
7CE38F
7CFFFE
DCFFFE
DCE38E
DCFFFE
1CFFFE
1CE38E
1C0380
1DFFFF
1DFFFF
1C0380
1C038F
1FFFFF
1BFFFF
1C0000
ENDCHAR

STARTCHAR jisx0212_3163
ENCODING 12643
SWIDTH 960 0
DWIDTH 24 0
BBX 24 24 0 -2
BITMAP
0F0780
0E070E
0FFFFF
1DFFFF
1E0E00
1DFFFE
3DFFFE
3C1CC0
3C3CE7
7FFB7F
7BFFFF
DC7038
DDE01F
DFFFFF
1B7FFF
1F7037
1C703B
1C7FF8
1C7FF8
1C7038
1C7038
1C7FF8
1C7FF8
1C7038
ENDCHAR

STARTCHAR jisx0212_3164
ENCODING 12644
SWIDTH 960 0
DWIDTH 24 0
BBX 24 24 0 -2
BITMAP
0F81FE
0F8FFE
0E7FF0
1EFB80
1E038E
1CFFFF
3CFFFF
3CE38E
3CE38E
7CFFFE
7CFFFE
DCE38E
DD0381
DDFFFF
1DFFFF
1DC387
1DC377
1DFFBF
1DFFFF
1DBF17
1DF06F
1DC07F
1DC00E
1DC00C
ENDCHAR

STARTCHAR jisx0212_3165
ENCODING 12645
SWIDTH 960 0
DWIDTH 24 0
BBX 24 24 0 -2
BITMAP
0FBE7C
0FBE7C
0E3873
1FFFFF
1DFFFF
1C3870
3C3C70
3C3F70
3C0F06
7C0E0F
7FFFFF
DBFFFF
DC1C00
DC3C0C
1C781E
1CFFFF
1DFFFF
1FB80F
1BB80E
1F380E
1C380E
1C3FFE
1C3FFE
1C380E
ENDCHAR

STARTCHAR jisx0212_3166
ENCODING 12646
SWIDTH 960 0
DWIDTH 24 0
BBX 24 24 0 -2
BITMAP
0EE01E
0EFFFF
0EFFFF
1EE38F
1EE38E
1CFFFE
3CFFFE
3CE38E
3CE38E
7CFFFE
7CFFFE
DCE00F
DF1FF7
DFFFFF
1CE60C
1CE73F
1CE37C
1CE3F8
1CE1E0
1CEEFC
1FFF7F
1FFC3F
1BE01F
1B0006
ENDCHAR

STARTCHAR jisx0212_3167
ENCODING 12647
SWIDTH 960 0
DWIDTH 24 0
BBX 24 24 0 -2
BITMAP
0F803C
0DFFFE
0DFFFE
1DC01E
1DC7DC
1DFFDC
3DBE1C
3DC6DC
3DBFFC
7DBFFC
7DB6DC
DDB6DC
DDB6DC
DDB6DC
1DBFDC
1DBFDC
1DF6DD
1FC5FD
1B86ED
1BFDFF
1BFF7F
1EF837
1EC037
1C0003
ENDCHAR

STARTCHAR jisx0212_3168
ENCODING 12648
SWIDTH 960 0
DWIDTH 24 0
BBX 24 24 0 -2
BITMAP
0F703C
0E7FFE
0E7FFE
1E701E
1E7FFC
1C7FFC
3C701C
3C7FFC
3C7FFF
7C701B
7F8FE7
DBFFFF
DC3800
DC7FFF
1CFFFF
1DEEE7
1FDDE7
1BBFC7
1E7BCF
1DF78F
1FEF7E
1B9EFE
1C783C
1CE030
ENDCHAR

STARTCHAR jisx0212_3169
ENCODING 12649
SWIDTH 960 0
DWIDTH 24 0
BBX 24 24 0 -2
BITMAP
0EE00F
0EFFFF
0EFFFF
1EE007
1EE007
1CFFFF
3CFFFF
3CE000
3CFFFF
7CFFFF
7CE780
DCEF3E
DCFEDF
DCFFFF
1CDF87
1DD9E3
1DC1CC
1DFFFF
1DBFFF
1F81C0
1B81C7
1F7FFF
1EFFFF
1C0000
ENDCHAR

STARTCHAR jisx0212_316A
ENCODING 12650
SWIDTH 960 0
DWIDTH 24 0
BBX 24 24 0 -2
BITMAP
0F83C0
0FE3B8
0E7BBE
1E7B9F
1EF3AF
1CF3F7
3DEF7B
3DDFF3
3F87E0
7B2BCC
7C3F1E
DCFCFF
DFFFFF
DBB80F
1F3FFE
1C3FFE
1C380E
1C3FFE
1C3FFE
1C380E
1C3FFE
1C3FFE
1C380E
1C380E
ENDCHAR

STARTCHAR jisx0212_316B
ENCODING 12651
SWIDTH 960 0
DWIDTH 24 0
BBX 24 24 0 -2
BITMAP
0F83C6
0F838F
0E7FFF
1DFFFF
1E3030
1C1C7C
3CDC78
3CDCF7
3DFBEF
7FFFFF
7B8387
DFC38E
DAFFFF
DCFFFF
1CE38E
1CE38E
1CE38E
1CE38E
1CE38E
1CE3FE
1CE37E
1CE39C
1CE398
1C0380
ENDCHAR

STARTCHAR jisx0212_316C
ENCODING 12652
SWIDTH 960 0
DWIDTH 24 0
BBX 24 24 0 -2
BITMAP
0F63CC
0F779E
0E7F7F
1E7FFF
1E700F
1C700E
3C7FFE
3C7FFE
3C700E
7C700E
7C7FFE
DC7FFE
DC700F
DD8FF7
1DFFFF
1C0380
1C038E
1CFFFF
1CFFFF
1C0380
1C0387
1FFFFF
1BFFFF
1C0000
ENDCHAR

STARTCHAR jisx0212_316D
ENCODING 12653
SWIDTH 960 0
DWIDTH 24 0
BBX 24 24 0 -2
BITMAP
0F000F
0EFFFF
0DFFFF
1E0EE0
1EFFFF
1CFFFF
3CEEEF
3CEEEE
3CEFEE
7CEFEE
7CEEEE
DCE70E
DC0F81
DC0F07
1FFEFF
1BFFFF
1C3C38
1C7878
1CFFF0
1CFFF8
1CE3FE
1C1FBF
1FFE0F
1BE007
ENDCHAR

STARTCHAR jisx0212_316E
ENCODING 12654
SWIDTH 960 0
DWIDTH 24 0
BBX 24 24 0 -2
BITMAP
0F1F7C
0E7F7C
0FFC70
1DF070
1E7076
1C7177
3C7577
3FFD77
3BFF7F
7C736E
7CF76E
DCF77C
DDFF78
DDFC70
1DEEF8
1F7EF8
1B70DC
1F71DC
1E71DE
1C73CF
1C778F
1C7F07
1C6E07
1C7803
ENDCHAR

STARTCHAR jisx0212_316F
ENCODING 12655
SWIDTH 960 0
DWIDTH 24 0
BBX 24 24 0 -2
BITMAP
0F83C0
0F8387
0E7FFF
1DFFFF
1E3030
1C3C7C
3C1C78
3C1CF3
3C1CE7
7FFBDF
7BFFFF
DC0000
DC7FFF
DC7FFF
1C700F
1C700E
1C7FFE
1C7FFE
1C700E
1C700E
1C7FFE
1C7FFE
1C700E
1C700E
ENDCHAR

STARTCHAR jisx0212_3170
ENCODING 12656
SWIDTH 960 0
DWIDTH 24 0
BBX 24 24 0 -2
BITMAP
0FFFFF
0EFFFF
0E0387
1E7B9E
1E7BFC
1C73FE
3CFB80
3CFFFF
3DDFFF
7FC7FF
7BA000
DF7FFF
DC7FFF
DC700F
1C7FFE
1C7FFE
1C700E
1C7FFE
1C7FFE
1C700E
1C70FE
1C70FE
1C701C
1C7018
ENDCHAR

STARTCHAR jisx0212_3171
ENCODING 12657
SWIDTH 960 0
DWIDTH 24 0
BBX 24 24 0 -2
BITMAP
0F8F00
0F8E0E
0E7FFF
1DFFFF
1E1CC0
1C3CF0
3C787C
3CEF3F
3DDFDF
7FFCEF
7B3FF6
DCF1E0
DDFFD8
DFDF7F
1B2EF7
1CFDFF
1FF78F
1BCF3E
1C3BFC
1CF1F8
1C07F0
1C3FC0
1DFF00
1DF800
ENDCHAR

STARTCHAR jisx0212_3172
ENCODING 12658
SWIDTH 960 0
DWIDTH 24 0
BBX 24 24 0 -2
BITMAP
0F000F
0EFFFF
0DFFFF
1E0000
1E701E
1C7FFF
3C7FFF
3C700F
3C700E
7C7FFE
7C7FFE
DC700E
DC8001
DCFFFF
1CFFFF
1CE387
1CE387
1CFFFF
1CFFFF
1CE387
1CE387
1CFFFF
1CFFFF
1CE007
ENDCHAR

STARTCHAR jisx0212_3173
ENCODING 12659
SWIDTH 960 0
DWIDTH 24 0
BBX 24 24 0 -2
BITMAP
0F000F
0EFFFF
0DFFFF
1E0780
1ECF06
1CEE0F
3CFDFF
3CFFFF
3CEEE7
7CEEE7
7CEEE7
DCEFE7
DCEFE7
DCEEE7
1CEEE7
1CEEE7
1CEFE7
1CEFE7
1CEEE7
1CEEE7
1CEEE7
1CFFFF
1CFFFF
1CE007
ENDCHAR

STARTCHAR jisx0212_3174
ENCODING 12660
SWIDTH 960 0
DWIDTH 24 0
BBX 24 24 0 -2
BITMAP
0F7807
0F75FF
0E6FFF
1FFF77
1FF077
1C6F77
3FFF77
3BF0F7
3C6EF7
7FFEEF
7BF1EF
DC73DE
DC777E
DC779C
1C7783
1F8F7F
1BFFFF
1C0D80
1C3DF0
1C7CFC
1CF87F
1FF03F
1BC01F
1F0006
ENDCHAR

STARTCHAR jisx0212_3175
ENCODING 12661
SWIDTH 960 0
DWIDTH 24 0
BBX 24 24 0 -2
BITMAP
0FC0FF
0EE7FF
0EFFF8
1EFEC0
1EE0F3
1CE0E7
3CFFFF
3CFFFF
3CE1C0
7CDDCF
7CDFFF
DCDFFF
DCDC07
DCDFFF
1DDFFF
1DDC07
1DDFFF
1DDFFF
1FDC07
1B9C07
1B9FFF
1F1FFF
1E1C07
1C1C07
ENDCHAR

STARTCHAR jisx0212_3176
ENCODING 12662
SWIDTH 960 0
DWIDTH 24 0
BBX 24 24 0 -2
BITMAP
0F06C7
0EFFFF
0FFFFF
1DCEE7
1DCEEF
1DCEEE
3DFEEE
3DFEFC
3DCEDC
7DCEF8
7DCEEE
DDFEEF
DDFEE7
DDCEE7
1DCEE3
1DCEE3
1DFEE3
1FBEE7
1FEEFF
1BCEFF
1F0EEE
1C0EE0
1C0EE0
1C0EE0
ENDCHAR

STARTCHAR jisx0212_3177
ENCODING 12663
SWIDTH 960 0
DWIDTH 24 0
BBX 24 24 0 -2
BITMAP
0F0BC0
0EDF8E
0EFFFF
1EFB7F
1EE38F
1CEB8E
3CFBFE
3CFB7E
3CE38E
7CEB8E
7CFBFE
DCFB7E
DCE38E
DC0390
1DFC7E
1DFFFE
1C383C
1C1EF8
1C0FF0
1C07E8
1C3EFF
1CFE7F
1FF81F
1BC006
ENDCHAR

STARTCHAR jisx0212_3178
ENCODING 12664
SWIDTH 960 0
DWIDTH 24 0
BBX 24 24 0 -2
BITMAP
0F0387
0EFFFF
0DFFFF
1E0380
1EFFFE
1CFFFE
3C0381
3FFFFF
3BFFFF
7C0780
7CFF78
DC7EF8
DC39E4
DC3FDF
1FC72F
1BFFFF
1DFF83
1DB37B
1C7BBC
1CFB9F
1DF38F
1FE387
1B8383
1C0380
ENDCHAR

STARTCHAR jisx0212_3179
ENCODING 12665
SWIDTH 960 0
DWIDTH 24 0
BBX 24 24 0 -2
BITMAP
0F8780
0F870E
0E7FFF
1DFFFF
1E0D8C
1DDDDF
3CFCDE
3CFCFC
3C787A
7CF7BF
7DFFFF
DFF01F
DB701B
DE7FFC
1C7FFC
1C701C
1C701C
1C7FFC
1C7FFC
1C701C
1C701C
1C7FFC
1C7FFC
1C701C
ENDCHAR

STARTCHAR jisx0212_317A
ENCODING 12666
SWIDTH 960 0
DWIDTH 24 0
BBX 24 24 0 -2
BITMAP
0EE00F
0EFFFF
0EFFFF
1EE1E0
1EE1C0
1CEDCE
3CEFBF
3CEFFF
3CEE0E
7CEFFE
7CEFFE
DCEE0E
DCEE0E
DCEFFE
1DEFFE
1DEEEE
1DCCF0
1DDEDE
1FDEEF
1BBCE7
1BFBE7
1F77E3
1EE1C3
1D8180
ENDCHAR

STARTCHAR jisx0212_317B
ENCODING 12667
SWIDTH 960 0
DWIDTH 24 0
BBX 24 24 0 -2
BITMAP
0F7FFE
0F7FFE
0E701E
1E701C
1E7FFC
1C7FFC
3CF01E
3CCFEF
3CFFFF
7CE00F
7CFFFE
DCFFFE
DCE00E
DCFFFE
1CFFFE
1CE00E
1CFFFE
1CFFFE
1CE00E
1C1EF0
1CFE7F
1FF81F
1BE007
1F0003
ENDCHAR

STARTCHAR jisx0212_317C
ENCODING 12668
SWIDTH 960 0
DWIDTH 24 0
BBX 24 24 0 -2
BITMAP
0F78FE
0F77FE
0E7FF1
1E7F03
1E70FF
1C7FFF
3C3FFF
3D8000
3DDFFF
7DDFFF
7DDC0E
DDDFFE
DDDC0E
DDDFFE
1DDC0E
1DDFFE
1DDC0F
1DE3F3
1DFFFF
1DCC00
1C3F7F
1DFC1F
1FF007
1F8003
ENDCHAR

STARTCHAR jisx0212_317D
ENCODING 12669
SWIDTH 960 0
DWIDTH 24 0
BBX 24 24 0 -2
BITMAP
0FC3C6
0EE38F
0EFFFF
1EFFFF
1EE000
1CE3DC
3CFFBE
3CDFFE
3CE39D
7CFFFB
7CFFFF
DCE39C
DCFFFC
DCDFFC
1DE39C
1DF382
1DBC7F
1DBFFF
1FB80F
1BB80E
1BB80E
1F3FFE
1E3FFE
1C380E
ENDCHAR

STARTCHAR jisx0212_317E
ENCODING 12670
SWIDTH 960 0
DWIDTH 24 0
BBX 24 24 0 -2
BITMAP
0F83C6
0F838F
0E7FFF
1DFFFF
1E0000
1C3FFC
3C3FFC
3C3838
3C3FF8
7C3FF8
7DB83F
DDC7C7
DDFFFF
DDC007
1DDFF7
1DDFF7
1DDC77
1DDC77
1DDFF7
1DDFF7
1DDC7F
1DDC3F
1DC00E
1DC00C
ENDCHAR

STARTCHAR jisx0212_3221
ENCODING 12833
SWIDTH 960 0
DWIDTH 24 0
BBX 24 24 0 -2
BITMAP
0F61FE
0F7FFE
0E7FE0
1EF63E
1EF3DF
1CEDEF
3DEF77
3DDFF6
3F7CF0
7B39E8
7C1FBE
DC1B9F
DFE76F
DBFFFF
1DFB03
1D83C4
1E7FBF
1BFFFF
1C06C0
1C1EF8
1C7E7E
1DFC3F
1FF01F
1F8006
ENDCHAR

STARTCHAR jisx0212_3222
ENCODING 12834
SWIDTH 960 0
DWIDTH 24 0
BBX 24 24 0 -2
BITMAP
0EE3FE
0EFFFE
0EFFE0
1EE00E
1EFFFF
1CFFFF
3CE00E
3CFFFE
3CFFFE
7CE00E
7CE701
DDFF7F
DDFF7F
DDCF0F
1DFF3F
1DB777
1DFFFF
1FCECF
1BBF3F
1BF777
1B77F7
1EEECF
1DBF3F
1C0E0E
ENDCHAR

STARTCHAR jisx0212_3223
ENCODING 12835
SWIDTH 960 0
DWIDTH 24 0
BBX 24 24 0 -2
BITMAP
0F9F3E
0FFFFE
0E7CF8
1DDBC7
1E3DFF
1BFFFF
3C1DC0
3DFFFE
3DFFFE
7C1DDD
7FFFFB
DFFFFF
DC1DDC
DDFFFC
1DFFFC
1C3DDC
1C7DE0
1CFDF8
1DDDBE
1FDDDF
1B9DCF
1F1DC7
1C1DC3
1C1DC0
ENDCHAR

STARTCHAR jisx0212_3224
ENCODING 12836
SWIDTH 960 0
DWIDTH 24 0
BBX 24 24 0 -2
BITMAP
0F87C0
0F8F80
0E1EE0
1E1EF0
1E3C78
1C7BBE
3CFFDF
3DE00F
3FFFFF
7B7FFB
7C701C
DC7FFC
DC7FFC
DC701C
1C7FFC
1C7FFC
1CF01E
1CFFE7
1CFFFF
1DF80E
1DB80E
1FBFFE
1B3FFE
1C380E
ENDCHAR

STARTCHAR jisx0212_3225
ENCODING 12837
SWIDTH 960 0
DWIDTH 24 0
BBX 24 24 0 -2
BITMAP
0F83E0
0F83E0
0E4387
1EFFFF
1FFFFF
1DC007
3BBC7E
3DFF3C
3C7BDF
7CF7CF
7DEF87
DDDEE6
DDBEF8
DC7C7E
1CF83F
1DF7DF
1FFFFF
1B701B
1E701C
1C701C
1C701C
1C7FFC
1C7FFC
1C701C
ENDCHAR

STARTCHAR jisx0212_3226
ENCODING 12838
SWIDTH 960 0
DWIDTH 24 0
BBX 24 24 0 -2
BITMAP
0F8F80
0F8F1C
0E1EFE
1E3FFE
1E7C3C
1CFEF8
3DF7F0
3DBBE0
3C1FC0
7C3F18
7CFE3C
DFDDFE
DBBFFE
DC7380
1CE38F
1F1FFF
1BFFFF
1C0380
1CF38F
1CE38E
1CE38E
1CFFFE
1CFFFE
1CE00E
ENDCHAR

STARTCHAR jisx0212_3227
ENCODING 12839
SWIDTH 960 0
DWIDTH 24 0
BBX 24 24 0 -2
BITMAP
0FB83C
0FBC7C
0E1C78
1E1CF7
1FFBEF
1DFFFF
3C0380
3C039C
3C7FFE
7C7FFE
7C0380
DC038F
DFFFFF
DBFFFF
1C1C00
1C3C1E
1C7BFF
1C7FFF
1CF1C0
1DE1C3
1FC1C7
1BBFFF
1EFFFF
1C0000
ENDCHAR

STARTCHAR jisx0212_3228
ENCODING 12840
SWIDTH 960 0
DWIDTH 24 0
BBX 24 24 0 -2
BITMAP
0F9FF8
0FFFF8
0E6060
1EF7B8
1EFFBE
1DEF5F
3FDDEF
3B3EF7
3DFFFB
7CFC38
7CC237
DF3ECF
DBFEFF
DC7E3F
1DEEF7
1FFFFF
1BDDEF
1F3F9F
1CFE7F
1DEEF7
1FEFF7
1B9DCF
1E7F3F
1C1C0E
ENDCHAR

STARTCHAR jisx0212_3229
ENCODING 12841
SWIDTH 960 0
DWIDTH 24 0
BBX 24 24 0 -2
BITMAP
0F0E0F
0EFF0F
0DFF0E
1E000E
1FFF8E
1BFF8F
3C007D
3DFFFF
3DFF0E
7C00CE
7DFEEE
DDFEEE
DC006E
DD8E6E
1DFF6E
1DFF6E
1DCE6E
1DCE0E
1DCE0E
1DCE0E
1DFE7E
1DFE7E
1DCE1C
1DC018
ENDCHAR

STARTCHAR jisx0212_322A
ENCODING 12842
SWIDTH 960 0
DWIDTH 24 0
BBX 24 24 0 -2
BITMAP
0F7C7C
0F7C7C
0E7070
1E7070
1E7677
1DFFFF
3BFDFF
3C180C
3B1D8F
7B9DCE
7F9DCE
DD9CCE
DDDCEE
DDDCEE
1DDCEE
1DD8EC
1DF8EC
1DB8FC
1DB6DC
1E6EDB
1FFCDF
1BE337
1F07FF
1C0000
ENDCHAR

STARTCHAR jisx0212_322B
ENCODING 12843
SWIDTH 960 0
DWIDTH 24 0
BBX 24 24 0 -2
BITMAP
0F63C0
0E6387
0EFFFF
1FFFFF
1DC007
1BC00E
3DBFFB
3DFFFF
3C0780
7C1F0F
7C7E1F
DDFBBF
DFE7FC
DB9DF0
1C7FE0
1DFBF8
1FE7FC
1B9EDF
1C7EFF
1DF9EF
1FE7E7
1F9FC3
1C0780
1C0600
ENDCHAR

STARTCHAR jisx0212_322C
ENCODING 12844
SWIDTH 960 0
DWIDTH 24 0
BBX 24 24 0 -2
BITMAP
0F8F80
0F8F70
0E1E7C
1FFDBE
1DFFFE
1CFC0E
3CC3D8
3DF7FE
3DBFB7
7FDEFF
7FFEFF
DB9D73
DC7BBC
DCF7DF
1DEF6F
1FDEF7
1B3DEB
1CF3DF
1DCF3C
1C3CF8
1CF3F0
1C0FC0
1DFF00
1DF800
ENDCHAR

STARTCHAR jisx0212_322D
ENCODING 12845
SWIDTH 960 0
DWIDTH 24 0
BBX 24 24 0 -2
BITMAP
0FC786
0EE70F
0EFEFF
1EFFFF
1EE387
1CE777
3CF7F7
3CDE77
3CEFE7
7CDDF7
7CE377
DCFF37
DCDC37
DCE3CF
1CFFFF
1CE307
1C1DEC
1CDDEF
1DDCF7
1DDCDF
1FDC3B
1BDFFB
1F9FFB
1C0FF8
ENDCHAR

STARTCHAR jisx0212_322E
ENCODING 12846
SWIDTH 960 0
DWIDTH 24 0
BBX 24 24 0 -2
BITMAP
0FE3EE
0EFBEF
0EFB8F
1EE38E
1EFFFE
1CFFFE
3CE00E
3D0EC1
3DFEFF
7DFEFF
7DCEE7
DDEEF7
DDFEFF
DDBEDF
1DFEFF
1DCEE7
1DFEFF
1DBEDF
1DFEFF
1FCFE7
1BBDDF
1B7DBF
1F1F8E
1E1B0C
ENDCHAR

STARTCHAR jisx0212_322F
ENCODING 12847
SWIDTH 960 0
DWIDTH 24 0
BBX 24 24 0 -2
BITMAP
0F8780
0F870E
0E7FFF
1EFFFF
1E3078
1C1CF7
3FFFEF
3BFFFF
3C0000
7CFFFE
7CFFFE
DCE01E
DCFFFC
DCFFFC
1CE01C
1CFFFC
1CFFFC
1CDDDF
1C3DC3
1C39C7
1C79FF
1DF1FF
1FE0FF
1B8000
ENDCHAR

STARTCHAR jisx0212_3230
ENCODING 12848
SWIDTH 960 0
DWIDTH 24 0
BBX 24 24 0 -2
BITMAP
0EFD87
0EEFBF
0FFEFF
1DEEC7
1DDEFE
1FFC5C
3B7C78
3FB83C
3DF8FF
7CF7DF
7DFFEF
DFC007
DB800B
DE7FFE
1BFFFF
1C0380
1C7B78
1CFBBE
1CF39F
1DE38F
1FDF87
1B9F87
1F0703
1C0600
ENDCHAR

STARTCHAR jisx0212_3231
ENCODING 12849
SWIDTH 960 0
DWIDTH 24 0
BBX 24 24 0 -2
BITMAP
0F83C0
0F838E
0E7FFF
1DFFFF
1E3078
1C1CF7
3FFFEF
3BFFFF
3C0000
7CFFFF
7CFFFF
DCE00E
DCFFFE
DCFFFE
1CE00E
1CFFFE
1CFFFE
1CE381
1F1FFF
1BFFFF
1C0380
1C0380
1C0380
1C0380
ENDCHAR

STARTCHAR jisx0212_3232
ENCODING 12850
SWIDTH 960 0
DWIDTH 24 0
BBX 24 24 0 -2
BITMAP
0F76DE
0F76DD
0EFFFB
1DFFFF
1E76DC
1CF6DB
3CE7DF
3DE7DF
3FC6CF
7BB933
7DFFFF
DB8307
DFC3CE
DAFFB7
1CFFFF
1CE38F
1CE38E
1CE38E
1CE38E
1CE3FE
1CE37E
1CE39C
1CE398
1C0380
ENDCHAR

STARTCHAR jisx0212_3233
ENCODING 12851
SWIDTH 960 0
DWIDTH 24 0
BBX 24 24 0 -2
BITMAP
0F9E78
0F9C77
0E7FFF
1DFFFF
1E1C70
1CFC7F
3CE38F
3DFFFF
3DE007
7DC0E7
7FFFF7
DBFFF7
DEEEE7
DEFFE7
1CFFE7
1CEEE7
1CFFE7
1CFFE7
1CEEEF
1CEEEF
1CEFFE
1CEFFE
1CEDDC
1C0018
ENDCHAR

STARTCHAR jisx0212_3234
ENCODING 12852
SWIDTH 960 0
DWIDTH 24 0
BBX 24 24 0 -2
BITMAP
0F000F
0EFFFF
0DFFFF
1E0EE0
1EFFFF
1CFFFF
3CEEEE
3CEEEE
3CEEEE
7CFFFE
7CFFFE
DCE00E
DC1FFC
DCFFFE
1C0001
1FFFFF
1BFFFF
1C6380
1CFBBE
1CF39F
1DEF8F
1FDF87
1B8707
1E0600
ENDCHAR

STARTCHAR jisx0212_3235
ENCODING 12853
SWIDTH 960 0
DWIDTH 24 0
BBX 24 24 0 -2
BITMAP
0FFF7F
0DFF7F
0E1F1F
1E7777
1EFFFF
1DEEEF
3D9F1F
3C7777
3CFFF7
7DEEC7
7D9EF8
DC7D7E
DCFBBF
DFF7DF
1BCF6F
1F3EFB
1CF9E6
1DE7DF
1C1F3E
1CFCFC
1CF3F0
1C0FC0
1DFF00
1DF000
ENDCHAR

STARTCHAR jisx0212_3236
ENCODING 12854
SWIDTH 960 0
DWIDTH 24 0
BBX 24 24 0 -2
BITMAP
0F3C3C
0E3BBC
0FFFB8
1FFFF8
1E3878
1DBF73
3DF77F
3DFFFF
3DB6EE
7DB6EE
7DFFEE
DDFF6E
DDB76E
DDB76E
1DFF2E
1DFF3C
1DB7BC
1E79FE
1FFFEE
1C386F
1C39EF
1C3BC7
1C3F87
1C3703
ENDCHAR

STARTCHAR jisx0212_3237
ENCODING 12855
SWIDTH 960 0
DWIDTH 24 0
BBX 24 24 0 -2
BITMAP
0FCEC7
0FFEFF
0EFEFF
1EEEE7
1EFEFF
1CFEFF
3CE6E3
3CFEFF
3CFEFF
7C7E7F
7C0000
DC1E7F
DDFDF7
DDFFFF
1C1C70
1C1C77
1FFFFF
1BFFFF
1C1800
1C7EFC
1CF83F
1FF00F
1BC007
1F0003
ENDCHAR

STARTCHAR jisx0212_3238
ENCODING 12856
SWIDTH 960 0
DWIDTH 24 0
BBX 24 24 0 -2
BITMAP
0FF87C
0FBC7C
0E3CF3
1FDBEF
1DFFFF
1C0380
3CFFFF
3CFFFF
3C0380
7FFFFF
7BFFFF
DC6398
DC3BBE
DC3BF9
1FF777
1BFFFF
1C0000
1CFFFF
1CFFFF
1CE00E
1CE00E
1CFFFE
1CFFFE
1CE00E
ENDCHAR

STARTCHAR jisx0212_3239
ENCODING 12857
SWIDTH 960 0
DWIDTH 24 0
BBX 24 24 0 -2
BITMAP
0F63DC
0F7FBE
0E7FFE
1E739C
1E7FFC
1C7FFC
3C739F
3F8FE7
3BFFFF
7C0000
7C7FFE
DC7FFE
DC701C
DC7FFC
1C701C
1C7FFC
1C701C
1C7FFC
1C7FFC
1C701C
1C1EF2
1CFE3F
1FF80F
1BC007
ENDCHAR

STARTCHAR jisx0212_323A
ENCODING 12858
SWIDTH 960 0
DWIDTH 24 0
BBX 24 24 0 -2
BITMAP
0F9FF8
0FFFF8
0E6030
1EF8FE
1EF7DF
1DFFEF
3FCDC7
3BFFFF
3EFFFE
7CEDAE
7CDDFE
DCF8EE
DCE71E
DCFFFE
1CE00E
1CFFFE
1CE06F
1F1FF3
1BFFFF
1C7070
1C3FF0
1C1BF0
1C18E0
1C00C0
ENDCHAR

STARTCHAR jisx0212_323B
ENCODING 12859
SWIDTH 960 0
DWIDTH 24 0
BBX 24 24 0 -2
BITMAP
0F3C3C
0EBA3C
0DF738
1DFF78
1DBB78
1FBB73
3BBB7F
3BBC7F
3F77EE
7DFFEE
7D86EE
DDD7EE
DD7F6E
DD7F6E
1D572E
1D573C
1D573C
1D773E
1D777E
1DD76F
1DAFEF
1DBEE7
1D8DC7
1D8B83
ENDCHAR

STARTCHAR jisx0212_323C
ENCODING 12860
SWIDTH 960 0
DWIDTH 24 0
BBX 24 24 0 -2
BITMAP
0F0D8C
0EFFDF
0DFFFF
1E0EBC
1DDEE7
1CFC7F
3CFC7E
3C78B8
3CF7DF
7DFFEF
7FC017
DBFFFB
DCFFFE
DCE01C
1CE01C
1CFFFC
1CFFFC
1C3060
1C3CF8
1C1CF6
1C1DEF
1FFBDF
1BFFFF
1C0000
ENDCHAR

STARTCHAR jisx0212_323D
ENCODING 12861
SWIDTH 960 0
DWIDTH 24 0
BBX 24 24 0 -2
BITMAP
0F8007
0DFFFF
0DFFFF
1DC007
1DFFFF
1DFFFF
3DC017
3DCFFC
3DC073
7DFFEF
7DBFFF
DDC0E0
DDC7E0
DDC1C7
1DFFBF
1DFFFF
1DC70E
1FCEDD
1BBFFB
1BFEFF
1B6E1C
1F1EFC
1E7EFC
1C1C38
ENDCHAR

STARTCHAR jisx0212_323E
ENCODING 12862
SWIDTH 960 0
DWIDTH 24 0
BBX 24 24 0 -2
BITMAP
0F3B8F
0E7B9F
0E7B9E
1EF3BC
1FDFF7
1DFF7F
3DBB6F
3DFBFE
3C739D
7FDFF7
7BFFFF
DDEF73
DD83D8
DE7DFF
1BFFFF
1CE1CC
1CF9FF
1DFEDE
1DDEFD
1DCE7B
1FCDFF
1B83DF
1F3F8F
1E3C03
ENDCHAR

STARTCHAR jisx0212_323F
ENCODING 12863
SWIDTH 960 0
DWIDTH 24 0
BBX 24 24 0 -2
BITMAP
0F07FE
0EFFFE
0DFFCD
1E661F
1E7F9E
1C3BBC
3DBBBB
3DF777
3FFFFF
7B6007
7F7E1E
DBF79D
DCFFFB
DDEDFF
1DDDDC
1FDDDC
1BFDDF
1F7BFB
1E77FF
1CF01C
1DE01C
1FC01C
1B801C
1E001C
ENDCHAR

STARTCHAR jisx0212_3240
ENCODING 12864
SWIDTH 960 0
DWIDTH 24 0
BBX 24 24 0 -2
BITMAP
0F8EC7
0DFEFF
0DFEFF
1DCEE7
1DFEFF
1DFEFF
3DCEE7
3C0008
3CFFFF
7CFFFF
7CE38E
DCFFFE
DCFFFE
DCE38E
1CFFFE
1CFFFE
1CE38F
1C0383
1FFFFF
1BFFFF
1C0380
1C0380
1C0380
1C0380
ENDCHAR

STARTCHAR jisx0212_3241
ENCODING 12865
SWIDTH 960 0
DWIDTH 24 0
BBX 24 24 0 -2
BITMAP
0FBC7C
0FB86E
0E3B77
1FFFF7
1FFFF7
1C0078
3D87FF
3DFF70
3DFF70
7DC77E
7DC77E
DDFF7C
DDFF7C
DDB7FC
1DF8FC
1DFEDC
1DB6DF
1FB7DB
1BB7DB
1BBDDB
1F7B9F
1DF71F
1C6E0F
1C5C00
ENDCHAR

STARTCHAR jisx0212_3242
ENCODING 12866
SWIDTH 960 0
DWIDTH 24 0
BBX 24 24 0 -2
BITMAP
0F83CE
0FFFBF
0EFFFF
1E0380
1E3BBF
1DFC7B
3BFFFF
3C3838
3CF83E
7CC7CF
7CFFFF
DCE00E
DCFFFE
DCFFFE
1CE00E
1CFFFE
1CFFFE
1CE00E
1CFFFE
1CFFFE
1C1870
1DFE1F
1FF80F
1F8003
ENDCHAR

STARTCHAR jisx0212_3243
ENCODING 12867
SWIDTH 960 0
DWIDTH 24 0
BBX 24 24 0 -2
BITMAP
0FFEFF
0DFEFF
0DCEE7
1DFEFF
1DFEFF
1DCEE7
3DCEE7
3DFEFF
3DFEFF
7DCEE7
7DD007
DDDFF7
DDDFF7
DDDCE7
1DDFE7
1DDFE7
1DDCE7
1DDFE7
1DDFE7
1DFCE7
1DBBE7
1DB7FF
1DF1BF
1DE00E
ENDCHAR

STARTCHAR jisx0212_3244
ENCODING 12868
SWIDTH 960 0
DWIDTH 24 0
BBX 24 24 0 -2
BITMAP
0FC3D8
0EF3BE
0E7BBE
1E7BF9
1FB777
1DFFFF
3C0FC0
3C3FF8
3C7B7E
7DFBBF
7FE39F
DBD386
DCFC1E
DCEF9D
1DFFFB
1DCDFF
1FDDDC
1BFDDD
1F7FFF
1E77FF
1CF01C
1DE01C
1FC01C
1B001C
ENDCHAR

STARTCHAR jisx0212_3245
ENCODING 12869
SWIDTH 960 0
DWIDTH 24 0
BBX 24 24 0 -2
BITMAP
0EE3FF
0EFFFF
0EFFE0
1EE007
1EFFFF
1CFFFF
3CE007
3CFFFF
3CFFFF
7CEC67
7CEF78
DCFEF7
DCDFEF
DCDFFF
1DFCE0
1DBFFF
1DFFFF
1DDCE0
1FDFFF
1B9FFF
1B9CE0
1F1FFF
1E1FFF
1C1C00
ENDCHAR

STARTCHAR jisx0212_3246
ENCODING 12870
SWIDTH 960 0
DWIDTH 24 0
BBX 24 24 0 -2
BITMAP
0EE01E
0EFFFF
0EFFFF
1EEEEE
1EEEEE
1CFEFE
3CFEFE
3DEEEF
3D9EF7
7DFEFF
7DCEE7
DDCEE7
DDFEFF
DDFEFF
1DCEE7
1DCEE7
1DFEFF
1DFEFF
1DCEE7
1DCEE3
1C0EE7
1C0F1F
1C0FFF
1C07FF
ENDCHAR

STARTCHAR jisx0212_3247
ENCODING 12871
SWIDTH 960 0
DWIDTH 24 0
BBX 24 24 0 -2
BITMAP
0FBFFC
0FBFFC
0E3838
1E3838
1E3FF8
1C3FF8
3DB83F
3DCEC7
3DFEFF
7DCEE7
7DCEE7
DDFEFF
DDFEFF
DDCFE7
1C0380
1FFFFF
1BFFFF
1C0FE0
1C3F7C
1C7BBF
1DFB9F
1FE38F
1F8383
1C0380
ENDCHAR

STARTCHAR jisx0212_3248
ENCODING 12872
SWIDTH 960 0
DWIDTH 24 0
BBX 24 24 0 -2
BITMAP
0F07FE
0EFFFE
0DFFD8
1E663E
1E3BBC
1DBBFB
3DF777
3FFFFF
3B8307
7F5DFC
7BDDAF
DCDE77
DDDFF7
DCCFF0
1C1E08
1C3DFC
1C7FFC
1CFC78
1DEFF0
1FC7E0
1B9FFC
1C7EFF
1FFC3F
1BE00E
ENDCHAR

STARTCHAR jisx0212_3249
ENCODING 12873
SWIDTH 960 0
DWIDTH 24 0
BBX 24 24 0 -2
BITMAP
0F83C6
0F838F
0E7FFF
1DFFFF
1E0000
1CFFFF
3CFFFF
3CE00F
3CEFEE
7CEEEE
7CEFEE
DCF01E
DCFFFE
DCE00E
1C7FFC
1C7FFE
1C701C
1C7FFC
1C701C
1C7FFF
1C701B
1F8FE7
1BFFFF
1C0000
ENDCHAR

STARTCHAR jisx0212_324A
ENCODING 12874
SWIDTH 960 0
DWIDTH 24 0
BBX 24 24 0 -2
BITMAP
0EEF3C
0EEF3C
0EEEB8
1FFDF8
1FFFFB
1CEE77
3DEE7F
3DC0EE
3DFFEE
7DFFEE
7F86EE
DBFF6E
DBFF6E
DFB76E
1DB72E
1DB73C
1DF73C
1DF77E
1DBF6E
1D8FEF
1C7EEF
1C7DC7
1C1B87
1C1703
ENDCHAR

STARTCHAR jisx0212_324B
ENCODING 12875
SWIDTH 960 0
DWIDTH 24 0
BBX 24 24 0 -2
BITMAP
0EFFFF
0EFFFF
0EEEEE
1EEEEE
1EFFFE
1CFFFE
3CE00F
3F1FF7
3BFFFF
7C0000
7CFFFF
DCFFFF
DCE00E
DCE00E
1CFFFE
1CFFFE
1CDEC7
1C3CFF
1DFC5E
1FDFF8
1F3BBF
1DFF1F
1CF00F
1CC006
ENDCHAR

STARTCHAR jisx0212_324C
ENCODING 12876
SWIDTH 960 0
DWIDTH 24 0
BBX 24 24 0 -2
BITMAP
0F87C0
0F8F80
0E1EE0
1E1EF8
1E3C7E
1C7BDF
3CFFEF
3DE007
3FDFFB
7BFFFF
7CDBB7
DCFFF7
DCEF77
DCFBEF
1CFFFF
1C300C
1C3FFE
1C381C
1C3FFC
1C3FFC
1C381C
1C3FFC
1C3FFC
1C381C
ENDCHAR

STARTCHAR jisx0212_324D
ENCODING 12877
SWIDTH 960 0
DWIDTH 24 0
BBX 24 24 0 -2
BITMAP
0FBC70
0FFBF8
0E7FFB
1EF077
1EEFCF
1DFFFF
3FE773
3BEF7F
3EFE7F
7CDC3F
7CF3C0
DCE7FF
DCF807
DCFFFF
1CE000
1CEFFE
1CE000
1DFFFE
1DD807
1DDFFF
1FDC0E
1B9FFE
1F1FFE
1E1C0E
ENDCHAR

STARTCHAR jisx0212_324E
ENCODING 12878
SWIDTH 960 0
DWIDTH 24 0
BBX 24 24 0 -2
BITMAP
0F3C3C
0EBB3C
0DF7B8
1DFFF8
1DC77B
1DFF77
3DFF7F
3DC7EE
3DFEEE
7DFEEE
7DB7EE
DC3D6E
DFFB6E
DBFF6E
1CE02E
1CFF3C
1CFF3C
1DEE7E
1DEE6E
1DDEEF
1FDFEF
1BBDC7
1EFB87
1E3703
ENDCHAR

STARTCHAR jisx0212_324F
ENCODING 12879
SWIDTH 960 0
DWIDTH 24 0
BBX 24 24 0 -2
BITMAP
0FF777
0EFBF7
0EEEF7
1EF7E7
1EDBBF
1CE6DF
3CDF77
3CFBB7
3CE5CF
7CFFFF
7CDCE7
DC3CFB
DC7BFF
DDEF7F
1FFE8C
1B9FFE
1C7C3C
1CEEF8
1DE7F0
1FCBE8
1B3EFF
1CFE7F
1FF81F
1BC006
ENDCHAR

STARTCHAR jisx0212_3250
ENCODING 12880
SWIDTH 960 0
DWIDTH 24 0
BBX 24 24 0 -2
BITMAP
1E787E
1C776F
1FFF77
3BFF77
3C7070
3BFFFF
37FFFF
787070
7FFF77
77FF77
F87077
F7FF7F
B7FF6F
37773E
37FF3E
37773E
37FF1D
3F773D
38FB7D
3FFFEF
3870EF
3873C7
387787
387703
ENDCHAR

STARTCHAR jisx0212_3251
ENCODING 12881
SWIDTH 960 0
DWIDTH 24 0
BBX 24 24 0 -2
BITMAP
0F0007
0EFFFF
0DFFFF
1E0EE0
1EFFFF
1CFFFF
3CEEE7
3CEEE7
3CFFFF
7CFFFF
7CE007
DC761C
DC7F1F
DCFFFB
1CEFFF
1DFD9C
1DDDDC
1FFDDF
1B7FFB
1C3BFF
1CF39C
1DE01C
1FC01C
1F001C
ENDCHAR

STARTCHAR jisx0212_3252
ENCODING 12882
SWIDTH 960 0
DWIDTH 24 0
BBX 24 24 0 -2
BITMAP
0F03C0
0EC387
0EFFFF
1FFFFF
1DC037
1BBFFE
3D9B98
3C7FFE
3DFBF8
7FE7E6
7B9F9F
DCFFFF
DF700E
DC7FFE
1C7FFE
1C700E
1C7FFE
1C700E
1C7FFE
1C7FFE
1C1800
1CFE7F
1FF81F
1BC007
ENDCHAR

STARTCHAR jisx0212_3253
ENCODING 12883
SWIDTH 960 0
DWIDTH 24 0
BBX 24 24 0 -2
BITMAP
0FEC07
0DFDFF
0DDDFF
1DBC07
1DF2FE
1DC67C
3DFF38
3DFF1F
3CFEFB
7D83FF
7DEC3B
DFDDB7
DBFDFE
DF71F9
1F75BF
1CFFBF
1FFFB8
1CE1B8
1DFBF8
1DDBF8
1FDF7F
1B973F
1F0E0F
1E0C00
ENDCHAR

STARTCHAR jisx0212_3254
ENCODING 12884
SWIDTH 960 0
DWIDTH 24 0
BBX 24 24 0 -2
BITMAP
0F8CEE
0DEFFF
0EEFFF
1E6EEE
1E6FFE
1C0FFE
3F8EEF
3BB1F3
3DFFFF
7DCC06
7C0FFF
DCEE0E
DFEFFE
DBEFFE
1CEE01
1CEFFF
1CEFFF
1CEE07
1CEFFF
1DEFFF
1FFE07
1FBDF8
1B9FFF
1B07FF
ENDCHAR

STARTCHAR jisx0212_3255
ENCODING 12885
SWIDTH 960 0
DWIDTH 24 0
BBX 24 24 0 -2
BITMAP
0F7800
0EF007
0EEFFF
1FFFFF
1DF6DC
1B76DF
3CFFFB
3BFFFF
3C76DC
7C76DF
7FFFFB
DBFFFF
DC7000
DCFF9F
1CFFFB
1DEDFF
1DDDDC
1FFDDF
1B7FFB
1E37FF
1CF01C
1DE01C
1FC01C
1B001C
ENDCHAR

STARTCHAR jisx0212_3256
ENCODING 12886
SWIDTH 960 0
DWIDTH 24 0
BBX 24 24 0 -2
BITMAP
0F03C0
0EC387
0EFFFF
1FFFFF
1DC307
1BDDEE
3D5DBF
3CDE77
3DDFFB
7DCFF7
7CF00E
DCFFFF
DCEEEE
DCEEEF
1FFFFD
1BFFFF
1C0000
1DFFFF
1DFFFF
1C0380
1C1F80
1C1F80
1C0700
1C0600
ENDCHAR

STARTCHAR jisx0212_3257
ENCODING 12887
SWIDTH 960 0
DWIDTH 24 0
BBX 24 24 0 -2
BITMAP
0F3C3C
0EBABB
0EB6BF
1FBFB7
1DBDBE
1BBBB8
3DFDFE
3C7E7F
3DEEEF
7DEFE6
7F919F
DBFFFF
DF8307
DB03CC
1CFFB7
1BFFFF
1C0FC0
1C3FF8
1C7B7E
1DFBBF
1FF39F
1BC38F
1F0383
1C0380
ENDCHAR

STARTCHAR jisx0212_3258
ENCODING 12888
SWIDTH 960 0
DWIDTH 24 0
BBX 24 24 0 -2
BITMAP
0F000F
0EFFFF
0DFFFF
1E3380
1E7B7F
1CFB9F
3FF387
3BCFFB
3DFFFF
7DCB97
7DFFFF
DDBB77
DDDFBF
DDBF7F
1DF7EF
1DCB97
1DFFFF
1DBB77
1DDFBF
1DBF7F
1DF7EF
1DE3D7
1DC3BF
1DC38E
ENDCHAR

STARTCHAR jisx0212_3259
ENCODING 12889
SWIDTH 960 0
DWIDTH 24 0
BBX 24 24 0 -2
BITMAP
0FC1C3
0EFFFF
0EFFFF
1EE000
1EE71F
1CFFFB
3CFFFF
3CE71C
3CE7FC
7CE71F
7CF8E3
DCFFFF
DCE0E0
DCDFFF
1DDFFF
1DDCE7
1DDFFF
1DDCE7
1FDFFF
1B9FFF
1B8600
1F3FBF
1EFE0F
1CF003
ENDCHAR

STARTCHAR jisx0212_325A
ENCODING 12890
SWIDTH 960 0
DWIDTH 24 0
BBX 24 24 0 -2
BITMAP
0F3B76
0EFFFF
0DFFFF
1E3870
1FFFFF
1BFFFF
3C78D8
3CEFDF
3DEDCF
7FD3BF
7B7FFB
DC701C
DC7FFC
DC7FFC
1C701C
1C7FFC
1C7FFC
1C701C
1C7FFC
1C7FFC
1C1802
1DFE7F
1FF80F
1F8003
ENDCHAR

STARTCHAR jisx0212_325B
ENCODING 12891
SWIDTH 960 0
DWIDTH 24 0
BBX 24 24 0 -2
BITMAP
0FBDBF
0DFDFF
0DF9F8
1DC5C7
1DFFFF
1DFFFF
3DDDDC
3FDFDC
3B9B9C
7BE762
7EFFFE
DEE00E
DCFFFE
DCFFFE
1CE00E
1CFFFE
1CFFFE
1CE00E
1CFFFE
1CFFFE
1C1800
1DFE7F
1FF80F
1FC003
ENDCHAR

STARTCHAR jisx0212_325C
ENCODING 12892
SWIDTH 960 0
DWIDTH 24 0
BBX 24 24 0 -2
BITMAP
1E78FF
1C76FF
1FFEE7
3BFEE7
3C70FF
3BFEFF
3BFEE7
7870E7
7FFFFF
77FFFF
F800E7
FBFEE7
BBFEFF
3B6EFF
3B6EDC
3B6EFC
3BFEDC
3BFEDF
3B8FDB
3B8DDB
3BFDDB
3B7FDF
3B9B9F
3B970F
ENDCHAR

STARTCHAR jisx0212_325D
ENCODING 12893
SWIDTH 960 0
DWIDTH 24 0
BBX 24 24 0 -2
BITMAP
1E7CFF
1C7CFF
1C72E7
3FFEE7
3BFEFF
3B18FF
39DEE7
79FCE7
79BAFF
7FF7FF
F7FFE7
F870E7
B876FF
3BFEFF
3BFEDC
38F0FC
39FCDC
39FEDF
3BEFDB
3B7DDB
3F71DB
3673DF
3C779F
38770F
ENDCHAR

STARTCHAR jisx0212_325E
ENCODING 12894
SWIDTH 960 0
DWIDTH 24 0
BBX 24 24 0 -2
BITMAP
0F77B8
0E773E
0EFF5F
1EEEEF
1FFFF7
1DCD88
3B3EFF
3FFFFF
3C3870
7CF7BE
7DFFFF
DFF38F
DB7FF7
DE738B
1C7FF8
1C7386
1C7FFF
1C7FFF
1CF6CF
1DDB6E
1FDBFE
1BDB9E
1F98FC
1C0038
ENDCHAR

STARTCHAR jisx0212_325F
ENCODING 12895
SWIDTH 960 0
DWIDTH 24 0
BBX 24 24 0 -2
BITMAP
1EF1E0
1CEDCE
1FFDFF
3FFDFF
3B19C0
39DDFF
39F9FF
79BFCE
7FF60E
7FFFFE
F801FE
FBFDC0
BBFDFF
3B9DFF
3BFDC0
3BFDFF
3B9DFF
3BFDC0
3BFDFF
3B9DFF
3B9DC3
3BFDFF
3B7DFF
3BB8FF
ENDCHAR

STARTCHAR jisx0212_3260
ENCODING 12896
SWIDTH 960 0
DWIDTH 24 0
BBX 24 24 0 -2
BITMAP
0FBE60
0FBDF0
0E7FFE
1EF0CF
1FFFFF
1DF00E
3B7FFF
3C3877
3C3F7E
7C3873
7DF77F
DDFEBF
DCDDE0
DC3FFE
1CF1CF
1DFFFF
1FF38E
1B7FFE
1C7FFE
1C77B1
1C0FDB
1CFDEF
1FF9FF
1BC0FF
ENDCHAR

STARTCHAR jisx0212_3261
ENCODING 12897
SWIDTH 960 0
DWIDTH 24 0
BBX 24 24 0 -2
BITMAP
0F0387
0EFFFF
0DFFFF
1E0000
1EFEFF
1CFEFF
3CEEEE
3CFEFE
3CEEEE
7C1000
7DFFFF
DDFFFF
DC1CE0
DCFFFF
1F1CE3
1BFFFF
1C1D86
1CFCDF
1FF8FE
1BBB78
1F7FBF
1DFF1F
1CF807
1CC003
ENDCHAR

STARTCHAR jisx0212_3262
ENCODING 12898
SWIDTH 960 0
DWIDTH 24 0
BBX 24 24 0 -2
BITMAP
0F8780
0F8F07
0E0EFF
1E1FFF
1FBF3C
1DFBF8
3D75F4
3DEFFF
3D9F3F
7D78CF
7DBFFE
DDBDAE
DDB5FE
DDBFEE
1DBFFE
1D81C1
1DBFFF
1DC1C0
1D7FFF
1C0000
1C7FFF
1CF777
1CF773
1CE663
ENDCHAR

STARTCHAR jisx0212_3263
ENCODING 12899
SWIDTH 960 0
DWIDTH 24 0
BBX 24 24 0 -2
BITMAP
1DFFFF
1DFFFF
1DDDCE
3DDDCE
3DFFFE
39FFFE
39C18C
78F1DE
7FBBFD
77FBB7
FB7FFF
FBF7B8
B8DFBF
3FFBF7
3FFFFF
37EFB8
38FBBF
37F3F7
37DBFF
36DBB8
3EDBBF
3EFBF7
3CE3FF
38E300
ENDCHAR

STARTCHAR jisx0212_3264
ENCODING 12900
SWIDTH 960 0
DWIDTH 24 0
BBX 24 24 0 -2
BITMAP
1EB976
1DFFFF
1DFFFF
3DBB70
3E7CFF
3BFFFF
38DCDB
79FBDF
7BBDDF
7FDBAF
F6FFFC
F8E01C
B8FFFC
38FFFC
38E01C
38FFFC
38FFFC
38E01C
38FFFC
38FFFC
383002
3BFC7F
3FF00F
3F0003
ENDCHAR

STARTCHAR jisx0212_3265
ENCODING 12901
SWIDTH 960 0
DWIDTH 24 0
BBX 24 24 0 -2
BITMAP
000F80
000F80
0C0E0C
0E0E1E
0FFFFF
0FFFFF
0E0E00
0E0E00
0E1E00
0E1E06
0E1C0F
7FFFFF
7FFFFF
001C00
003FC0
0077C0
007703
00F703
01F707
03E707
0FC70E
3F87FF
FE07FF
F003FF
ENDCHAR

STARTCHAR jisx0212_3266
ENCODING 12902
SWIDTH 960 0
DWIDTH 24 0
BBX 24 24 0 -2
BITMAP
01FFE0
01FFE0
020180
07B0E0
0FBCF8
1F7C7E
3E7B3F
7CF7DF
F1E3EF
CFDCF6
3FFFF8
1FE03C
18071C
01F7C0
01F7C0
01C700
03C703
03C703
078707
0F8707
1F070E
7E07FF
F807FF
E003FF
ENDCHAR

STARTCHAR jisx0212_3267
ENCODING 12903
SWIDTH 960 0
DWIDTH 24 0
BBX 24 24 0 -2
BITMAP
1C0FFE
1FFFFE
1FFFC0
1C0C00
1C0F18
1C0E3C
1C0FFE
1C0FFE
1C0E00
1C0E06
1C0E0F
1FFFFF
1FFFFF
1C7380
3C7380
3C7380
387383
38F383
78F387
71E387
F3E38E
EFC3FF
DF83FF
3E01FF
ENDCHAR

STARTCHAR jisx0212_3268
ENCODING 12904
SWIDTH 960 0
DWIDTH 24 0
BBX 24 24 0 -2
BITMAP
03E07C
03E07C
338670
3BB777
3FF7FF
3FF7FF
3B8770
3B8770
3B8770
3B8770
3BB777
FFFFFF
FFFFFF
0700E0
0FE0FC
0FC1F8
0DD9FB
1DD9BB
1DDBBB
3DFBBB
79FFBF
F0F73F
E00E1F
C01C00
ENDCHAR

STARTCHAR jisx0212_3269
ENCODING 12905
SWIDTH 960 0
DWIDTH 24 0
BBX 24 24 0 -2
BITMAP
39E39E
3FF3FF
3FF3FF
38F38F
38E38E
38E38E
38E38E
38FF8E
38FF8E
38E38E
38E00E
38000E
3FFFFE
3FFFFE
38E38E
38E38E
01E381
01E383
03C387
07C387
0F838E
3F03FF
FC03FF
F001FF
ENDCHAR

STARTCHAR jisx0212_326A
ENCODING 12906
SWIDTH 960 0
DWIDTH 24 0
BBX 24 24 0 -2
BITMAP
001E06
001C0F
7FFFFF
7FFFFF
0000C0
01FFE0
0380C0
0FE078
1F807E
7F7FBF
F7FFFF
E70036
070038
070038
07FFF8
07FFF8
06C73B
00F703
01E707
03E707
07C70E
1F87FF
FE07FF
F803FF
ENDCHAR

STARTCHAR jisx0212_326B
ENCODING 12907
SWIDTH 960 0
DWIDTH 24 0
BBX 24 24 0 -2
BITMAP
01C1E0
7FE1E0
7FE3C0
0003C0
0003B8
00E7BC
FFF71E
FFFEEF
3BBFFF
3BBF87
3BB01E
3B9FFC
3B9FFE
3B9C1C
3B9C1C
3B9C1C
3B9C1C
7B9FFF
7B9FFB
739C1B
738007
E3FFFF
E3FFFF
C1FFFF
ENDCHAR

STARTCHAR jisx0212_326C
ENCODING 12908
SWIDTH 960 0
DWIDTH 24 0
BBX 24 24 0 -2
BITMAP
07C0F8
3FC7F8
3F07E6
3776EF
7FFFFF
7FFFFF
770EE0
E71CE0
E71CE6
C778EF
3FF7FF
FFFFFF
1DC3B8
1DC3B8
1DC3B8
1DC3B8
3DC7BB
3DF7BB
39BF3B
7FEF3B
77FE3F
F39C3F
E3781F
C0E000
ENDCHAR

STARTCHAR jisx0212_326D
ENCODING 12909
SWIDTH 960 0
DWIDTH 24 0
BBX 24 24 0 -2
BITMAP
0F30E6
CEBFFF
EEFFFF
EFFBB8
6DBFF7
6DBFFF
6FBBB8
6F3BFE
6EBC07
9FFFFF
FFF8E0
3BB7FE
3BB76E
3BB7FE
3BB7FE
3BF76E
3B77FE
7B77FE
73E331
73EFDB
73DF1B
E3BCFF
E3FFFF
C1FFFF
ENDCHAR

STARTCHAR jisx0212_326E
ENCODING 12910
SWIDTH 960 0
DWIDTH 24 0
BBX 24 24 0 -2
BITMAP
700F00
7DFF80
7DFF80
700E00
700F00
701F00
701B00
701B80
703F80
703DC0
7039C0
7079E0
7078F0
70F0F8
70F07C
71E07F
73C03F
77801F
7F000F
6E0006
79FFF9
7FFFFF
3FFFFF
000000
ENDCHAR

STARTCHAR jisx0212_326F
ENCODING 12911
SWIDTH 960 0
DWIDTH 24 0
BBX 24 24 0 -2
BITMAP
00FFE0
03FFE0
070180
0FC0F8
1F007E
7EFFBF
FFFFFF
EE1C36
0FFFF8
0FFFF8
0E1C38
0FFFF8
0FFFF8
0EE3BC
31FFCE
3FFFFE
00E381
FFFFFF
FFFFFF
00C000
07F3FE
1FC07F
7F001F
780007
ENDCHAR

STARTCHAR jisx0212_3270
ENCODING 12912
SWIDTH 960 0
DWIDTH 24 0
BBX 24 24 0 -2
BITMAP
70001E
7FFFFF
7FFFFF
70000F
70000E
70018E
7003CE
77FFEE
77FFEE
70000E
70000E
7000CE
7001EE
7FFFEE
6FFFEE
70000E
70000E
70000E
70000E
70000E
7001FE
7001FE
70003C
700018
ENDCHAR

STARTCHAR jisx0212_3271
ENCODING 12913
SWIDTH 960 0
DWIDTH 24 0
BBX 24 24 0 -2
BITMAP
0E00F0
0FFFF8
0FFFF8
0E0078
0E0070
0E0073
0E0077
FFFFFF
FFFFFF
0E0070
0E0070
0E0073
0E0077
FFFFFF
FFFFFF
0E0070
0E0070
0E0070
0E0070
0E0070
0E0FF0
0E0FF0
0E01E0
0E00C0
ENDCHAR

STARTCHAR jisx0212_3272
ENCODING 12914
SWIDTH 960 0
DWIDTH 24 0
BBX 24 24 0 -2
BITMAP
70001E
7FFFFF
7FFFFF
70000F
70000E
71830E
71C78E
71FFCE
71FFCE
71C3CE
71C38E
71C38E
71C38E
71C38E
71FF8E
71FF8E
71C38E
71C38E
71C00E
70000E
7001FE
7001FE
70003C
700018
ENDCHAR

STARTCHAR jisx0212_3273
ENCODING 12915
SWIDTH 960 0
DWIDTH 24 0
BBX 24 24 0 -2
BITMAP
0700F0
07FFF8
07FFF8
070078
071870
071FF0
071FF0
071C70
071C70
071C70
371C7E
3FFFEF
3FFFFF
38000F
38000E
38000E
38000E
38000E
38000E
38000E
3801FE
3801FE
38003C
380018
ENDCHAR

STARTCHAR jisx0212_3274
ENCODING 12916
SWIDTH 960 0
DWIDTH 24 0
BBX 24 24 0 -2
BITMAP
003E00
003E00
0C3800
0C380E
1FFFFF
1FFFFF
3C380F
783E1E
787F9C
707F98
006E00
006E00
00EE00
00EE00
01EE00
01EE00
03CE03
07CE03
0F8E07
1F0E07
3E0E0E
7C0FFF
F80FFF
E007FF
ENDCHAR

STARTCHAR jisx0212_3275
ENCODING 12917
SWIDTH 960 0
DWIDTH 24 0
BBX 24 24 0 -2
BITMAP
18000E
1FFFFF
3FFFFF
38000F
7E005E
7700F8
77FFF0
07FFF8
070078
070070
070070
07FFF0
07FFF0
070070
070070
070070
07FFF0
07FFF0
070070
070073
070077
FFFFFF
FFFFFF
000000
ENDCHAR

STARTCHAR jisx0212_3276
ENCODING 12918
SWIDTH 960 0
DWIDTH 24 0
BBX 24 24 0 -2
BITMAP
18000E
1FFFFF
3FFFFF
38000F
7801DE
7FFFF8
77FFF6
00000F
7FFFFF
7FFFFF
007800
07F03F
1FDC7F
7F3EFC
78EFF0
07FFC0
1F9F80
7E77F0
79F6FC
07CF7F
3F3F3F
FCFE1F
F03C06
003000
ENDCHAR

STARTCHAR jisx0212_3277
ENCODING 12919
SWIDTH 960 0
DWIDTH 24 0
BBX 24 24 0 -2
BITMAP
18000E
3FFFFF
3FFFFF
78000F
783C1E
37FE18
7FFE00
1C701C
1C77FE
1FF7FF
1FF31F
1C739C
1C73BC
1FF1BC
1FF1B8
1C71F8
1C70F8
1C70F0
1FF1F8
FBF3BE
FF77BF
787F1F
606E0F
007C06
ENDCHAR

STARTCHAR jisx0212_3278
ENCODING 12920
SWIDTH 960 0
DWIDTH 24 0
BBX 24 24 0 -2
BITMAP
003E00
003E00
00780C
00781E
7FF7FF
7FFFFF
00E600
01E780
03C3C0
07C1F0
0FB0F8
1F7C7E
3E3E3F
7C1F1F
F80F0F
E00706
000000
0000F0
000FF0
00FFC0
0FFF00
0FF800
07C000
060000
ENDCHAR

STARTCHAR jisx0212_3279
ENCODING 12921
SWIDTH 960 0
DWIDTH 24 0
BBX 24 24 0 -2
BITMAP
7003C0
7C33B8
3E3BBC
1FBB9E
0DFB8F
0F7B87
037387
07F39B
06EFFF
0FBFFE
0D8380
1E0380
1C0386
3C038F
FDFFFF
F9FFFF
380380
380380
3C0380
3C0380
7C0380
7C0380
780380
300380
ENDCHAR

STARTCHAR jisx0212_327A
ENCODING 12922
SWIDTH 960 0
DWIDTH 24 0
BBX 24 24 0 -2
BITMAP
70700F
7C7FFF
3E7FFF
1F7007
0D7007
0F7007
037FFF
077FFF
0771C7
0E71C0
0E71CF
1E7FFF
1C7FFF
3C70E0
FC70F0
F870F0
387079
387079
3C70BB
3C7FFF
7FEFDF
7BFE0F
79F007
318003
ENDCHAR

STARTCHAR jisx0212_327B
ENCODING 12923
SWIDTH 960 0
DWIDTH 24 0
BBX 24 24 0 -2
BITMAP
7033E0
7C3BE0
3E3B8C
1F7B9E
0D7FFF
0F7FFF
03F380
06E380
07C386
0D838F
0E7FFF
1DFFFF
1C1CE0
3C1CE0
FC1CE0
F83CE3
383CE3
3838E7
3C78E7
3C78EE
7CF0FF
7FE0FF
7BC07F
370000
ENDCHAR

STARTCHAR jisx0212_327C
ENCODING 12924
SWIDTH 960 0
DWIDTH 24 0
BBX 24 24 0 -2
BITMAP
7007C0
7C0F80
3E0FC0
1F9EE0
0D9EF0
0FBC78
037C7C
0778BF
07F7DF
0EFFEF
0DC007
1F801B
1CE03C
3CFFFE
FCFFFE
F8E01E
38E01C
38E01C
3CE01C
3CE01C
7CFFFC
7CFFFC
78E01C
30E01C
ENDCHAR

STARTCHAR jisx0212_327D
ENCODING 12925
SWIDTH 960 0
DWIDTH 24 0
BBX 24 24 0 -2
BITMAP
700780
7C071C
3EFFFE
1EFFFE
0E071C
0C071F
03FFFB
03FFFF
07071C
07071C
0EFFFC
0EFFFC
1E071C
1C0700
3DFFFE
FDFFFE
F80700
38070F
3BFFFF
3FFFFF
7C0700
7C0700
780700
300700
ENDCHAR

STARTCHAR jisx0212_327E
ENCODING 12926
SWIDTH 960 0
DWIDTH 24 0
BBX 24 24 0 -2
BITMAP
701E00
7C3C70
3E3FF8
1F7FF8
0D70E0
0FF3CE
02EFBF
07FFFF
06E38F
0EE38E
0EE78E
1EE78E
1CFF7E
3CFFFE
FCE70E
F8EFC1
381F83
381B87
3C3B87
3C7B8E
7CF3FF
7FE3FF
7BC1FF
370000
ENDCHAR

STARTCHAR jisx0212_3321
ENCODING 13089
SWIDTH 960 0
DWIDTH 24 0
BBX 24 24 0 -2
BITMAP
7071FE
7C7FFE
3E7FE0
1F763E
0D739F
0FF38F
02E387
06E31E
07DCFC
0DFFFE
0F839C
1E039F
1DFFFB
3DFFFF
FC039C
F8039C
38FFFC
38FFFC
3C039C
3C0380
7C3F80
7C3F80
780700
300600
ENDCHAR

STARTCHAR jisx0212_3322
ENCODING 13090
SWIDTH 960 0
DWIDTH 24 0
BBX 24 24 0 -2
BITMAP
70007E
7C006F
3EC077
1EE077
0EFFF9
0CFFFF
02E070
06E376
06FFF7
0EFFF7
0EE07F
1EDFEF
1CDFFE
3CDB7E
FCDBBC
F9DBBC
39DFF9
39DF7D
3DD8FF
3FDBDB
7B87DF
7F8F8F
771E07
361803
ENDCHAR

STARTCHAR jisx0212_3323
ENCODING 13091
SWIDTH 960 0
DWIDTH 24 0
BBX 24 24 0 -2
BITMAP
700780
7C070E
3DFFFF
1FFFFF
0E0E00
0CFFFE
03FFFE
071CC1
06FFFF
0FFFFF
0E3870
1E71BC
1CF7FF
3DEFDF
FFBF0F
FB8717
377FFB
3DFFFE
380D80
3C3EFC
7C7C7F
7DF83F
7BF01F
378006
ENDCHAR

STARTCHAR jisx0212_3324
ENCODING 13092
SWIDTH 960 0
DWIDTH 24 0
BBX 24 24 0 -2
BITMAP
70E3EE
7CFBEF
3EFB8F
1EE38E
0EE38E
0CFFFE
02FFFE
07E00F
071FF7
0DFFFF
0E0000
1E7FFE
1C7FFE
3C701C
FC701C
F87FFC
387FFC
383060
3C3CF8
3C1CF6
7C1DEF
7FFBDF
7BFFFF
300000
ENDCHAR

STARTCHAR jisx0212_3325
ENCODING 13093
SWIDTH 960 0
DWIDTH 24 0
BBX 24 24 0 -2
BITMAP
70000F
7DFFFF
3FFFFF
1E0EE0
0ECEEE
0CFFFF
02FFFF
06EEEE
06EEEE
0EEEEE
0EFFFE
1EFFFE
1CE70E
3C0701
FFFFFF
F7FFFF
381FC0
387EF8
3CF77E
3DF73F
7FE71F
7B870F
7E0703
300700
ENDCHAR

STARTCHAR jisx0212_3326
ENCODING 13094
SWIDTH 960 0
DWIDTH 24 0
BBX 24 24 0 -2
BITMAP
706007
7CFFFF
3DFFFF
1DE007
0DC01E
0E7FFC
037FFE
07701C
077FFC
0E7FFC
0E701C
1E7FFC
1C7FFC
3C731E
FC03C7
FBFFBF
3BFFFF
380000
3C3EFC
3C7E7F
7CF81F
7FF00F
7BC007
370003
ENDCHAR

STARTCHAR jisx0212_3327
ENCODING 13095
SWIDTH 960 0
DWIDTH 24 0
BBX 24 24 0 -2
BITMAP
01DE07
71DEDF
79DCFF
3BFBFC
3FFFE0
1DDCE0
15DCE3
0DFCE7
0DFCFF
0DDCFF
1DDCEE
1DFCEE
1DFCEE
3DDCEE
F9DCEE
F9DEEE
3FFBEE
37FFEE
39B1CE
3FDBCE
7BDBCE
7F9F8E
77070E
2E0E0E
ENDCHAR

STARTCHAR jisx0212_3328
ENCODING 13096
SWIDTH 960 0
DWIDTH 24 0
BBX 24 24 0 -2
BITMAP
71F167
79FFFF
3DBFFF
3DB677
1DB777
19BDF7
05BFF7
0DBB7F
0DBB7F
0DBF77
1DBF70
1DB673
1DB673
3FB777
FBBDFF
FBBFFF
3FB83F
3741C0
3EDDFE
3DDEEF
7FDEF7
7B8E77
778E73
370C63
ENDCHAR

STARTCHAR jisx0212_3329
ENCODING 13097
SWIDTH 960 0
DWIDTH 24 0
BBX 24 24 0 -2
BITMAP
001E00
003E00
033D80
037BC0
03F7E0
03FFE0
0381E0
0381C0
0381C0
0381C0
0381C0
0381C0
0381C0
0381C0
0781C0
0781C3
0701C3
0F01C7
0F01C7
1E01CE
3E01FF
7C01FF
F800FF
E00000
ENDCHAR

STARTCHAR jisx0212_332A
ENCODING 13098
SWIDTH 960 0
DWIDTH 24 0
BBX 24 24 0 -2
BITMAP
1C001E
1FFFFF
1FFFFF
1C000F
1C000E
1FFFFE
1FFFFE
1C000E
1C71E0
1C7FF0
1C7FF0
1C70F0
1C70E0
1C70E0
1C70E0
3CF0E3
3CF0E3
38E0E3
79E0E7
79C0E7
73C0FF
F780FF
EF007F
CE0000
ENDCHAR

STARTCHAR jisx0212_332B
ENCODING 13099
SWIDTH 960 0
DWIDTH 24 0
BBX 24 24 0 -2
BITMAP
1C003C
1FFFFE
1FFFFE
1C001E
1C01DC
1FFFDC
1BFFDC
1C3C1C
1DB9DC
1DF7DC
1DFFDC
1DC1DC
1DC1DC
1DFFDC
3DFFDC
3DC1DE
39C1DF
39C1CD
79FFCF
79FFCF
71C1CF
F1C007
E00007
C00003
ENDCHAR

STARTCHAR jisx0212_332C
ENCODING 13100
SWIDTH 960 0
DWIDTH 24 0
BBX 24 24 0 -2
BITMAP
1C003C
1FFFFE
1FFFFE
1C319E
1FFFDC
1BDF1C
1C6CDC
1BFFDC
1C6C1C
1BFFDC
1C6DDC
1FFFFC
1FFFFC
1C6DDC
3FFFDC
3BFFDE
38EF1F
3BEFED
7FEDEF
76EEFF
6EEE7F
FCEE37
E0EE07
C0EE03
ENDCHAR

STARTCHAR jisx0212_332D
ENCODING 13101
SWIDTH 960 0
DWIDTH 24 0
BBX 24 24 0 -2
BITMAP
1FF77C
1FF7FE
00F3F7
1FE5CF
0FDEFE
077F78
1F00BF
7FFFDF
FBFFF7
E380E3
03FFE0
03FFE6
00E1CF
7F7FBF
7FFFFF
000000
01FFE0
01FFE0
01C1C3
03C1C3
07C1C7
1F81FF
FF01FF
FC00FF
ENDCHAR

STARTCHAR jisx0212_332E
ENCODING 13102
SWIDTH 960 0
DWIDTH 24 0
BBX 24 24 0 -2
BITMAP
707FFF
7C7FFF
3D7380
1F7FFE
1B7FFE
077380
0E7FFE
1E7FFE
3C7381
FC7FFF
F8FFFF
39B6C7
3BDB77
7BDB6F
7B9BBF
79E5CE
31FFE0
01C1C3
03C1C3
03C1C7
0781C7
1F81FF
FF01FF
FC00FF
ENDCHAR

STARTCHAR jisx0212_332F
ENCODING 13103
SWIDTH 960 0
DWIDTH 24 0
BBX 24 24 0 -2
BITMAP
001F00
601F06
781C07
781C07
701C07
701C67
701CF7
77FFF7
77FFF7
701C07
701C07
701C07
701C07
701C07
701C37
701C77
7FFFFF
6FFFFF
700007
700007
7FFFFF
7FFFFF
700007
700007
ENDCHAR

STARTCHAR jisx0212_3330
ENCODING 13104
SWIDTH 960 0
DWIDTH 24 0
BBX 24 24 0 -2
BITMAP
00001E
7FFFFF
7FFFFF
00000F
00000E
00000E
00000E
00000E
0001EE
001FEE
03FF8E
7FFC0E
7FE00E
3F000E
30000E
00000E
00001E
00001E
00001C
000F3C
000FFC
0003F8
0000F0
0000C0
ENDCHAR

STARTCHAR jisx0212_3331
ENCODING 13105
SWIDTH 960 0
DWIDTH 24 0
BBX 24 24 0 -2
BITMAP
0001F0
0001F0
01C1C0
01F1C0
01F1C0
01C1C0
01C1C0
01C1C0
01C1C0
01C1C0
01C1C0
01C1C0
01C1C0
01C1C0
01C1C0
01C1C0
01C1C0
01C1C0
0001C0
0001C0
003FC0
003FC0
000780
000300
ENDCHAR

STARTCHAR jisx0212_3332
ENCODING 13106
SWIDTH 960 0
DWIDTH 24 0
BBX 24 24 0 -2
BITMAP
0000F0
7FFFF8
7FFFF8
00E078
00E070
0CE070
0CE07C
1CE06E
1CE07F
3DE077
39E077
79C077
F9C073
F3C073
F3C073
678073
0780F0
0F00F0
0F00E0
1E01E0
3C3FE0
783FC0
F00780
E00600
ENDCHAR

STARTCHAR jisx0212_3333
ENCODING 13107
SWIDTH 960 0
DWIDTH 24 0
BBX 24 24 0 -2
BITMAP
0FC007
0DF007
0EF8C7
0E78F7
0E76F7
0F8EE7
FDFEE7
FF80E7
071EE7
073EE7
07BCE7
07F8E7
0378E7
03F0E7
03E0E7
01C6E7
07E6E7
0FEEE7
1EFE07
3E7E07
7C3C7F
F01E7F
E00E0E
00000C
ENDCHAR

STARTCHAR jisx0212_3334
ENCODING 13108
SWIDTH 960 0
DWIDTH 24 0
BBX 24 24 0 -2
BITMAP
003C07
7FFE07
7FFEC7
0000F7
0000F7
0000E7
000CE7
001EE7
FFFEE7
FFFEE7
0E70E7
0E70E7
0E70E7
0E70E7
0E70E7
1E70E7
1E70E7
1C70E7
3C7707
387F87
7BFE7F
F3F87F
E1E00E
C1800C
ENDCHAR

STARTCHAR jisx0212_3335
ENCODING 13109
SWIDTH 960 0
DWIDTH 24 0
BBX 24 24 0 -2
BITMAP
000078
1FFFFC
1FFFFC
00703C
00F038
01E078
03E078
07C0F0
0F8FF0
3F0FE0
7C63C6
70F30F
8FF4FF
FFFFFF
0E78E7
1E71E7
1E71E7
1C71C7
3CF3CF
38F3CF
7FE7BE
EFEEFE
E3DE3C
C31C30
ENDCHAR

STARTCHAR jisx0212_3336
ENCODING 13110
SWIDTH 960 0
DWIDTH 24 0
BBX 24 24 0 -2
BITMAP
1C3C07
1FFE07
1FFEC7
1C1EF7
1C1CF7
1C1CE7
1C1CE7
1FFCE7
1FFCE7
1C1CE7
1C1CE7
1C1CE7
1C1CE7
1FFCE7
1FFCE7
1C1CE7
3C1CE7
3C1CE7
381C07
781C07
71FC7F
F1FC7F
E0380E
C0300C
ENDCHAR

STARTCHAR jisx0212_3337
ENCODING 13111
SWIDTH 960 0
DWIDTH 24 0
BBX 24 24 0 -2
BITMAP
03E007
03E007
038CC7
039EF7
FFFEF7
FFFEE7
0000E7
003CE7
003CE7
3878E7
3E78E7
1FF0E7
07F0E7
03E0E7
01F0E7
03F8E7
077CE7
0FBCE7
0F3C07
1E1C07
3C187F
78007F
F0000E
E0000C
ENDCHAR

STARTCHAR jisx0212_3338
ENCODING 13112
SWIDTH 960 0
DWIDTH 24 0
BBX 24 24 0 -2
BITMAP
07C007
0FA007
0EF8C7
1E7CF7
1E3EF7
3C1EE7
786EE7
F7FCE7
DFF8E7
C000E7
001CE7
7FFEE7
7FFEE7
071EE7
071CE7
071CE7
071CE7
07FCE7
06FC07
073807
07303F
07003F
07000E
07000C
ENDCHAR

STARTCHAR jisx0212_3339
ENCODING 13113
SWIDTH 960 0
DWIDTH 24 0
BBX 24 24 0 -2
BITMAP
1F0007
1F0C07
1C1EC7
3FFEF7
3FFEF7
380EE7
780EE7
71CEE7
FFEEE7
FFEEE7
B9CEE7
39CEE7
39CEE7
3FDEE7
3FDEE7
39DCE7
383CE7
39FFE7
387B07
386707
3F9FBF
3FFFBF
1FFF0E
00000C
ENDCHAR

STARTCHAR jisx0212_333A
ENCODING 13114
SWIDTH 960 0
DWIDTH 24 0
BBX 24 24 0 -2
BITMAP
3BC03C
3BBFFE
3BBFFE
3B839E
3BEB9C
FF6B9C
FFEB9C
3B9B9C
3B9B9C
3BBB9E
3BBB9F
3BBB9F
3BC79B
FF779B
FFF71B
3B8F1B
7B8F3B
7B8E3B
739E38
739C78
F3BFF8
E3FBF0
E370E0
C360C0
ENDCHAR

STARTCHAR jisx0212_333B
ENCODING 13115
SWIDTH 960 0
DWIDTH 24 0
BBX 24 24 0 -2
BITMAP
03E007
03E007
039CC7
7FFEF7
7FFEF7
0380E7
0380E7
038CE7
039EE7
FFFEE7
FFFEE7
0300E7
03C0E7
039CE7
7FFEE7
7FFEE7
0380E7
0380E7
038F07
03FF07
FFFC7F
FFE07F
7E000E
60000C
ENDCHAR

STARTCHAR jisx0212_333C
ENCODING 13116
SWIDTH 960 0
DWIDTH 24 0
BBX 24 24 0 -2
BITMAP
000F07
FFFF87
FFFFC7
1C38F7
1C38F7
1C38E7
1FF8E7
1FF8E7
1C38E7
1C38E7
1C38E7
1FF8E7
1FF8E7
1C38E7
1C38E7
1C38E7
1DF8E7
FFF8E7
FFB807
7C3807
60387F
00387F
00380E
00380C
ENDCHAR

STARTCHAR jisx0212_333D
ENCODING 13117
SWIDTH 960 0
DWIDTH 24 0
BBX 24 24 0 -2
BITMAP
07C00F
07DFFF
071FFF
0760E7
7FF6E7
7FFEE7
070EE7
071EE7
071AE7
072BE7
FFFFE7
FFFDE7
0F01E7
0EC0F7
1DE1F7
1CF3BF
1C7BDF
3BFF8F
FFF787
FFBF1F
7C2EFD
601BFC
007878
007060
ENDCHAR

STARTCHAR jisx0212_333E
ENCODING 13118
SWIDTH 960 0
DWIDTH 24 0
BBX 24 24 0 -2
BITMAP
000F07
FFFF87
FFFFC7
0000F7
3018F7
383CE7
3FFEE7
3FFEE7
381EE7
381CE7
381CE7
3FFCE7
3FFCE7
381CE7
1C30E7
1E7CE7
0E78E7
0E70E7
0EFF07
0DEF07
F3FC7F
FFC07F
7C000E
60000C
ENDCHAR

STARTCHAR jisx0212_333F
ENCODING 13119
SWIDTH 960 0
DWIDTH 24 0
BBX 24 24 0 -2
BITMAP
01E007
19EC07
1DCF67
1DCF77
1DCE77
1DDE77
3DDE77
3DDC77
39FF77
7FB777
77FB77
F7F377
E5E777
C1CE77
3FFF77
7FFF77
01C077
01C077
01CF87
03FF87
FFFC3F
FFE03F
7E000E
60000C
ENDCHAR

STARTCHAR jisx0212_3340
ENCODING 13120
SWIDTH 960 0
DWIDTH 24 0
BBX 24 24 0 -2
BITMAP
077807
077807
077067
077777
FF7F77
FF7F77
077077
077077
077677
7F7F77
7F7F77
077077
077077
077077
1F7777
FF7F77
F77F77
EF7077
DE7007
1E7007
3C703F
78703F
F0700E
E0700C
ENDCHAR

STARTCHAR jisx0212_3341
ENCODING 13121
SWIDTH 960 0
DWIDTH 24 0
BBX 24 24 0 -2
BITMAP
0EF007
0E7E07
0FEEC7
FFFEF7
FE30F7
07FCE7
06F2E7
03EEE7
1FCEE7
7DFCE7
FCFEE7
EFBEE7
0EE0E7
0FFEE7
FFFEE7
FF18E7
077EE7
07F8E7
03F607
07EE07
1FFE3F
7EFC3F
FC7E0E
E01E0C
ENDCHAR

STARTCHAR jisx0212_3342
ENCODING 13122
SWIDTH 960 0
DWIDTH 24 0
BBX 24 24 0 -2
BITMAP
0F1E07
0F1E07
0E1CC7
7FFBF7
7FFFF7
0E1CE7
0E1CE7
0FFCE7
0FFCE7
0E1CE7
0E1CE7
0FFCE7
0FFCE7
0E1CE7
0E1EE7
FFFBE7
FFFFE7
0600E7
0F7CE7
1F3E07
3E1F3F
7C0F3F
F8070E
E0000C
ENDCHAR

STARTCHAR jisx0212_3343
ENCODING 13123
SWIDTH 960 0
DWIDTH 24 0
BBX 24 24 0 -2
BITMAP
01E007
01C707
FFFF67
FFFF77
01C077
3FFF77
3FFF77
39CE77
3FFE77
3FFE77
39C077
47FF77
7FFF77
01CE77
FFFDF7
FFFFF7
01CE77
7FFE77
7FFE07
01CE07
0FC03F
0FC03F
03800E
03000C
ENDCHAR

STARTCHAR jisx0212_3344
ENCODING 13124
SWIDTH 960 0
DWIDTH 24 0
BBX 24 24 0 -2
BITMAP
01E007
31C707
3FFF67
7FFF77
F00777
FE0E77
DE6D77
1D7777
3BFF77
3FF777
3B7777
7B7777
777777
777777
FF7777
DF7F77
CF7F77
1E6EF7
1E7187
3C7387
787FBF
F07FBF
E03F8E
C0000C
ENDCHAR

STARTCHAR jisx0212_3345
ENCODING 13125
SWIDTH 960 0
DWIDTH 24 0
BBX 24 24 0 -2
BITMAP
070707
FFFF87
FFFFE7
070777
7E7E77
3E3E77
1C1C77
3F7F77
77F777
F6E777
E1C077
1F3F77
FFFF77
070777
6F6F77
7E7E77
3E3E77
1F1D77
3FBF87
7BF787
F373BF
E0E33F
C3C00E
03800C
ENDCHAR

STARTCHAR jisx0212_3346
ENCODING 13126
SWIDTH 960 0
DWIDTH 24 0
BBX 24 24 0 -2
BITMAP
01F007
01F007
01C6C7
FFFFF7
FFFFF7
0000E7
381EE7
3FFEE7
3FFEE7
380EE7
380EE7
380EE7
3FFEE7
3FFEE7
39CEE7
01F0E7
1DBCE7
3DDEE7
3DCF07
79CF07
F7C77F
EFC67F
C3800E
03000C
ENDCHAR

STARTCHAR jisx0212_3347
ENCODING 13127
SWIDTH 960 0
DWIDTH 24 0
BBX 24 24 0 -2
BITMAP
03E007
33F807
339EC7
73FEF7
7378F7
F7E0E7
F780E7
EEF8E7
1F7CE7
3E3EE7
7D9EE7
FBEEE7
E3E0E7
339EE7
73BEE7
73FCE7
F770E7
F780E7
EEF807
1F7C07
3E3E7F
7C1E7F
F81E0E
E00C0C
ENDCHAR

STARTCHAR jisx0212_3348
ENCODING 13128
SWIDTH 960 0
DWIDTH 24 0
BBX 24 24 0 -2
BITMAP
03C007
078607
078F67
FF7F77
FFFF77
0E3077
1FBE77
3DDF77
79EFF7
F1C7F7
FFFF77
3FFE77
39CE77
3FFE77
3FFE77
39CE77
3FFE77
3FFFF7
39CD87
39C187
01FFBF
01FFBF
00FF8E
00000C
ENDCHAR

STARTCHAR jisx0212_3349
ENCODING 13129
SWIDTH 960 0
DWIDTH 24 0
BBX 24 24 0 -2
BITMAP
1C3C07
1FFE07
1FFE67
1C1E77
1DFC77
1DFC77
1DDC77
1DDC77
5DDF77
7FFB77
7FFF77
700777
767777
77F777
77F777
777777
777777
77F777
77F707
777707
770F3F
703F3F
700E0E
700C0C
ENDCHAR

STARTCHAR jisx0212_334A
ENCODING 13130
SWIDTH 960 0
DWIDTH 24 0
BBX 24 24 0 -2
BITMAP
01E007
01C707
FFFF87
FFFFF7
0030F7
1FF8E7
03E0E7
1F7CE7
7E3EE7
61D7E7
7FFFE7
70C0E7
6EFEE7
6FEEE7
7FFEE7
7CE0E7
7BFEE7
77FEE7
70E0E7
F0FF07
EFDF3F
FFF83F
DF800E
D8000C
ENDCHAR

STARTCHAR jisx0212_334B
ENCODING 13131
SWIDTH 960 0
DWIDTH 24 0
BBX 24 24 0 -2
BITMAP
01C707
FFFF87
FFFFE7
01C077
3FFF77
3FFF77
39CE77
3FFE77
3FFE77
39CE77
3FFE77
3FFE77
39D877
C7FF77
FFCF77
7C3777
E3F9F7
FFFFF7
303807
1E3807
0FF83F
0DF83F
00700E
00600C
ENDCHAR

STARTCHAR jisx0212_334C
ENCODING 13132
SWIDTH 960 0
DWIDTH 24 0
BBX 24 24 0 -2
BITMAP
038707
FFFF87
FFFFE7
1B9F77
7FF777
F77F77
CFCF77
3BBF77
7FF777
F7C777
CEFF77
3F7C77
7D9F77
FBEF77
E7B777
1F7877
FCF777
F3EF77
0F9E07
FE7C07
F1F07F
0FC07F
FF000E
F0000C
ENDCHAR

STARTCHAR jisx0212_334D
ENCODING 13133
SWIDTH 960 0
DWIDTH 24 0
BBX 24 24 0 -2
BITMAP
3FFE07
3FFE07
067867
03E777
7DDF77
7FFF77
03E777
1EEE77
7FEC77
F7E077
E1C777
7FBF77
7FFF77
76C777
7EF777
6CF777
7B0777
77F777
777707
77F707
77F73F
770F3F
703F0E
700E0C
ENDCHAR

STARTCHAR jisx0212_334E
ENCODING 13134
SWIDTH 960 0
DWIDTH 24 0
BBX 24 24 0 -2
BITMAP
7001E7
7FFFF7
7FFFF7
70CC07
6EEF37
7FEE37
75DEB7
75DDF7
7BBFF7
7FFEB7
732DB7
6AEFB7
6ACE37
6ACE37
6ACE37
6FDF37
6FDFB7
7ADBF7
773DC7
E739E7
EE79FF
FEF0FF
DDE0EE
B9C0CC
ENDCHAR

STARTCHAR jisx0212_334F
ENCODING 13135
SWIDTH 960 0
DWIDTH 24 0
BBX 24 24 0 -2
BITMAP
600E07
7FFF07
7FFF67
776E77
776E77
7FFE77
7FFE77
6F0F77
1EF777
3FFF77
770777
F77777
EFF777
FFF777
777777
7FF777
7FF777
76C777
077F07
FFFF07
FFAE3F
7CFE3F
603C0E
00300C
ENDCHAR

STARTCHAR jisx0212_3350
ENCODING 13136
SWIDTH 960 0
DWIDTH 24 0
BBX 24 24 0 -2
BITMAP
03E007
07D007
077CC7
0F3EF7
1E5EF7
3DEFE7
7FF7E7
F00AE7
FFFEE7
3DAEE7
3FBEE7
37EEE7
3DFEE7
3FFEE7
380EE7
1FFCE7
1FFEE7
1C1CE7
1FFCE7
1FFC07
1C1C3F
1FFC3F
1FFC0E
1C1C0C
ENDCHAR

STARTCHAR jisx0212_3351
ENCODING 13137
SWIDTH 960 0
DWIDTH 24 0
BBX 24 24 0 -2
BITMAP
1DE007
1DCE07
1DFF67
1DFF77
1DC077
FFFFF7
FFFFF7
003777
7FFBF7
7FFFF7
703877
7FFBF7
7FFBF7
733F77
6FD777
6EFF77
6AFF77
7FDEF7
77FEC7
DBBFC7
F7F7FF
EF73BF
DEE3CE
B9C1CC
ENDCHAR

STARTCHAR jisx0212_3352
ENCODING 13138
SWIDTH 960 0
DWIDTH 24 0
BBX 24 24 0 -2
BITMAP
1BDC07
1FBE07
1FFE67
1C1C77
1FFC77
1C1C77
1FFC77
1C1C77
7FFF77
600777
7FFF77
71C777
7FFF77
71C777
7FFF77
700077
8FFFF7
FFFFF7
0E3807
1E3807
3E383F
7C383F
F8380E
E0380C
ENDCHAR

STARTCHAR jisx0212_3353
ENCODING 13139
SWIDTH 960 0
DWIDTH 24 0
BBX 24 24 0 -2
BITMAP
6F6F87
7F7F87
7E7E67
71F1F7
7FFFF7
777777
777777
F7F777
E6E777
B9DB77
3FFF77
380777
3FFF77
3FFF77
380777
3FFF77
380777
3FFF77
3FFF07
360707
0F783F
7E1FBF
F8078E
E0038C
ENDCHAR

STARTCHAR jisx0212_3354
ENCODING 13140
SWIDTH 960 0
DWIDTH 24 0
BBX 24 24 0 -2
BITMAP
0F3007
1EF807
3FFF67
786777
FFFF77
B80777
3FFF77
387777
3F7E77
3871F7
FF7FF7
FE3F77
6FF077
1FFF77
78E777
FFFF77
B9C777
3FFF77
3FFF87
3BD8C7
06EFFF
3EFFFF
FC7FCE
F0000C
ENDCHAR

STARTCHAR jisx0212_3355
ENCODING 13141
SWIDTH 960 0
DWIDTH 24 0
BBX 24 24 0 -2
BITMAP
6F5E07
6E5D07
7FFB67
FFFF77
EEDC77
DF3BF7
FFFFF7
372D77
7EEFF7
EF6FF7
F6E777
B9DE77
3FFF77
380E77
3FFE77
380E77
3FFE77
380E77
3FFE07
3FFE07
0C003F
7F7FBF
FC0F8E
E0038C
ENDCHAR

STARTCHAR jisx0212_3356
ENCODING 13142
SWIDTH 960 0
DWIDTH 24 0
BBX 24 24 0 -2
BITMAP
60F187
70E3C7
7FFFF7
7FFFB7
730C37
7FFFB7
7FFFB7
730C37
6AABB7
6AAAB7
7BEBB7
7B6BB7
709437
71DFB7
7FDDB7
6FDFB7
71DC37
6FDFB7
71DC47
EFDFE7
FDDFFF
DB9C3F
C71C0E
DC1C0C
ENDCHAR

STARTCHAR jisx0212_3357
ENCODING 13143
SWIDTH 960 0
DWIDTH 24 0
BBX 24 24 0 -2
BITMAP
7FFFC7
7FFFC7
7003B7
7FFFB7
700037
6EFF37
70E037
6EDF37
7120B7
6FFFB7
6EDBB7
7FFFB7
71C037
77BFB7
7FFFB7
6EC3B7
77FBB7
76DBB7
77FB87
E8B387
DFFFBF
EF97BF
CC3F0E
C00E0C
ENDCHAR

STARTCHAR jisx0212_3358
ENCODING 13144
SWIDTH 960 0
DWIDTH 24 0
BBX 24 24 0 -2
BITMAP
0F81F0
0F81F0
0E01C0
0E31C0
0E79C0
FFFDC0
FFFDC0
0E3DC0
0E39C0
0E39C0
0E39C0
0E39C0
1E39C0
1E39C0
1C39C0
1C39C0
3C39C3
3C39C3
3879C7
7879C7
77F1CE
F7F1FF
E1E1FF
C180FF
ENDCHAR

STARTCHAR jisx0212_3359
ENCODING 13145
SWIDTH 960 0
DWIDTH 24 0
BBX 24 24 0 -2
BITMAP
30FCF8
3BFCF8
3FF0E0
3F80E0
3800E6
3800EF
3837FF
3FFFFF
3FFCE7
38E0E7
38E0E7
38E0E7
38E1E7
38E1E7
38E1C7
38E1C7
78E3C7
78E3C7
70E78F
70E78F
E0EF7E
E0FEFE
C0DC3C
00F030
ENDCHAR

STARTCHAR jisx0212_335A
ENCODING 13146
SWIDTH 960 0
DWIDTH 24 0
BBX 24 24 0 -2
BITMAP
07C0F8
07C0F8
0718E0
073CE0
FFFEE6
FFFEEF
0001FF
18EFFF
1FF0E7
1FF0E7
1CF0E7
1CE0E7
1CE0E7
1CE1E7
1CE1E7
3CEDC7
3CEDC7
38FFC7
78DB8F
70FF8F
F07F7E
E00EFE
C03C3C
003830
ENDCHAR

STARTCHAR jisx0212_335B
ENCODING 13147
SWIDTH 960 0
DWIDTH 24 0
BBX 24 24 0 -2
BITMAP
001E00
001C1C
3FFFFE
3FFFFE
00381E
00781C
00F03C
01F03C
03E3F8
0FC3F8
3F00F0
3C00C0
0F70F7
FEF7EF
FFFFFF
0E78E7
1E71E7
1C71E7
3CF3CF
3CF3CF
7BE7BE
EFEEFE
E3DE3C
C31C30
ENDCHAR

STARTCHAR jisx0212_335C
ENCODING 13148
SWIDTH 960 0
DWIDTH 24 0
BBX 24 24 0 -2
BITMAP
01FCF8
0FFCF8
7FE0E0
7B80E0
0380E6
0380EF
03B7FF
7FFFFF
7FFCE7
0380E7
0380E7
0398E7
03BDE7
FFFDE7
FFFDC7
0381C7
0383C7
0383C7
03878F
03878F
7F8F7E
7F9EFE
0F3C3C
063830
ENDCHAR

STARTCHAR jisx0212_335D
ENCODING 13149
SWIDTH 960 0
DWIDTH 24 0
BBX 24 24 0 -2
BITMAP
003CF8
FFFEF8
FFFEE0
0E00E0
0E00E6
1E00EF
1E67FF
1CF7FF
3FF8E7
3FF8E7
3C78E7
7C70E7
7C71E7
FC71E7
DC71C7
DC71C7
1C73C7
1C73C7
1FF78F
1FF78F
1C7F7E
1C0EFE
1C3C3C
003830
ENDCHAR

STARTCHAR jisx0212_335E
ENCODING 13150
SWIDTH 960 0
DWIDTH 24 0
BBX 24 24 0 -2
BITMAP
03C0F8
07C0F8
0780E0
6F38E0
7EFCE6
7FFCEF
703FFF
7037FF
7038E7
7038E7
7038E7
7FF8E7
7FF9E7
7039E7
7039C7
7039C7
703BC7
703BC7
7FFF8F
7FF78F
703F7E
700EFE
703C3C
003830
ENDCHAR

STARTCHAR jisx0212_335F
ENCODING 13151
SWIDTH 960 0
DWIDTH 24 0
BBX 24 24 0 -2
BITMAP
30FE7C
3BFE7C
3FF070
3F8070
381877
383BFF
3FFFFF
3FFE77
380077
381877
3C3C77
3FFE77
3FFEF7
3E1EF7
3E1CE7
3E1CE7
7E1DE7
6E1DE7
6E1DCF
6FFFCF
EFFBBE
EE1FFE
CE173C
000630
ENDCHAR

STARTCHAR jisx0212_3360
ENCODING 13152
SWIDTH 960 0
DWIDTH 24 0
BBX 24 24 0 -2
BITMAP
3878F8
3CF8F8
1CF0E0
1DE0E0
1DDCE6
7BBEEF
7FFFFF
0383FF
0380E7
03B8E7
3FFCE7
3FFCE7
0381E7
0381E7
03FDC7
FF7DC7
FFE3C7
7783C7
6F078F
0F078F
1E0F7E
3C1EFE
783C3C
703830
ENDCHAR

STARTCHAR jisx0212_3361
ENCODING 13153
SWIDTH 960 0
DWIDTH 24 0
BBX 24 24 0 -2
BITMAP
03E0F8
03E0F8
0398E0
7FFCE0
7FFCE6
0380EF
0387FF
039FFF
FFFCE7
FFFEE7
0300E7
03C0E7
039DE7
7FFDE7
7FFDC7
0381C7
0383C7
03BBC7
03FF8F
FFF78F
FF8F7E
7C1EFE
603C3C
003830
ENDCHAR

STARTCHAR jisx0212_3362
ENCODING 13154
SWIDTH 960 0
DWIDTH 24 0
BBX 24 24 0 -2
BITMAP
0780F8
0F80F8
0F70E0
1E78E0
3C3CE6
FBDEEF
FFFFFF
7F0FFF
63CEE7
3B80E7
3B9CE7
7FFEE7
7FFFE7
F381E7
E38DC7
C39DC7
3FFFC7
FFFFC7
03838F
03878F
038F7E
039EFE
03BC3C
03B830
ENDCHAR

STARTCHAR jisx0212_3363
ENCODING 13155
SWIDTH 960 0
DWIDTH 24 0
BBX 24 24 0 -2
BITMAP
600CF8
701EF8
7FFEE0
7FFEE0
7000E6
7FFCEF
6FFFFF
71C7FF
71C0E7
71F8E7
7FBCE7
6FFCE7
71C1E7
71C1E7
71C1C7
71DDC7
7FFFC7
7FFFC7
70038F
7FFF8F
7FFF7E
700EFE
703C3C
003830
ENDCHAR

STARTCHAR jisx0212_3364
ENCODING 13156
SWIDTH 960 0
DWIDTH 24 0
BBX 24 24 0 -2
BITMAP
001E07
7FFEC7
7FFEF7
0700F7
0FFEE7
0FFEE7
1E3CE7
3D78E7
77F8E7
73F0E7
01E0E7
07D81F
1FBE3F
7E3E0E
78381C
07FFFF
7FFFFF
00700F
01F01E
03E01E
0FC3FC
3F83FC
FE0078
F00060
ENDCHAR

STARTCHAR jisx0212_3365
ENCODING 13157
SWIDTH 960 0
DWIDTH 24 0
BBX 24 24 0 -2
BITMAP
03C0F8
038EF8
FFFEE0
FFFEE0
0380E6
639CEF
7FFFFF
7FFFFF
701CE7
701CE7
701CE7
7FFCE7
7FFCE7
6CDDE7
0EF1E7
0EE1C7
1EE3C7
1EEFC7
3CFF8F
3FFB8F
77F77E
F3CEFE
E33C3C
C03830
ENDCHAR

STARTCHAR jisx0212_3366
ENCODING 13158
SWIDTH 960 0
DWIDTH 24 0
BBX 24 24 0 -2
BITMAP
1E18F8
1C3CF8
3FFEE0
3FFEE0
7800E6
7038EF
FFFFFF
DFFFFF
DB38E7
1DB8E7
3DB8E7
3DBEE7
FBF6E7
FFFEE7
3671E7
3B71E7
7B71C7
7B7BC7
77EFCF
7FFF8F
70E3FE
0FEEFE
03DE3C
031C30
ENDCHAR

STARTCHAR jisx0212_3367
ENCODING 13159
SWIDTH 960 0
DWIDTH 24 0
BBX 24 24 0 -2
BITMAP
03E0F8
03E0F8
3398E0
3FFCE0
3FFCE6
3838EF
383FFF
3FF7FF
3FF8E7
3838E7
3838E7
3FF8E7
3FF9E7
381DE7
377DC7
3BF9C7
39E3C7
3AF3C7
3F778F
FF778F
FC3F7E
702EFE
601C3C
003830
ENDCHAR

STARTCHAR jisx0212_3368
ENCODING 13160
SWIDTH 960 0
DWIDTH 24 0
BBX 24 24 0 -2
BITMAP
FFFCF8
FFFEF8
003EE0
1FF8E0
0FE0E6
679CEF
7BFFFF
7FFFFF
739CE7
739CE7
7FFCE7
7FFCE7
739CE7
739DE7
7FFDE7
7FFDC7
739DC7
739FC7
739BCF
739B8F
73FFFE
73FEFE
73B63C
702C30
ENDCHAR

STARTCHAR jisx0212_3369
ENCODING 13161
SWIDTH 960 0
DWIDTH 24 0
BBX 24 24 0 -2
BITMAP
1BE0F8
1F78F8
3FBCE0
3B9EE0
7FAEE6
F77EEF
DFF9FF
06C3FF
0EECE7
FF7EE7
FFFEE7
1C38E7
3C5EE7
7BFFE7
FFEFE7
DC75C7
DC71C7
1FF3C7
1BF3CF
1CEB8F
1CDFFE
1F36FE
1FFE3C
0FFC30
ENDCHAR

STARTCHAR jisx0212_336A
ENCODING 13162
SWIDTH 960 0
DWIDTH 24 0
BBX 24 24 0 -2
BITMAP
03E0F8
03E0F8
039CE0
7FFEE0
7FFEE6
3060EF
3C7FFF
1CF7FF
1CE0E7
1CEEE7
FBDEE7
FFFEE7
0000E7
3FFDE7
3FFDE7
3839C7
3839C7
383BC7
383BCF
383F8F
3FF7FE
3FFEFE
380E3C
381C30
ENDCHAR

STARTCHAR jisx0212_336B
ENCODING 13163
SWIDTH 960 0
DWIDTH 24 0
BBX 24 24 0 -2
BITMAP
03E0F8
03E0F8
039CE0
FFFEE0
FFFEE6
0380EF
3BBFFF
3BBFFF
3BB8E7
3BFCE7
7B7EE7
7F6EE7
6FEFE7
EFCDE7
E7ADC7
CFF1C7
1F7BC7
3BBBC7
7B9F8F
F3978F
E38F7E
039EFE
03BC3C
03B830
ENDCHAR

STARTCHAR jisx0212_336C
ENCODING 13164
SWIDTH 960 0
DWIDTH 24 0
BBX 24 24 0 -2
BITMAP
000F7C
FFFF7C
FFFF70
03C070
038070
678E77
7F7FFF
7FFFFF
776E77
776E77
77EE77
77EE77
776EF7
776EF7
776EE7
77EEE7
77EFE7
776DE7
776DCF
776FCF
7FFFBE
7FFFFE
70073C
700630
ENDCHAR

STARTCHAR jisx0212_336D
ENCODING 13165
SWIDTH 960 0
DWIDTH 24 0
BBX 24 24 0 -2
BITMAP
6018F8
703CF8
7FFEE0
7FFEE0
701EE6
7FDCEF
6FDFFF
701BFF
7FDCE7
6FDCE7
703CE7
3FF8E7
3FFCE7
3839E7
3FF9E7
3FF9C7
3839C7
3FFBC7
3FFBCF
383F8F
3FF7FE
3FFEFE
383E3C
380C30
ENDCHAR

STARTCHAR jisx0212_336E
ENCODING 13166
SWIDTH 960 0
DWIDTH 24 0
BBX 24 24 0 -2
BITMAP
3878F8
3FFCF8
3FFCE0
3838E0
3838E6
3FF8EF
3FFFFF
7837FF
67DCE7
7FFEE7
701CE7
7FFCE7
7FFCE7
701DE7
7FFDE7
7FFDC7
701DC7
7FFFC7
7FFBCF
79DF8F
1EF7FE
7C7EFE
F82E3C
E00C30
ENDCHAR

STARTCHAR jisx0212_336F
ENCODING 13167
SWIDTH 960 0
DWIDTH 24 0
BBX 24 24 0 -2
BITMAP
0FF87C
1FF87C
186070
3E7870
3DBC70
77FF77
FEDFFF
EF6DFF
7FF677
3E3877
313677
CFCF77
FFFF77
1F3E77
77EEF7
FEFEF7
EFDEE7
1F3FE7
77EDEF
F6EDCF
EFDFFE
3F7FFE
0E1F3C
0C1630
ENDCHAR

STARTCHAR jisx0212_3370
ENCODING 13168
SWIDTH 960 0
DWIDTH 24 0
BBX 24 24 0 -2
BITMAP
001EF8
FFFEF8
FFFEE0
06C0E0
7FFEE6
7FFEEF
76DDFF
76DBFF
7FFCE7
7FFCE7
701CE7
0FF8E7
7FFCE7
0001E7
FFFDE7
FFFDC7
3381C7
3B7BC7
7BBBCF
7B9F8F
F79FFE
DF86FE
C71E3C
061C30
ENDCHAR

STARTCHAR jisx0212_3371
ENCODING 13169
SWIDTH 960 0
DWIDTH 24 0
BBX 24 24 0 -2
BITMAP
7FF1F8
7FF3DE
00EFAF
3FDFFF
3FEEE7
380DFF
7FEFFE
7FEEEE
70EFFE
70EFFE
01EEDD
3FF1EF
3FBFFF
079F83
06380C
79FFFF
7FFFFF
00700F
01F01E
03E01E
0FC3FC
3F83FC
FE0078
F00060
ENDCHAR

STARTCHAR jisx0212_3372
ENCODING 13170
SWIDTH 960 0
DWIDTH 24 0
BBX 24 24 0 -2
BITMAP
0F00F8
1E70F8
1FF8E0
3FF8E0
78E4E6
F7DEEF
FFFFFF
739BFF
739CE7
7FFCE7
7FFCE7
778EE7
0F3EE7
7DFCE7
FBF1E7
E6E9E7
1DFDC7
FBDFC7
E6FFCF
1FEF8F
F9EBFE
DFC6FE
078E3C
060C30
ENDCHAR

STARTCHAR jisx0212_3373
ENCODING 13171
SWIDTH 960 0
DWIDTH 24 0
BBX 24 24 0 -2
BITMAP
3378F8
3B78F8
3B76E0
FFEEE0
FFFEE6
3B70EF
3BF3FF
3B7FFF
3C9CE7
3FFEE7
3800E7
37FCE7
3FFCE7
3839E7
3FF9E7
3839C7
3FF9C7
383BC7
3FFBCF
383B8F
1EE7FE
7C7EFE
F83E3C
E00C30
ENDCHAR

STARTCHAR jisx0212_3374
ENCODING 13172
SWIDTH 960 0
DWIDTH 24 0
BBX 24 24 0 -2
BITMAP
07FC7C
7FFC7C
7FC370
873F70
FFFF70
0E7077
3DBFFF
7FFFFF
FC3F77
DFF777
1FF877
7C3E77
63CF77
7FFFF7
700EF7
6FEEE7
6FEEE7
6EEEE7
6FEFEF
6FEDCF
7EFFFE
707FFE
701B3C
701630
ENDCHAR

STARTCHAR jisx0212_3375
ENCODING 13173
SWIDTH 960 0
DWIDTH 24 0
BBX 24 24 0 -2
BITMAP
1FF07C
3FBC7C
3B9E70
7FEE70
FFEE70
E6C077
0EEDFF
FF7FFF
FFFF77
1DB877
7BDF77
F76F77
EEF777
C5DBF7
3BBCF7
FFFEE7
7B8EE7
5F7FE7
3FB9CF
3BBFCF
7B9BBE
F39FFE
E3873C
038630
ENDCHAR

STARTCHAR jisx0212_3376
ENCODING 13174
SWIDTH 960 0
DWIDTH 24 0
BBX 24 24 0 -2
BITMAP
0F070F
0E77FF
7FF7FF
7FF777
0E7777
1EF777
3CF7FF
3FE7FF
77E777
F1C777
EC3777
3CF7FF
3AE7FF
F7DEC7
FFFD70
2EB9B7
2EB5F7
2EB5C3
6FB5CB
6DBDCB
6DBDDB
FFFDFF
FBEDFE
DB60FC
ENDCHAR

STARTCHAR jisx0212_3377
ENCODING 13175
SWIDTH 960 0
DWIDTH 24 0
BBX 24 24 0 -2
BITMAP
0F787C
0E777C
FFFF70
FFFF70
0E7070
3E7C77
319DFF
3FFDFF
3B9C77
3FFC77
3B9C77
3FFC77
7B9E77
67EEF7
7FFEF7
736EE7
73BEE7
7F7EE7
7FBFEF
6F2DCF
7C5FFE
707FFE
701B3C
701630
ENDCHAR

STARTCHAR jisx0212_3378
ENCODING 13176
SWIDTH 960 0
DWIDTH 24 0
BBX 24 24 0 -2
BITMAP
03DC7C
03BE7C
63FE70
7F8770
7FFF70
73B777
7FFCFF
7F8FFF
73FE77
7DFC77
6E0F77
6FFF77
6EEE77
6FFEF7
6EEEF7
6FFEE7
7ECEE7
71E0E7
EB7FEF
FBD7CF
DBBBFE
BBFBFE
D9FF3C
000630
ENDCHAR

STARTCHAR jisx0212_3379
ENCODING 13177
SWIDTH 960 0
DWIDTH 24 0
BBX 24 24 0 -2
BITMAP
1F3B3C
1FFFBC
3BFFFB
7C6C77
EFF77F
FFFFEE
1D82EE
3DFFAE
7DC7BE
FDFF3C
DDC71E
1DFF7F
1DC7EF
1DBEE7
1DCDC3
1C380C
E3FFFF
FFFFFF
00700F
01F01E
07E3FE
1FC3FC
FF0078
F80060
ENDCHAR

STARTCHAR jisx0212_337A
ENCODING 13178
SWIDTH 960 0
DWIDTH 24 0
BBX 24 24 0 -2
BITMAP
01E07C
01C77C
FFFF70
FFFF70
000070
7EFE77
76EFFF
7EFDFF
000077
FFFF77
FFFF77
0E7077
7FFE77
0E70F7
FFFFF7
FFFFE7
0F0CE7
7DFFE7
FCFDCF
DF7BCF
3BBBBE
FF1EFE
78163C
600C30
ENDCHAR

STARTCHAR jisx0212_337B
ENCODING 13179
SWIDTH 960 0
DWIDTH 24 0
BBX 24 24 0 -2
BITMAP
03E000
07E00C
07801E
0F7FFF
0FFFFF
1E000F
3C000E
78030E
F0078E
EFFFCE
1FFFCE
00000E
00000E
0001EE
000FEE
01FF8E
3FFC1E
3FE01E
1F001C
18003C
0007FC
0007F8
0000F0
0000C0
ENDCHAR

STARTCHAR jisx0212_337C
ENCODING 13180
SWIDTH 960 0
DWIDTH 24 0
BBX 24 24 0 -2
BITMAP
03E000
07E006
07800F
0F7FFF
0FFFFF
1E0007
3C1F07
781F07
FF3C07
DF3C07
1C3807
1C7F07
1C7787
1CF3C7
1CF1E7
1DE1E7
1FC0EF
1B80CF
1C7FEE
1FFFFE
1C001E
1C03FC
000078
000060
ENDCHAR

STARTCHAR jisx0212_337D
ENCODING 13181
SWIDTH 960 0
DWIDTH 24 0
BBX 24 24 0 -2
BITMAP
03E000
07E006
07800F
0F7FFF
0FFFFF
1E0007
3C3D87
7E3DE7
F73BE7
E7BBC7
03BF87
03B777
3F7EF7
3FFFF7
007807
01FF87
03F7CF
07BBEF
0FB9EE
1F38FE
3C3B1E
783BFC
603878
003860
ENDCHAR

STARTCHAR jisx0212_337E
ENCODING 13182
SWIDTH 960 0
DWIDTH 24 0
BBX 24 24 0 -2
BITMAP
03E000
07E006
07800F
0F7FFF
0FFFFF
1D8007
3FE1E7
7BDFF7
F7FFF7
EF3807
0E38F7
3DFFF7
3FFFF7
003807
0F38F7
0E38E7
0E38E7
0E38E7
0FFFEF
0FFFEF
0E001E
0E01FE
00003C
000030
ENDCHAR

STARTCHAR jisx0212_3421
ENCODING 13345
SWIDTH 960 0
DWIDTH 24 0
BBX 24 24 0 -2
BITMAP
07C000
0FC006
0F000F
1EFFFF
1FFFFF
3CC007
79F807
F1DC07
E3DE07
078F87
0F17E7
1EFBF7
3BFDF7
7C02E7
6FFF67
0FFF87
0E0707
0E0707
0E070F
0E070F
0FFFFE
0FFEFE
0E073C
000030
ENDCHAR

STARTCHAR jisx0212_3422
ENCODING 13346
SWIDTH 960 0
DWIDTH 24 0
BBX 24 24 0 -2
BITMAP
0F0006
1E000F
1FFFFF
3FFFFF
3B0007
7BDFF7
FEFFF7
DFF0E7
DCECE7
1FEFE7
1FEFE7
1CEEE7
1FEE07
1FFEE7
1CFDF7
1FDFF7
FFFCE7
FBE0E7
76E1EF
0EE1EF
3DFFDE
77DFFE
61C7BC
018630
ENDCHAR

STARTCHAR jisx0212_3423
ENCODING 13347
SWIDTH 960 0
DWIDTH 24 0
BBX 24 24 0 -2
BITMAP
0F0006
1E000F
1FFFFF
3FFFFF
360007
771FE7
FEDFE7
FFDDD7
B9DDD7
3FFDFF
3FB9FF
39F8F7
3FF767
3FBFF7
3018E7
3FFDE7
3BEFC7
378FC7
3E4787
38CFEF
3FDDEF
3FFCFE
1FB8FE
00603C
ENDCHAR

STARTCHAR jisx0212_3424
ENCODING 13348
SWIDTH 960 0
DWIDTH 24 0
BBX 24 24 0 -2
BITMAP
701EF7
7C3FFF
7C3DEF
707BDE
70F7BC
71E738
737BDE
77BDEF
7FBCEF
6F1FE7
7C1BC6
702781
703F7F
703FFF
703867
71BFF7
71BBF7
71B9E7
73BBF7
73BFB7
7FB737
7FBCCF
3FBFFF
003807
ENDCHAR

STARTCHAR jisx0212_3425
ENCODING 13349
SWIDTH 960 0
DWIDTH 24 0
BBX 24 24 0 -2
BITMAP
70001E
7FFFFF
7FFFFF
70E000
70F980
70E3C0
71FFC0
71FFC0
71C380
73C780
738700
778F80
7F0DC0
6E1DC0
7C3DE0
7078F0
70F0F8
71E07E
77C07E
7F803D
6E001B
71FFE7
7FFFFF
700000
ENDCHAR

STARTCHAR jisx0212_3426
ENCODING 13350
SWIDTH 960 0
DWIDTH 24 0
BBX 24 24 0 -2
BITMAP
70000F
7FFFFF
7FFFFF
700C00
71EF38
71EEFC
71CFFC
71FFBC
73BE38
7FEE38
6DCE38
71CE38
71CFF8
71CDF8
71CE74
71CE6C
71C01C
71FFFE
71FFFE
70FFFC
700007
7FFFFF
7FFFFF
700000
ENDCHAR

STARTCHAR jisx0212_3427
ENCODING 13351
SWIDTH 960 0
DWIDTH 24 0
BBX 24 24 0 -2
BITMAP
70000F
7FFFFF
7FFFFF
700000
700018
70003C
73FFFE
73FFFE
700E00
700E00
700E00
700E00
700E00
700E00
700E0C
700E1E
77FFFF
77FFFF
700000
700006
70000F
7FFFFF
7FFFFF
700000
ENDCHAR

STARTCHAR jisx0212_3428
ENCODING 13352
SWIDTH 960 0
DWIDTH 24 0
BBX 24 24 0 -2
BITMAP
70000F
7FFFFF
7FFFFF
701C00
701F0C
701C1E
7FFFFF
6FFFFF
700000
70FFC0
70FFC0
70E3C0
70E380
70E386
70E386
71E38E
71C38E
73C3FF
7783FF
7F01FE
6E0003
71FFFF
7FFFFF
700000
ENDCHAR

STARTCHAR jisx0212_3429
ENCODING 13353
SWIDTH 960 0
DWIDTH 24 0
BBX 24 24 0 -2
BITMAP
70000F
7FFFFF
7FFFFF
703000
707DC0
7079F0
70F0F8
7FEF7C
6FFFFC
77FC1C
7661FA
7079E7
7FF7DF
6FFFFF
7071C0
7071C0
70F1C0
70E1C0
71E1C0
73C1C6
7781CF
7E7E3F
7FFFFF
700000
ENDCHAR

STARTCHAR jisx0212_342A
ENCODING 13354
SWIDTH 960 0
DWIDTH 24 0
BBX 24 24 0 -2
BITMAP
70000F
7FFFFF
7FFFFF
700C00
700F0C
700E1E
7FFFFF
6FFFFF
718E60
71EE78
71CE70
73DEFC
73FEFE
777BDE
7F5BCE
6E39EC
7C79F0
70F0FE
73E07E
7FC03D
6F001B
70FFE7
7FFFFF
700000
ENDCHAR

STARTCHAR jisx0212_342B
ENCODING 13355
SWIDTH 960 0
DWIDTH 24 0
BBX 24 24 0 -2
BITMAP
70000F
7FFFFF
7FFFFF
7060C0
7778F0
7770E0
7770E0
7770E7
77FFFF
77EFFF
7770E0
7070E0
7FF0E0
6FF0E0
7770E0
7770E0
7770E0
7F70EE
6E7FFF
6E6FFF
7C7003
7B8FFF
7FFFFF
700000
ENDCHAR

STARTCHAR jisx0212_342C
ENCODING 13356
SWIDTH 960 0
DWIDTH 24 0
BBX 24 24 0 -2
BITMAP
70000F
7FFFFF
7FFFFF
700C00
778F1E
778E1E
770E1C
77FFFC
77FFFC
770E1C
700E00
77F1FE
77FFFE
700E00
73FFFC
73FFFC
700E00
700E0E
7FFFFF
6FFFFF
700006
7FFFFF
7FFFFF
700000
ENDCHAR

STARTCHAR jisx0212_342D
ENCODING 13357
SWIDTH 960 0
DWIDTH 24 0
BBX 24 24 0 -2
BITMAP
70000F
7FFFFF
7FFFFF
71E000
71DFFF
73FFFF
739DCE
77BBCE
7F7B8E
6EF79E
7DEF7E
73DEFC
77BC38
75F3F4
71FFFC
71C038
71FFF8
71C038
71FFF8
71FFFB
71C03F
7E3FC7
7FFFFF
700000
ENDCHAR

STARTCHAR jisx0212_342E
ENCODING 13358
SWIDTH 960 0
DWIDTH 24 0
BBX 24 24 0 -2
BITMAP
70000F
7FFFFF
7FFFFF
7001C0
71FFE0
70C180
71F2F8
73CF7F
777FBF
7F000F
7CFDDB
77FDDE
771FFC
77DBB8
76DF70
771EE8
77DBBC
76DDDE
773DFE
76FCEE
7738EF
78C713
7FFFFF
700000
ENDCHAR

STARTCHAR jisx0212_342F
ENCODING 13359
SWIDTH 960 0
DWIDTH 24 0
BBX 24 24 0 -2
BITMAP
70000F
7FFFFF
7FFFFF
718300
71FBC0
7FDB80
7FFBB8
71C7FC
6FFFFC
6FFBB8
6DBBB8
6FFBB8
6DBBB8
6FFBB8
6FFFBB
7DC7BB
73FF3B
7FFF3F
71CE3F
71FC1F
71B803
7E47FF
7FFFFF
700000
ENDCHAR

STARTCHAR jisx0212_3430
ENCODING 13360
SWIDTH 960 0
DWIDTH 24 0
BBX 24 24 0 -2
BITMAP
7FFFFF
7FFFFF
700000
77FBFF
77FBFF
773B8E
77FBFE
77FBFE
73040C
73FFFE
738E1C
73FFFC
73FFFC
738E1C
73FFFC
73FFFC
738E03
7C7FFF
6FFFFF
700E00
700E0F
7FFFFF
7FFFFF
700000
ENDCHAR

STARTCHAR jisx0212_3431
ENCODING 13361
SWIDTH 960 0
DWIDTH 24 0
BBX 24 24 0 -2
BITMAP
70000F
7FFFFF
7FFFFF
703800
707E1E
7FF9FF
7FFFFF
70E1C0
73DEFC
77FFFF
7EE0DF
6EFFEF
78FFE6
76E0F8
773B1E
77FBFE
773B9C
773B9C
77FBFC
77FBFF
773B9B
78C467
7FFFFF
700000
ENDCHAR

STARTCHAR jisx0212_3432
ENCODING 13362
SWIDTH 960 0
DWIDTH 24 0
BBX 24 24 0 -2
BITMAP
7FFFFF
7FFFFF
700E00
77FFFE
700E00
73FFFC
740002
77FFFE
773B2E
77F3EE
76CC1E
77FFFE
77000E
71FFF8
71C038
71FFF8
71C038
71FFF8
71C038
71FFFB
7270E7
7FCF3F
7FFFFF
700000
ENDCHAR

STARTCHAR jisx0212_3433
ENCODING 13363
SWIDTH 960 0
DWIDTH 24 0
BBX 24 24 0 -2
BITMAP
00000F
FFFFFF
FFFFFF
380E00
381F80
381DC0
383DE0
3878F8
38F17E
39EFBF
3BBFDF
3F800F
374036
38FFF8
38FFFC
38E03C
38E038
38E038
38FFF8
38FFF8
3CE038
3F1FC7
1FFFFF
0FFFFF
ENDCHAR

STARTCHAR jisx0212_3434
ENCODING 13364
SWIDTH 960 0
DWIDTH 24 0
BBX 24 24 0 -2
BITMAP
7FFFFF
7FFFFF
700000
71FFFC
71FFFC
71C03C
71FFF8
71FFF8
71C038
71FFF8
71FFF8
71DC38
703C07
7FFBFF
6FFFFF
70F0E0
71EFE0
71FFD0
71C7FC
763E7F
77F01B
780FE7
7FFFFF
700000
ENDCHAR

STARTCHAR jisx0212_3435
ENCODING 13365
SWIDTH 960 0
DWIDTH 24 0
BBX 24 24 0 -2
BITMAP
000007
FFFFFF
FFFFFF
380038
3BFFFC
3BFF80
3B807E
3BFFFE
3B801C
3BFFFC
3BFFFC
3B801E
3BFFEF
3FFFFF
37DDCE
37FFFE
3DFFFE
3DDDCE
3DDDFE
39DDBE
3DDDDC
3E2223
1FFFFF
0FFFFF
ENDCHAR

STARTCHAR jisx0212_3436
ENCODING 13366
SWIDTH 960 0
DWIDTH 24 0
BBX 24 24 0 -2
BITMAP
0000F0
FFFFF8
FFFFF8
000078
01F070
01F070
01C070
01C070
01C070
01C670
01CF70
FFFF70
FFFF70
01C070
01C078
01C078
01C039
01C03D
01C03F
01C01B
01C01F
01C00F
01C007
01C003
ENDCHAR

STARTCHAR jisx0212_3437
ENCODING 13367
SWIDTH 960 0
DWIDTH 24 0
BBX 24 24 0 -2
BITMAP
1EF7BE
1EF7BE
1CE738
1CE738
1CE738
1CE738
1CE738
1CE738
1CE73F
FFFFF7
FFFFFF
1CE738
1CE738
1CE738
1CE738
1CE738
1CE738
1CE738
1CE738
1CE738
1CE738
1CE738
1CE738
1CE738
ENDCHAR

STARTCHAR jisx0212_3438
ENCODING 13368
SWIDTH 960 0
DWIDTH 24 0
BBX 24 24 0 -2
BITMAP
001F00
001F00
001C06
001C0F
7FFFFF
7FFFFF
001C00
0E1C38
0F9C3E
0F9C3E
0E1C38
0E1C3B
FFE3FF
FFFFFF
0E0038
0E0038
0E0038
0E0038
0E0038
0E0038
0FFFF8
0FFFF8
0E0038
0E0038
ENDCHAR

STARTCHAR jisx0212_3439
ENCODING 13369
SWIDTH 960 0
DWIDTH 24 0
BBX 24 24 0 -2
BITMAP
1E3C3E
1E3C3E
1C3B38
FFFFB8
FFFFB8
1C3838
1FF838
1FF83B
1C3FFF
1FF7FF
1FF838
1C3838
1C3B38
FFFFB8
FFFFB8
777038
777638
7F7F38
6E7F38
7C3E38
780138
77FFB8
7FFFB8
700038
ENDCHAR

STARTCHAR jisx0212_343A
ENCODING 13370
SWIDTH 960 0
DWIDTH 24 0
BBX 24 24 0 -2
BITMAP
3C7E3C
BE7EBE
F781F7
7FFF6F
6F007E
7E7E5C
1B0037
FFFFFF
FFC1FF
ED7EDB
7B7EF6
6F66DF
6D7EDB
ED7FDB
EC61DB
CC1D98
001C07
FFFFFF
FFFFFF
001C00
001C00
001C00
001C00
001C00
ENDCHAR

STARTCHAR jisx0212_343B
ENCODING 13371
SWIDTH 960 0
DWIDTH 24 0
BBX 24 24 0 -2
BITMAP
003E00
003E00
003818
00383C
003FFE
003FFE
003800
003806
00380F
FFFFFF
FFFFFF
003000
003C00
003B00
0037E0
003BF8
0038FC
00387C
00383C
003818
003800
003800
003800
003800
ENDCHAR

STARTCHAR jisx0212_343C
ENCODING 13372
SWIDTH 960 0
DWIDTH 24 0
BBX 24 24 0 -2
BITMAP
003E00
003E0C
00381E
003FFF
003FFF
303800
38381E
3FFFFF
3FFFFF
38000F
380E0E
3FFF0E
3FFF0E
380F0E
380E0E
380E0E
3FFE0E
3FFE0E
380E0E
380E0E
38000E
3FFFFE
3FFFFE
38000E
ENDCHAR

STARTCHAR jisx0212_343D
ENCODING 13373
SWIDTH 960 0
DWIDTH 24 0
BBX 24 24 0 -2
BITMAP
003C0C
00381E
003FFF
003FFF
603800
70381E
7FFFFF
7FFFFF
70300F
707CEE
7E79EE
6FF1EE
73EBCE
71FFCE
77BF8E
7F0F0E
6E3FCE
787BEE
70F9EE
73F0EE
77C0CE
7F3F3E
7FFFFE
70000E
ENDCHAR

STARTCHAR jisx0212_343E
ENCODING 13374
SWIDTH 960 0
DWIDTH 24 0
BBX 24 24 0 -2
BITMAP
00F606
1BF70F
1FE7FF
1F07FF
1C0707
1C0707
1C0707
1C0707
1C0707
1C0707
1C0707
1C0707
1C0707
1C0707
1CF707
1FF707
FFC7FF
FE06FF
F8071E
60070C
600700
000700
000700
000700
ENDCHAR

STARTCHAR jisx0212_343F
ENCODING 13375
SWIDTH 960 0
DWIDTH 24 0
BBX 24 24 0 -2
BITMAP
000606
00770F
7FF7FF
7FF7FF
070707
070707
070707
070707
070707
070707
070707
070707
070707
073707
07F707
1EF707
FFC7FF
FF06FF
78071E
60070C
000700
000700
000700
000700
ENDCHAR

STARTCHAR jisx0212_3440
ENCODING 13376
SWIDTH 960 0
DWIDTH 24 0
BBX 24 24 0 -2
BITMAP
001D87
7FFDFF
7FFDFF
071DC7
071DC7
0F1DC7
0F1DC7
1E3DC7
1E3DC7
3DF9C7
7BF9C7
F0F1C7
E0CDC7
3F3DC7
3FFDC7
381DC7
381DFF
381DBF
381DCE
381DCC
3FFDC0
3FFDC0
381DC0
381DC0
ENDCHAR

STARTCHAR jisx0212_3441
ENCODING 13377
SWIDTH 960 0
DWIDTH 24 0
BBX 24 24 0 -2
BITMAP
03C000
03C187
0781FF
671DFF
7EFDC7
7FFDC7
76DDC7
76DDC7
76DDC7
76DDC7
76DDC7
76DDC7
76DDC7
76DDC7
76DDC7
76DDC7
76DFC7
76FFFF
7FFDBF
EFE1CE
FF01CC
F801C0
C001C0
0001C0
ENDCHAR

STARTCHAR jisx0212_3442
ENCODING 13378
SWIDTH 960 0
DWIDTH 24 0
BBX 24 24 0 -2
BITMAP
66CD87
7EFDFF
7EFDFF
76EDC7
76EDC7
7EFDC7
7EFDC7
76EDC7
7011C7
0FFDC7
3FFDC7
0001C7
FFFFC7
FFFFC7
0E01C7
1FFDC7
3FFDFF
3C3DBF
3879CE
0079CC
07F1C0
07F1C0
01E1C0
0181C0
ENDCHAR

STARTCHAR jisx0212_3443
ENCODING 13379
SWIDTH 960 0
DWIDTH 24 0
BBX 24 24 0 -2
BITMAP
01E000
03C380
03FFC0
07FFC0
0F0780
0F0F06
1E1E0F
3DFDFF
7FFFFF
EE0000
EE0000
0E0000
0E0000
0E0000
0E0000
0E0000
1E0000
1E0000
1C0000
3C0000
380000
780000
F00000
E00000
ENDCHAR

STARTCHAR jisx0212_3444
ENCODING 13380
SWIDTH 960 0
DWIDTH 24 0
BBX 24 24 0 -2
BITMAP
38000F
3FFFFF
3FFFFF
380000
3801FC
380FFC
387FE0
3BFF00
3BEE00
380E06
380E0F
380FFF
3FFFFF
3FFE00
380E00
380E03
380E03
780E07
700E07
700E0E
700FFF
E00FFF
E007FF
C00000
ENDCHAR

STARTCHAR jisx0212_3445
ENCODING 13381
SWIDTH 960 0
DWIDTH 24 0
BBX 24 24 0 -2
BITMAP
38000F
3FFFFF
3FFFFF
380000
38000C
38001E
3BFFFF
3BFFFF
380700
380700
380700
380706
38070F
3FFFFF
37FFFF
380700
380700
780700
700700
700700
700700
E00700
E00700
C00700
ENDCHAR

STARTCHAR jisx0212_3446
ENCODING 13382
SWIDTH 960 0
DWIDTH 24 0
BBX 24 24 0 -2
BITMAP
38000F
3FFFFF
3FFFFF
380030
39CFFC
39FFFC
39FF80
39C380
39C386
39C38F
39FFFF
39FFFF
39C1C0
39C1C0
39C1E0
39CFE0
39FEF1
7FFCF1
6FF07B
7781FB
7603BF
E9FFDF
EFFFEF
C00003
ENDCHAR

STARTCHAR jisx0212_3447
ENCODING 13383
SWIDTH 960 0
DWIDTH 24 0
BBX 24 24 0 -2
BITMAP
38000F
3FFFFF
3FFFFF
380C00
380F18
380E3C
3BFFFE
3BFFFE
380E00
380E0C
380E1E
3FFFFF
37FFFF
380C00
380F18
380E3C
3BFFFE
7BFFFE
700E00
700E06
700E0F
EFFFFF
DFFFFF
C00000
ENDCHAR

STARTCHAR jisx0212_3448
ENCODING 13384
SWIDTH 960 0
DWIDTH 24 0
BBX 24 24 0 -2
BITMAP
38000F
3FFFFF
3FFFFF
380000
38001E
3FFFFF
37FFFF
383C00
3839F0
3878F8
38777C
3FEFFE
37FF1E
3BEC1E
3B0F0C
380E38
3FFFFE
77FFFE
700E00
700E06
700E0F
EFFFFF
DFFFFF
C00000
ENDCHAR

STARTCHAR jisx0212_3449
ENCODING 13385
SWIDTH 960 0
DWIDTH 24 0
BBX 24 24 0 -2
BITMAP
38000F
3FFFFF
3FFFFF
380600
38078F
3FFF7F
37FFFF
380700
39FFFE
39FFFE
39C71E
39FFFC
39FFFC
39C71C
39C71C
39FFFC
39FFFF
79C71B
763FE7
6FFFFF
700700
E00700
E00700
C00700
ENDCHAR

STARTCHAR jisx0212_344A
ENCODING 13386
SWIDTH 960 0
DWIDTH 24 0
BBX 24 24 0 -2
BITMAP
38000F
3FFFFF
3FFFFF
386180
3879EC
3871DE
3FFFFF
37FFFF
3871C0
3871CF
3FFFFF
3FFFFF
380000
39FFFC
39FFFC
39C03C
39C038
79FFF8
71FFF8
71C038
71C038
E1FFF8
E1FFF8
C1C038
ENDCHAR

STARTCHAR jisx0212_344B
ENCODING 13387
SWIDTH 960 0
DWIDTH 24 0
BBX 24 24 0 -2
BITMAP
38000F
3FFFFF
3FFFFF
380C00
399F1C
39FCFE
39FFFE
39C01E
39FFFC
39FFFC
39C01C
39FFFC
39FFFC
39C70E
3E3F9F
37FFBF
3876FC
79F7E0
73E77E
77C73F
7FBF1F
EE7F0F
D80E03
C00C00
ENDCHAR

STARTCHAR jisx0212_344C
ENCODING 13388
SWIDTH 960 0
DWIDTH 24 0
BBX 24 24 0 -2
BITMAP
38000F
3FFFFF
3FFFFF
380000
387E3F
39FEFF
3FF9FC
36E370
38E073
38FC77
3FDFFF
37FFFF
39E0F0
39F1F8
3BF9FC
3BDBFC
3FDB6E
76FF6F
7EE77F
6EFE77
7CDC77
D8F873
E0E070
C0E070
ENDCHAR

STARTCHAR jisx0212_344D
ENCODING 13389
SWIDTH 960 0
DWIDTH 24 0
BBX 24 24 0 -2
BITMAP
38000F
3FFFFF
3FFFFF
3830C0
383CF7
3FFBEF
37FFFF
3838E0
383FE0
39BFFC
39C71E
39FFFE
39C71C
39FFFC
39FFFC
39C71E
3A3FEF
7BFFFF
700700
71FFFE
71FFFF
E00703
EFFFFF
CFFFFF
ENDCHAR

STARTCHAR jisx0212_344E
ENCODING 13390
SWIDTH 960 0
DWIDTH 24 0
BBX 24 24 0 -2
BITMAP
38000F
3FFFFF
3FFFFF
38C0C0
38FCF0
3FEEE0
37FEE3
38E1FF
3FFFFF
3FFFCE
38C1CE
38FBDE
3FEEDE
3FFEDC
39C6FC
39FC7C
39FE78
7BDCFC
7BDCFE
779DDF
77BFCF
EF7B8F
FDF707
DC6C03
ENDCHAR

STARTCHAR jisx0212_344F
ENCODING 13391
SWIDTH 960 0
DWIDTH 24 0
BBX 24 24 0 -2
BITMAP
38000F
3FFFFF
3FFFFF
38C060
38F078
38EE77
3FFFFF
37FFFF
38E070
39FCFE
3BDDEF
3BEFF7
3EEB77
36E773
3CEC73
38F070
391E08
79EF3E
71C75F
71C76F
71C0E7
E1FFF7
E1FFF3
C0FFE0
ENDCHAR

STARTCHAR jisx0212_3450
ENCODING 13392
SWIDTH 960 0
DWIDTH 24 0
BBX 24 24 0 -2
BITMAP
38000F
3FFFFF
3FFFFF
3838E0
3FFFFF
37FFFF
3838E0
39B8FC
39C71E
39FFFE
39C71C
39FFFC
39C71C
39FFFC
3FC71F
363FE7
37FFFF
7706C7
77FF77
76FFF7
777E37
E7600F
E7003F
C7000E
ENDCHAR

STARTCHAR jisx0212_3451
ENCODING 13393
SWIDTH 960 0
DWIDTH 24 0
BBX 24 24 0 -2
BITMAP
3FFFFF
3FFFFF
380000
3BFC3F
3B9C37
3BFDFB
3F9FFF
37FE38
370E7C
37FE7E
370EEF
37FFEF
370DC7
3FBF8B
39CC7E
39FFFF
39C70E
79FFFE
71C70E
71FFFE
71C70E
E00700
E00700
C00700
ENDCHAR

STARTCHAR jisx0212_3452
ENCODING 13394
SWIDTH 960 0
DWIDTH 24 0
BBX 24 24 0 -2
BITMAP
0FFFFF
0FFFFF
0E1C00
0EFFF8
0EE038
0EFFF8
0EE038
1EFFF8
1DC700
3FFEFE
37DF3E
6E260F
71F7F3
7FF7FF
738738
6FF6FF
6C76C7
6FF6FF
6C76C7
7FFFFF
DB6DB6
FF6FFF
B77B7B
B31633
ENDCHAR

STARTCHAR jisx0212_3453
ENCODING 13395
SWIDTH 960 0
DWIDTH 24 0
BBX 24 24 0 -2
BITMAP
00F800
00F800
00E006
00E00F
FFFFFF
FFFFFF
01C000
03C000
03CE00
038F80
078F80
079E00
0F1E00
0F1C00
1E1CE0
1E3CF0
3C3878
38383C
78703E
F073DE
EFEFFF
CFFF8F
07F00F
060006
ENDCHAR

STARTCHAR jisx0212_3454
ENCODING 13396
SWIDTH 960 0
DWIDTH 24 0
BBX 24 24 0 -2
BITMAP
070070
07C07C
07C07C
070070
0700F0
0F00F0
0F00E0
0E00E0
0E01E0
0E01E0
1E01C0
1D81F0
1DC3B8
1DC39C
1CE39C
38E38E
38F70F
387707
33F73F
FFFEFF
FF7FF3
786F83
606C03
000000
ENDCHAR

STARTCHAR jisx0212_3455
ENCODING 13397
SWIDTH 960 0
DWIDTH 24 0
BBX 24 24 0 -2
BITMAP
007C00
007C00
00F006
00F00F
FFEFFF
FFFFFF
01C300
03C1C0
07B9E0
0F3EF0
0F3EF8
1E787E
3C783F
78701F
F0F30F
E0E3C6
01E1F0
01C0F8
03C07C
038FBE
3F7FFE
3FFE1E
1FC01E
18000C
ENDCHAR

STARTCHAR jisx0212_3456
ENCODING 13398
SWIDTH 960 0
DWIDTH 24 0
BBX 24 24 0 -2
BITMAP
007C00
00FC00
00F000
00E380
01E3C0
01C1F0
03C0F8
039F7C
7F7FFE
7FFE1E
3FC07E
36006C
078078
0F00F0
0F00F0
0EC0EC
1EE1EE
1CF1CF
3C73C7
3BFBBF
F7FF7F
FFBFFB
7C3783
603603
ENDCHAR

STARTCHAR jisx0212_3457
ENCODING 13399
SWIDTH 960 0
DWIDTH 24 0
BBX 24 24 0 -2
BITMAP
001E06
001C0F
FFFFFF
FFFFFF
001C00
1C1C3C
1FFFFE
1FFFFE
1C1C1E
1FFFFC
1FFFFC
1C1C1C
1FFFFC
1FFFFC
1C781C
1CF0DC
01E0E0
01E07C
03C03E
038FDF
FF7FFF
FFFF07
7FC007
700003
ENDCHAR

STARTCHAR jisx0212_3458
ENCODING 13400
SWIDTH 960 0
DWIDTH 24 0
BBX 24 24 0 -2
BITMAP
007B80
00F3E0
00E1F8
1FDEFC
1FFFBC
0FF01C
183C30
3F7E7E
37776F
FBF7F7
FFE3FF
79C1E3
6778FC
1F787F
7E749F
FB6EEF
E77F73
0E77BC
1E73DE
3C73DF
7FF1CF
7BF1CF
70E186
00C000
ENDCHAR

STARTCHAR jisx0212_3459
ENCODING 13401
SWIDTH 960 0
DWIDTH 24 0
BBX 24 24 0 -2
BITMAP
003C00
003870
1FFFF8
1FFFF8
003870
003873
003877
FFFFFF
FFFFFF
003800
0038E0
1FFFF0
1FFFF8
0300F8
01C3E0
01E7C0
00EF80
007F00
003E00
01FFE0
07F7FC
3FC1FF
FE007F
F0001E
ENDCHAR

STARTCHAR jisx0212_345A
ENCODING 13402
SWIDTH 960 0
DWIDTH 24 0
BBX 24 24 0 -2
BITMAP
000070
3FFFF8
3FFFF8
0180F0
01E3E0
00F7C0
007F80
003F60
01FFFF
0FF3FF
7F807E
7C600C
83EFFF
FFEFFF
30E30E
39E39E
1BC1BC
1FC1FC
0F80F8
0741F4
1FFBBF
7DFF9F
F8EF0F
E05C06
ENDCHAR

STARTCHAR jisx0212_345B
ENCODING 13403
SWIDTH 960 0
DWIDTH 24 0
BBX 24 24 0 -2
BITMAP
001E06
001C0F
FFFFFF
FFFFFF
001C00
1FFFFE
1FFFFE
1C1C1E
1C1C1C
1FFFFC
1FFFFC
1C1C1C
23FFE0
3FFFF8
0180F8
01E3E0
00F7C0
007F80
003F00
00FFC0
03F7FC
1FE3FF
FF00FF
F8001E
ENDCHAR

STARTCHAR jisx0212_345C
ENCODING 13404
SWIDTH 960 0
DWIDTH 24 0
BBX 24 24 0 -2
BITMAP
00E00E
7FEFFF
7FEFFF
18E30E
1DE39E
0FC1BC
0FC1FC
0780F8
1FF1FE
3DFBBF
7CFF9F
F0770F
CFEEFE
7FEFFF
18E30E
1DE39E
1FC1BC
0BC1FC
0F80F8
1FE1FE
3BFBBF
79FF9F
F0EF0F
C05C06
ENDCHAR

STARTCHAR jisx0212_345D
ENCODING 13405
SWIDTH 960 0
DWIDTH 24 0
BBX 24 24 0 -2
BITMAP
70F01E
7FF7FF
7FFFFF
70780F
70700E
70700E
70700E
7FFFFE
7FEFFE
70700E
708000
71DFFF
7FFFFF
7FF60F
70071E
70C73C
71E37C
7FF3F8
7FF1F0
7007FC
700F7F
703F3F
70FC0F
70F006
ENDCHAR

STARTCHAR jisx0212_345E
ENCODING 13406
SWIDTH 960 0
DWIDTH 24 0
BBX 24 24 0 -2
BITMAP
078E1E
070FFF
076FFF
7FFE0F
7FFE0E
070E0E
070E7E
070E7E
076E1C
FFFE1A
FFFFEF
0E0FFF
1DCD8F
1CED9E
1CEDDE
387DFC
3FFCBC
F7FCF8
FF3C7C
F839FF
C07BDF
00F78F
01EF07
01DC03
ENDCHAR

STARTCHAR jisx0212_345F
ENCODING 13407
SWIDTH 960 0
DWIDTH 24 0
BBX 24 24 0 -2
BITMAP
383C00
3FFE07
3FFFFF
381BFF
381D87
3FFD87
3FFD87
381DCF
3839CF
3FFFCE
37FECE
3800DE
381EDE
3FFFFC
3FFF7C
38E078
77FC3C
77DEFC
7EFEFE
6EEFDF
FEEDCF
DDE38F
B7EF07
31CE03
ENDCHAR

STARTCHAR jisx0212_3460
ENCODING 13408
SWIDTH 960 0
DWIDTH 24 0
BBX 24 24 0 -2
BITMAP
0FFFF8
0FFFF8
0001E0
03FFC0
001FB0
07F9F6
7FB67F
7FF7FF
00700E
3FE7FC
03D07A
FEF7DF
F93F27
3FFFFF
F00007
F7FFFE
E7FFF8
070070
07FFF0
070070
07FFF7
FF007F
FFFFFF
000000
ENDCHAR

STARTCHAR jisx0212_3461
ENCODING 13409
SWIDTH 960 0
DWIDTH 24 0
BBX 24 24 0 -2
BITMAP
0E003C
0FFFFE
0FFFFE
0E001E
0E001C
0E001C
0E001C
0FFFFC
0FFFFC
0E181C
0E1E1C
001C02
7FFFFF
7FFFFF
00380F
00780E
00780E
00F00E
01F01E
03E01E
0FC3FC
3F83FC
FE0078
F00060
ENDCHAR

STARTCHAR jisx0212_3462
ENCODING 13410
SWIDTH 960 0
DWIDTH 24 0
BBX 24 24 0 -2
BITMAP
0E0078
0FFFFC
0FFFFC
0E003C
0E0038
0E0038
0E0038
0E0038
0FFFF8
0FFFF8
0E003C
0E000E
71FFFF
7FFFFF
00700F
00F00E
00F00E
01E00E
03E01E
07C01E
0F83FC
3F03FC
FC0078
F00060
ENDCHAR

STARTCHAR jisx0212_3463
ENCODING 13411
SWIDTH 960 0
DWIDTH 24 0
BBX 24 24 0 -2
BITMAP
70001E
7FFFFF
7FFFFF
700000
700000
70C0C0
70E1E0
70FFF0
70FFF0
70E0F0
70E0E0
70E0E0
70E0E0
70E0E0
70FFE0
70FFE0
70E0E0
70E0E0
700006
70000F
7FFFFF
7FFFFF
700000
700000
ENDCHAR

STARTCHAR jisx0212_3464
ENCODING 13412
SWIDTH 960 0
DWIDTH 24 0
BBX 24 24 0 -2
BITMAP
301E06
381C0F
3FFFFF
3FFFFF
380000
380000
380000
3C0000
3FFFFF
1FFFFF
0FFFFF
100000
1C003C
1FFFFE
1FFFFE
1C001E
1C001C
1C001C
1C001C
1C001C
1FFFFC
1FFFFC
1C001C
1C001C
ENDCHAR

STARTCHAR jisx0212_3465
ENCODING 13413
SWIDTH 960 0
DWIDTH 24 0
BBX 24 24 0 -2
BITMAP
000006
00000F
637FFF
7FFFFF
7FC380
73C380
738380
738380
738380
7383E0
7383F8
73837C
7383BE
73839F
7F838F
7F838F
738386
738380
700380
700380
000380
000380
000380
000380
ENDCHAR

STARTCHAR jisx0212_3466
ENCODING 13414
SWIDTH 960 0
DWIDTH 24 0
BBX 24 24 0 -2
BITMAP
00001C
007FFE
63FFFE
7F871E
7FC71C
73871C
73871F
73FFFB
73FFFF
73871C
73871C
73871C
73871C
73FFFC
7F7FFC
7F871C
738F1C
738F1C
700E00
701E00
003C00
007800
01F000
01C000
ENDCHAR

STARTCHAR jisx0212_3467
ENCODING 13415
SWIDTH 960 0
DWIDTH 24 0
BBX 24 24 0 -2
BITMAP
003EF8
003EF8
63B8E0
7FB8E0
7FB8E6
73B8E7
73B8EF
73BEEF
73B7FE
73BFDC
73B8F8
73B8F0
73B8E0
73B8E0
7FB8E0
7FB8E0
73B8E3
73B8E3
703BE7
703FE7
03FEFF
03F8FF
01E07F
018000
ENDCHAR

STARTCHAR jisx0212_3468
ENCODING 13416
SWIDTH 960 0
DWIDTH 24 0
BBX 24 24 0 -2
BITMAP
00381E
63BFFF
7FBFFF
7FB9CF
73B9CE
73B9CE
73B9CE
73B9CE
73B9CE
73B9CE
73BFFE
73BFFE
73B80E
73B80E
7FB800
7FB803
73B803
73B807
703807
70380E
003FFF
003FFF
001FFF
000000
ENDCHAR

STARTCHAR jisx0212_3469
ENCODING 13417
SWIDTH 960 0
DWIDTH 24 0
BBX 24 24 0 -2
BITMAP
0001F0
0001F6
6381CF
7FC1FF
7FCFFE
73BFF0
737DC0
7381CE
73B9CF
73BDCF
73BDCE
73B9CE
73B9CE
73B9CE
73B9CE
7FBFFE
7FBFFE
73B9CF
73B9C3
7039C7
0001C7
0001FF
0001FF
0000FF
ENDCHAR

STARTCHAR jisx0212_346A
ENCODING 13418
SWIDTH 960 0
DWIDTH 24 0
BBX 24 24 0 -2
BITMAP
000EF0
000EF0
671EE0
7F9EE0
7F9CE6
77BCE7
773CEF
7738EF
7778FE
7778DC
77F8F8
76F8F0
77B9E0
77BBE0
773EE0
7F36E0
7F38E3
7738E3
7738E3
7038E7
0038E7
0038FF
0038FF
00387F
ENDCHAR

STARTCHAR jisx0212_346B
ENCODING 13419
SWIDTH 960 0
DWIDTH 24 0
BBX 24 24 0 -2
BITMAP
1C1FFE
1FFFFE
1FFF80
1C000C
1C001E
1FFFFF
1FFFFF
1C000F
1C000E
1C000E
1FFFFE
1FFFFE
1C000E
1F0001
1BFFFF
3BFFFF
3B8007
3B8007
3B8007
7B8007
73FFFF
73FFFF
E38007
C38007
ENDCHAR

STARTCHAR jisx0212_346C
ENCODING 13420
SWIDTH 960 0
DWIDTH 24 0
BBX 24 24 0 -2
BITMAP
0001F0
0001F0
6381C3
7FC1C7
7FFFFF
737FFF
7381C0
7381C0
7381C0
7381DC
73FFFE
737FFF
738C1F
738E3C
7F8E78
7F86F8
7387F0
7383E0
7007D0
701FFC
003F7F
00FC3F
03F00F
03C003
ENDCHAR

STARTCHAR jisx0212_346D
ENCODING 13421
SWIDTH 960 0
DWIDTH 24 0
BBX 24 24 0 -2
BITMAP
1C003C
1FFFFE
1FFFFE
1C001E
1C001C
1C001C
1C001C
1FFFFC
1FFFFC
1C0000
23FFFE
3FFFFE
001C00
001C0F
FFFFFF
FFFFFF
003600
007F80
00FBE0
01F1F8
07E0FF
1FC07F
FF001F
F80006
ENDCHAR

STARTCHAR jisx0212_346E
ENCODING 13422
SWIDTH 960 0
DWIDTH 24 0
BBX 24 24 0 -2
BITMAP
0001F0
0001F0
6399C0
7FDDF8
7FDDBC
73DDDE
73BDCF
73BDCF
73B9C7
73B9C7
73F9C3
7371CF
7371CC
73EFDF
7FCFFE
7F83BC
738378
7380F0
7007E0
701FC0
007F00
01FC00
07F000
078000
ENDCHAR

STARTCHAR jisx0212_346F
ENCODING 13423
SWIDTH 960 0
DWIDTH 24 0
BBX 24 24 0 -2
BITMAP
00700F
677FFF
7F7FFF
7F7000
777618
77773C
7777FE
7777FE
77771E
77771C
77771C
77771C
77771C
77771C
7FF71C
7EF7FC
76E6FF
77E73B
71E737
73C707
03C7FF
0787FF
0703FF
060000
ENDCHAR

STARTCHAR jisx0212_3470
ENCODING 13424
SWIDTH 960 0
DWIDTH 24 0
BBX 24 24 0 -2
BITMAP
7FFFE0
7FFFE0
01C1C0
03C3CE
03C7BF
0787FF
07870F
0F181E
1E1DFE
7C1DFC
F81C7A
E01C67
1FFF9F
FFFFFF
001C00
1C1C3C
1FFFFE
1FFFFE
1C001E
1C001C
1C001C
1FFFFC
1FFFFC
1C001C
ENDCHAR

STARTCHAR jisx0212_3471
ENCODING 13425
SWIDTH 960 0
DWIDTH 24 0
BBX 24 24 0 -2
BITMAP
001F00
001F1C
01DC3F
7FDE7F
7FDEF8
01DBE0
03DF80
079DF0
0F1CFC
1E1C7F
7C1C3F
F9FC1F
E1FC06
1C3838
1FF7FE
1FFFFE
1C001E
1C001C
1C001C
1C001C
1C001C
1FFFFC
1FFFFC
1C001C
ENDCHAR

STARTCHAR jisx0212_3472
ENCODING 13426
SWIDTH 960 0
DWIDTH 24 0
BBX 24 24 0 -2
BITMAP
00001E
003FFF
63BFFF
7FC000
7FC000
73C000
738000
738006
73800F
73FFFF
737FFF
738780
738700
738F00
7F8F38
7F8E3C
738E1E
739E0F
701C0F
701CF7
01FBFF
01FFE7
00FE07
00C003
ENDCHAR

STARTCHAR jisx0212_3473
ENCODING 13427
SWIDTH 960 0
DWIDTH 24 0
BBX 24 24 0 -2
BITMAP
0003FE
0007FE
638FB8
7FBF38
7FFC38
736F38
738E38
738E38
738E3B
738E3F
73FFF7
73FFFF
738E38
738E38
7F8E38
7F9E38
739E38
739C38
703C38
703838
007838
00F038
01E038
01C038
ENDCHAR

STARTCHAR jisx0212_3474
ENCODING 13428
SWIDTH 960 0
DWIDTH 24 0
BBX 24 24 0 -2
BITMAP
00000F
00FFFF
63FFFF
7F8007
7FC0F7
73BFF7
737FF7
738007
73B0E7
73BFF7
73BFF7
73B8F7
73B8E7
73B8E7
7FB8E7
7FBFE7
73BFE7
73B8E7
703807
700007
0000FF
0000FF
00001E
00000C
ENDCHAR

STARTCHAR jisx0212_3475
ENCODING 13429
SWIDTH 960 0
DWIDTH 24 0
BBX 24 24 0 -2
BITMAP
00701E
007FFF
677FFF
7F700F
7F700E
77700E
777FFE
777FFE
77700E
777780
77778C
77771F
77773F
7777FC
7F76F0
7FF7C3
76F703
76E707
70E707
71E70E
01C7FF
03C7FF
0383FF
030000
ENDCHAR

STARTCHAR jisx0212_3476
ENCODING 13430
SWIDTH 960 0
DWIDTH 24 0
BBX 24 24 0 -2
BITMAP
0007C0
000780
638EE0
7FCEF0
7FDE78
73DE7C
73BC3F
73B85F
73F7EF
735FF7
73C003
73800C
73FFFF
737FFF
7F870F
7F870E
73870E
73870E
70077E
70077E
00071C
000718
000700
000700
ENDCHAR

STARTCHAR jisx0212_3477
ENCODING 13431
SWIDTH 960 0
DWIDTH 24 0
BBX 24 24 0 -2
BITMAP
001E7C
003E7C
673C70
7FBA70
7FF770
777777
77FFFF
76EFFF
776E77
777E77
775C77
773C77
773877
777EF7
7F76F7
7FF6E7
76EBE7
71DFE7
77FBCF
03C1CF
0307BE
000F7E
001E1C
001C18
ENDCHAR

STARTCHAR jisx0212_3478
ENCODING 13432
SWIDTH 960 0
DWIDTH 24 0
BBX 24 24 0 -2
BITMAP
00307F
003BFF
63BFF8
7FBEC0
7FB8F0
73B8E0
73B8E3
73B8E7
73BFFF
73BFFF
73B8E0
73B8F0
73B870
73B870
7FB878
7FB879
73BBB9
703FBD
73FF3F
03FCDB
01E1FF
019FEF
007FF7
000003
ENDCHAR

STARTCHAR jisx0212_3479
ENCODING 13433
SWIDTH 960 0
DWIDTH 24 0
BBX 24 24 0 -2
BITMAP
00001E
63BFFF
7FFFFF
7FC000
73C000
738000
738006
73800F
73FFFF
737FFF
7381C0
73B1C0
73BDD8
7FBDDC
7FF9DE
7379CF
73F1CF
70F1C7
71E1C7
03C1C3
039FC3
031FC3
000380
000300
ENDCHAR

STARTCHAR jisx0212_347A
ENCODING 13434
SWIDTH 960 0
DWIDTH 24 0
BBX 24 24 0 -2
BITMAP
0001F0
6381F0
7FC1C0
7FC1C3
73C1C7
7381FF
7381FF
7381C0
7381C0
7381C0
73B1C6
73B9CF
73BFFF
73BFFF
73B807
7FB807
7FB807
73B807
73B807
703807
003FFF
003FFF
003807
003807
ENDCHAR

STARTCHAR jisx0212_347B
ENCODING 13435
SWIDTH 960 0
DWIDTH 24 0
BBX 24 24 0 -2
BITMAP
0067BC
6777BC
7F7738
7F7738
77773B
77773F
77FFF7
77FFFF
777738
777738
777738
777738
777738
7F7738
7F77F8
7777F8
777738
707738
707706
00700F
007FFF
007FFF
007000
007000
ENDCHAR

STARTCHAR jisx0212_347C
ENCODING 13436
SWIDTH 960 0
DWIDTH 24 0
BBX 24 24 0 -2
BITMAP
00300C
63B81E
7FBFFF
7FBFFF
73B80F
73B80E
73B80E
73B80E
73B80E
73B80E
73B80E
73B80E
73B80E
73BFFE
7FBFFE
7FB80E
738F70
739F3C
703E1E
007C0F
00F80F
03F007
07C007
070003
ENDCHAR

STARTCHAR jisx0212_347D
ENCODING 13437
SWIDTH 960 0
DWIDTH 24 0
BBX 24 24 0 -2
BITMAP
001F00
001F06
639C0F
7FBFFF
7FBFFF
73B807
73F807
7370E7
73FFF7
73DFF7
73DCF7
739CE7
739CE7
739CE7
7F9CE7
7F9FE7
739FEF
739CEF
701C0E
70001E
0001FE
0001FC
000078
000060
ENDCHAR

STARTCHAR jisx0212_347E
ENCODING 13438
SWIDTH 960 0
DWIDTH 24 0
BBX 24 24 0 -2
BITMAP
0003E0
0003E0
638380
7FC38C
7FC39E
73BFFF
737FFF
738380
738380
738386
73838F
73FFFF
73FFFF
738780
738770
7F8F78
7F8E3C
738E1E
701C1F
701DEF
01FBFF
01FFC7
00FC07
00C003
ENDCHAR

STARTCHAR jisx0212_3521
ENCODING 13601
SWIDTH 960 0
DWIDTH 24 0
BBX 24 24 0 -2
BITMAP
001F1F
639F1F
7FDC1C
7FDC1C
739C1F
73FFFB
73FFFF
739C1C
739C1C
739C1C
739C1C
739C1C
739FFC
739FFC
7F9C1C
7F9C1C
739C1C
739C1C
701C1C
001C1C
001FFC
001FFC
001C1C
001C1C
ENDCHAR

STARTCHAR jisx0212_3522
ENCODING 13602
SWIDTH 960 0
DWIDTH 24 0
BBX 24 24 0 -2
BITMAP
0078F0
007CF0
666EE0
7F6EE0
7FEEEE
76EEFF
76EEDF
76EFEE
77EDEE
75FEEE
75DEEE
77EEEE
76EEEE
76EEFE
7EEEFE
7EEEDC
76EEE3
76EEE3
70EEE7
70EE07
00EFFF
00EFFF
00E7FF
00E000
ENDCHAR

STARTCHAR jisx0212_3523
ENCODING 13603
SWIDTH 960 0
DWIDTH 24 0
BBX 24 24 0 -2
BITMAP
001F00
001F0C
001C1E
7FFFFF
7FFFFF
0300C0
03C1F0
01E1E0
01E3C6
00E38F
FFDF7F
FFFFFF
000000
0E0078
0FFFFC
0FFFFC
0E003C
0E0038
0E0038
0E0038
0FFFF8
0FFFF8
0E0038
0E0038
ENDCHAR

STARTCHAR jisx0212_3524
ENCODING 13604
SWIDTH 960 0
DWIDTH 24 0
BBX 24 24 0 -2
BITMAP
000EF0
000EF0
670EEE
7F7FFF
7F7FFF
770EEF
770EEE
776EEE
777FFE
777FFE
7776EE
77F6E0
76F6E7
76EFFF
7EFFFF
7FEEE7
771EE7
771EE7
703CFF
707CFF
00F8EE
01F0EC
07E0E0
0780E0
ENDCHAR

STARTCHAR jisx0212_3525
ENCODING 13605
SWIDTH 960 0
DWIDTH 24 0
BBX 24 24 0 -2
BITMAP
0003E0
0003E0
670380
7F6398
7F73BC
777FFE
777FFE
77739E
77739C
77739C
77739C
77739C
77739F
77FFFB
7FFFFF
7F0780
770EE0
770EF0
701E78
703E7E
007C3F
01F81F
07E00F
078006
ENDCHAR

STARTCHAR jisx0212_3526
ENCODING 13606
SWIDTH 960 0
DWIDTH 24 0
BBX 24 24 0 -2
BITMAP
0003E0
0007E0
638780
7FC760
7FCF78
73CE3C
739E1E
739CEF
73FBFF
73FFE7
737E07
73E00B
73B81C
73BFFF
73BFFF
7FB80F
7FB80E
73B80E
70380E
70380E
003FFE
003FFE
00380E
00380E
ENDCHAR

STARTCHAR jisx0212_3527
ENCODING 13607
SWIDTH 960 0
DWIDTH 24 0
BBX 24 24 0 -2
BITMAP
001E03
671E07
7F9DFF
7F9BFF
779C1C
777BDC
76FFDC
771C1C
771C1C
771C1C
771FDC
773BDC
77FF1C
77FC1C
7EDC1C
7FDC1C
771C1C
771C1C
701C1C
701C1C
01FDFC
01FDFC
003838
003030
ENDCHAR

STARTCHAR jisx0212_3528
ENCODING 13608
SWIDTH 960 0
DWIDTH 24 0
BBX 24 24 0 -2
BITMAP
0001F0
0001F0
6381C0
7FC1C6
7FC1CF
73FFFF
737FFF
7381C0
7381C0
7381C0
73B1CC
73B9DE
73BFFF
73BFFF
7FB80F
7FB80E
73B80E
73B80E
70380E
70380E
003FFE
003FFE
00380E
00380E
ENDCHAR

STARTCHAR jisx0212_3529
ENCODING 13609
SWIDTH 960 0
DWIDTH 24 0
BBX 24 24 0 -2
BITMAP
007C00
007C00
667067
7F707F
7F777F
76FF77
75FF77
767777
767777
767777
767777
767777
76F777
76F777
76E777
7EE777
7FE777
75E777
75CF77
73CF7F
03BE7F
077E77
071C77
061870
ENDCHAR

STARTCHAR jisx0212_352A
ENCODING 13610
SWIDTH 960 0
DWIDTH 24 0
BBX 24 24 0 -2
BITMAP
0001F0
0001F0
6731C0
7FB1C7
7FFFFF
777FFF
77F007
76FE0E
77DE0C
771C10
771C3F
771CFF
771FFC
771BE0
771F00
7F1C03
7F1C03
771C07
771C07
701C0E
001FFF
001FFF
000FFF
000000
ENDCHAR

STARTCHAR jisx0212_352B
ENCODING 13611
SWIDTH 960 0
DWIDTH 24 0
BBX 24 24 0 -2
BITMAP
00000F
007FFF
63FFFF
7F81E0
7FC3C0
73DB8E
739F7F
739FFF
739C0F
739C0E
739C0E
739C0E
739C0E
739FFE
739FFE
7F9C0E
7F9C0E
739C0E
701C0E
701C0E
001FFE
001FFE
001C0E
001C0E
ENDCHAR

STARTCHAR jisx0212_352C
ENCODING 13612
SWIDTH 960 0
DWIDTH 24 0
BBX 24 24 0 -2
BITMAP
000007
00FFFF
63FFFF
7F9C1C
7FDC1C
73DC1C
739FFC
739FFC
739C1C
739C1C
739C1C
739FFC
739FFC
739C1C
7F9C1C
7F9C1F
739DFF
73FFFC
70FFDC
707C1C
00601C
00001C
00001C
00001C
ENDCHAR

STARTCHAR jisx0212_352D
ENCODING 13613
SWIDTH 960 0
DWIDTH 24 0
BBX 24 24 0 -2
BITMAP
0003E0
0003E6
67038F
7FFFFF
7FFFFF
770380
77FFFF
76FFFF
77038E
777FFE
777FFE
77738E
777381
77FFFF
7EFFFF
7EE387
77E7FF
770EBF
701EEE
703E70
007C3F
01F81F
07E00F
078003
ENDCHAR

STARTCHAR jisx0212_352E
ENCODING 13614
SWIDTH 960 0
DWIDTH 24 0
BBX 24 24 0 -2
BITMAP
0003C7
01FFE7
67FFE7
7F3807
7FB877
777877
777F77
777777
777F77
77F777
76E777
76EF77
77EF77
77BE77
7FBE77
7F3E77
771C77
703C77
707807
00F007
01E07F
03C07F
07801E
06000C
ENDCHAR

STARTCHAR jisx0212_352F
ENCODING 13615
SWIDTH 960 0
DWIDTH 24 0
BBX 24 24 0 -2
BITMAP
00381E
003C3E
639E3C
7FDE78
7FCE77
73BDEF
737FFF
7381C0
7381C0
7381CE
73BFFF
73BFFF
7381C0
7381C3
7381C7
7FFFFF
7F7FFF
7381C0
7381C0
7001C0
0001C0
0001C0
0001C0
0001C0
ENDCHAR

STARTCHAR jisx0212_3530
ENCODING 13616
SWIDTH 960 0
DWIDTH 24 0
BBX 24 24 0 -2
BITMAP
0003E0
0063EC
67738F
7FFB9F
7FBB9E
77BBBC
773BBC
771BF8
771B76
771BEF
77E79F
76FFFF
7707C0
770FE0
7F1F70
7F3BF8
773BBC
777BBF
70F39F
71E38F
03C387
078383
060380
000380
ENDCHAR

STARTCHAR jisx0212_3531
ENCODING 13617
SWIDTH 960 0
DWIDTH 24 0
BBX 24 24 0 -2
BITMAP
0003E0
0003E0
670386
7F838F
7FFFFF
76FFFF
770380
77038C
77039E
777FFF
777FFF
770000
77600C
77701E
7F7FFF
7F7FFF
77700F
77700E
70700E
70700E
007FFE
007FFE
00700E
00700E
ENDCHAR

STARTCHAR jisx0212_3532
ENCODING 13618
SWIDTH 960 0
DWIDTH 24 0
BBX 24 24 0 -2
BITMAP
0033E0
003BE0
C73B80
FF7B8C
FF7B9E
E777FF
E7FFFF
E6E380
E7C386
E7838F
E77FFF
E6FFFF
E707C0
E71FE0
E71F70
FF3BF8
FF7BBC
E7FBBF
E0F39F
E3E38F
07C387
0F0383
0C0380
000380
ENDCHAR

STARTCHAR jisx0212_3533
ENCODING 13619
SWIDTH 960 0
DWIDTH 24 0
BBX 24 24 0 -2
BITMAP
0001F0
0001F0
63B3C6
7FBB8F
7FBF7F
73BFFF
73B807
73B807
73B807
73BFFF
73BFFF
73B807
73B807
73B807
73BFFF
7FBFFF
7FB807
73B807
73B807
703807
003FFF
003FFF
003807
003807
ENDCHAR

STARTCHAR jisx0212_3534
ENCODING 13620
SWIDTH 960 0
DWIDTH 24 0
BBX 24 24 0 -2
BITMAP
000EF0
000EF0
670EE0
7FCEE6
7EEEE7
77EEEF
776EEF
776EFE
776EDC
776EF8
776EF0
776EE0
771EFC
773EDE
7FFEEF
7EEEEF
77FEE7
71DEE6
71BCE1
707CE3
00F8E7
01F0FF
03E0FF
03807F
ENDCHAR

STARTCHAR jisx0212_3535
ENCODING 13621
SWIDTH 960 0
DWIDTH 24 0
BBX 24 24 0 -2
BITMAP
0003E0
0003E0
676387
7F7FFF
7F7FFF
77E007
76E78E
77E78C
76CF02
770F0F
77FEFF
76FFFF
771C38
773C38
7F3C78
7F3878
777F70
777FF0
7071E8
7077FE
000FBF
007F1F
03FC0F
03E006
ENDCHAR

ENDFONT
